<?xml version="1.0" encoding="UTF-8" standalone="no"?>
<svg
   xmlns:dc="http://purl.org/dc/elements/1.1/"
   xmlns:cc="http://creativecommons.org/ns#"
   xmlns:rdf="http://www.w3.org/1999/02/22-rdf-syntax-ns#"
   xmlns:svg="http://www.w3.org/2000/svg"
   xmlns="http://www.w3.org/2000/svg"
   xmlns:xlink="http://www.w3.org/1999/xlink"
   id="svg50"
   version="1.1"
   fill="none"
   viewBox="0 0 1500 500"
   height="500"
   width="1500">
  <metadata
     id="metadata54">
    <rdf:RDF>
      <cc:Work
         rdf:about="">
        <dc:format>image/svg+xml</dc:format>
        <dc:type
           rdf:resource="http://purl.org/dc/dcmitype/StillImage" />
        <dc:title></dc:title>
      </cc:Work>
    </rdf:RDF>
  </metadata>
  <g
     id="g36"
     clip-path="url(#clip0)">
    <rect
       id="rect2"
       fill="#1E1E1E"
       height="500"
       width="1500" />
    <rect
       id="rect4"
       fill="#1E1E1E"
       height="500"
       width="1500" />
    <rect
       id="rect6"
       fill="#DF2525"
       transform="rotate(-37.4908 286 621.501)"
       height="759.948"
       width="1614.27"
       y="621.501"
       x="286" />
    <circle
       fill="white"
       id="circle8"
       r="183"
       cy="225"
       cx="750" />
    <path
       id="path10"
       fill="white"
d="M 154.86 14.7 L 153.06 14.7 L 153.06 4.3 L 154.8 4.3 L 154.8 6.04 Q 155.36 5.2 156.22 4.63 A 3.441 3.441 0 0 1 158.06 4.062 A 4.171 4.171 0 0 1 158.18 4.06 Q 159.42 4.06 160.21 4.66 A 3.15 3.15 0 0 1 161.3 6.198 A 3.831 3.831 0 0 1 161.32 6.26 Q 161.94 5.34 162.79 4.7 A 3.134 3.134 0 0 1 164.148 4.123 A 4.289 4.289 0 0 1 164.9 4.06 Q 166.285 4.06 167.093 4.77 A 2.599 2.599 0 0 1 167.43 5.13 A 3.798 3.798 0 0 1 168.112 6.585 Q 168.26 7.195 168.26 7.92 L 168.26 14.7 L 166.46 14.7 L 166.46 8.06 A 3.809 3.809 0 0 0 166.393 7.322 Q 166.305 6.881 166.106 6.532 A 2.196 2.196 0 0 0 165.96 6.31 A 1.595 1.595 0 0 0 164.797 5.651 A 2.136 2.136 0 0 0 164.58 5.64 A 2.385 2.385 0 0 0 163.228 6.066 A 3.199 3.199 0 0 0 162.91 6.31 Q 162.14 6.98 161.56 7.88 L 161.56 14.7 L 159.76 14.7 L 159.76 8.06 A 3.809 3.809 0 0 0 159.693 7.322 Q 159.605 6.881 159.406 6.532 A 2.196 2.196 0 0 0 159.26 6.31 A 1.595 1.595 0 0 0 158.097 5.651 A 2.136 2.136 0 0 0 157.88 5.64 A 2.404 2.404 0 0 0 156.616 6.006 A 3.249 3.249 0 0 0 156.22 6.29 Q 155.44 6.94 154.86 7.82 L 154.86 14.7 Z M 249.64 18.46 L 250.3 16.9 A 4.112 4.112 0 0 0 251.063 17.375 A 4.947 4.947 0 0 0 251.42 17.53 A 3.381 3.381 0 0 0 252.057 17.705 Q 252.371 17.761 252.732 17.775 A 6.357 6.357 0 0 0 252.98 17.78 A 4.34 4.34 0 0 0 253.884 17.692 Q 254.678 17.522 255.21 17.03 A 2.27 2.27 0 0 0 255.791 16.131 Q 255.927 15.763 255.982 15.307 A 5.568 5.568 0 0 0 256.02 14.64 L 256.02 13.36 A 3.16 3.16 0 0 1 255.62 13.756 Q 255.405 13.937 255.136 14.109 A 6.281 6.281 0 0 1 254.87 14.27 A 3.181 3.181 0 0 1 253.834 14.637 A 4.318 4.318 0 0 1 253.08 14.7 Q 251.9 14.7 250.84 14.09 A 4.447 4.447 0 0 1 249.382 12.723 A 5.488 5.488 0 0 1 249.12 12.3 Q 248.46 11.12 248.46 9.46 A 6.412 6.412 0 0 1 248.643 7.899 A 5.336 5.336 0 0 1 249.11 6.68 A 5.141 5.141 0 0 1 250.323 5.156 A 4.89 4.89 0 0 1 250.86 4.76 Q 251.96 4.06 253.28 4.06 A 4.473 4.473 0 0 1 254.244 4.16 A 3.743 3.743 0 0 1 254.88 4.36 A 5.141 5.141 0 0 1 255.646 4.754 A 4.2 4.2 0 0 1 256.12 5.1 L 256.12 4.3 L 257.76 4.3 L 257.76 14.46 A 8.139 8.139 0 0 1 257.689 15.567 Q 257.609 16.151 257.437 16.639 A 4.033 4.033 0 0 1 257.16 17.26 Q 256.56 18.34 255.49 18.84 A 5.162 5.162 0 0 1 254.169 19.244 A 7.049 7.049 0 0 1 252.98 19.34 Q 252.06 19.34 251.19 19.12 A 5.446 5.446 0 0 1 250.13 18.737 A 4.704 4.704 0 0 1 249.64 18.46 Z M 8.42 11.06 L 8.42 4.3 L 10.22 4.3 L 10.22 10.82 A 4.596 4.596 0 0 0 10.271 11.527 Q 10.328 11.896 10.451 12.194 A 2.027 2.027 0 0 0 10.74 12.69 Q 11.26 13.34 12.26 13.34 Q 13.08 13.34 13.85 13.01 Q 14.62 12.68 15.22 12.12 L 15.22 4.3 L 17.02 4.3 L 17.02 12 A 3.12 3.12 0 0 0 17.04 12.371 Q 17.088 12.767 17.247 12.985 A 0.654 0.654 0 0 0 17.39 13.13 Q 17.76 13.4 18.2 13.4 L 17.82 14.8 Q 15.96 14.8 15.52 13.32 Q 14.82 14.04 13.9 14.49 Q 12.98 14.94 11.92 14.94 Q 11.02 14.94 10.22 14.56 A 2.888 2.888 0 0 1 9.118 13.632 A 3.653 3.653 0 0 1 8.92 13.33 A 3.248 3.248 0 0 1 8.587 12.511 Q 8.483 12.117 8.444 11.649 A 7.074 7.074 0 0 1 8.42 11.06 Z M 121.38 11.06 L 121.38 4.3 L 123.18 4.3 L 123.18 10.82 A 4.596 4.596 0 0 0 123.231 11.527 Q 123.288 11.896 123.411 12.194 A 2.027 2.027 0 0 0 123.7 12.69 Q 124.22 13.34 125.22 13.34 Q 126.04 13.34 126.81 13.01 Q 127.58 12.68 128.18 12.12 L 128.18 4.3 L 129.98 4.3 L 129.98 12 A 3.12 3.12 0 0 0 130 12.371 Q 130.048 12.767 130.207 12.985 A 0.654 0.654 0 0 0 130.35 13.13 Q 130.72 13.4 131.16 13.4 L 130.78 14.8 Q 128.92 14.8 128.48 13.32 Q 127.78 14.04 126.86 14.49 Q 125.94 14.94 124.88 14.94 Q 123.98 14.94 123.18 14.56 A 2.888 2.888 0 0 1 122.078 13.632 A 3.653 3.653 0 0 1 121.88 13.33 A 3.248 3.248 0 0 1 121.547 12.511 Q 121.443 12.117 121.404 11.649 A 7.074 7.074 0 0 1 121.38 11.06 Z M 22.4 14.7 L 20.6 14.7 L 20.6 4.3 L 22.34 4.3 L 22.34 6.04 Q 22.9 5.2 23.77 4.63 A 3.463 3.463 0 0 1 25.191 4.105 A 4.526 4.526 0 0 1 25.84 4.06 A 4.645 4.645 0 0 1 26.853 4.164 Q 27.522 4.313 28.009 4.678 A 2.652 2.652 0 0 1 28.47 5.12 A 3.681 3.681 0 0 1 29.191 6.596 Q 29.34 7.2 29.34 7.92 L 29.34 14.7 L 27.54 14.7 L 27.54 8.12 A 3.853 3.853 0 0 0 27.472 7.372 Q 27.384 6.929 27.184 6.579 A 2.193 2.193 0 0 0 27.01 6.32 Q 26.48 5.64 25.54 5.64 A 2.624 2.624 0 0 0 24.17 6.033 A 3.471 3.471 0 0 0 23.8 6.29 Q 22.98 6.94 22.4 7.82 L 22.4 14.7 Z M 210.4 14.7 L 208.6 14.7 L 208.6 4.3 L 210.34 4.3 L 210.34 6.04 Q 210.9 5.2 211.77 4.63 A 3.463 3.463 0 0 1 213.191 4.105 A 4.526 4.526 0 0 1 213.84 4.06 A 4.645 4.645 0 0 1 214.853 4.164 Q 215.522 4.313 216.009 4.678 A 2.652 2.652 0 0 1 216.47 5.12 A 3.681 3.681 0 0 1 217.191 6.596 Q 217.34 7.2 217.34 7.92 L 217.34 14.7 L 215.54 14.7 L 215.54 8.12 A 3.853 3.853 0 0 0 215.472 7.372 Q 215.384 6.929 215.184 6.579 A 2.193 2.193 0 0 0 215.01 6.32 Q 214.48 5.64 213.54 5.64 A 2.624 2.624 0 0 0 212.17 6.033 A 3.471 3.471 0 0 0 211.8 6.29 Q 210.98 6.94 210.4 7.82 L 210.4 14.7 Z M 239.12 14.7 L 237.32 14.7 L 237.32 4.3 L 239.06 4.3 L 239.06 6.04 Q 239.62 5.2 240.49 4.63 A 3.463 3.463 0 0 1 241.911 4.105 A 4.526 4.526 0 0 1 242.56 4.06 A 4.645 4.645 0 0 1 243.573 4.164 Q 244.242 4.313 244.729 4.678 A 2.652 2.652 0 0 1 245.19 5.12 A 3.681 3.681 0 0 1 245.911 6.596 Q 246.06 7.2 246.06 7.92 L 246.06 14.7 L 244.26 14.7 L 244.26 8.12 A 3.853 3.853 0 0 0 244.192 7.372 Q 244.104 6.929 243.904 6.579 A 2.193 2.193 0 0 0 243.73 6.32 Q 243.2 5.64 242.26 5.64 A 2.624 2.624 0 0 0 240.89 6.033 A 3.471 3.471 0 0 0 240.52 6.29 Q 239.7 6.94 239.12 7.82 L 239.12 14.7 Z M 267.66 14.7 L 265.86 14.7 L 265.86 4.3 L 267.6 4.3 L 267.6 6.04 Q 268.16 5.2 269.03 4.63 A 3.463 3.463 0 0 1 270.451 4.105 A 4.526 4.526 0 0 1 271.1 4.06 A 4.645 4.645 0 0 1 272.113 4.164 Q 272.782 4.313 273.269 4.678 A 2.652 2.652 0 0 1 273.73 5.12 A 3.681 3.681 0 0 1 274.451 6.596 Q 274.6 7.2 274.6 7.92 L 274.6 14.7 L 272.8 14.7 L 272.8 8.12 A 3.853 3.853 0 0 0 272.732 7.372 Q 272.644 6.929 272.444 6.579 A 2.193 2.193 0 0 0 272.27 6.32 Q 271.74 5.64 270.8 5.64 A 2.624 2.624 0 0 0 269.43 6.033 A 3.471 3.471 0 0 0 269.06 6.29 Q 268.24 6.94 267.66 7.82 L 267.66 14.7 Z M 234.86 10.24 L 227.58 10.24 A 4.818 4.818 0 0 0 227.808 11.245 Q 228.046 11.924 228.488 12.405 A 2.996 2.996 0 0 0 228.6 12.52 A 2.829 2.829 0 0 0 230.125 13.282 A 4.004 4.004 0 0 0 230.82 13.34 Q 231.72 13.34 232.44 13.15 Q 233.16 12.96 233.82 12.66 L 234.24 14.2 A 8.154 8.154 0 0 1 233.373 14.525 A 10.373 10.373 0 0 1 232.62 14.73 Q 231.72 14.94 230.6 14.94 A 5.664 5.664 0 0 1 229.051 14.739 A 4.222 4.222 0 0 1 227.05 13.51 A 4.704 4.704 0 0 1 226.009 11.602 Q 225.807 10.902 225.757 10.07 A 9.425 9.425 0 0 1 225.74 9.5 A 7.072 7.072 0 0 1 225.907 7.936 A 5.768 5.768 0 0 1 226.33 6.71 A 4.928 4.928 0 0 1 227.333 5.294 A 4.577 4.577 0 0 1 227.98 4.77 A 4.21 4.21 0 0 1 230.032 4.076 A 5.241 5.241 0 0 1 230.44 4.06 A 5.711 5.711 0 0 1 231.534 4.159 Q 232.203 4.29 232.737 4.592 A 3.443 3.443 0 0 1 232.93 4.71 Q 233.92 5.36 234.42 6.46 A 5.637 5.637 0 0 1 234.905 8.433 A 6.687 6.687 0 0 1 234.92 8.88 A 15.041 15.041 0 0 1 234.862 10.219 A 14.117 14.117 0 0 1 234.86 10.24 Z M 286.12 10.24 L 278.84 10.24 A 4.818 4.818 0 0 0 279.068 11.245 Q 279.306 11.924 279.748 12.405 A 2.996 2.996 0 0 0 279.86 12.52 A 2.829 2.829 0 0 0 281.385 13.282 A 4.004 4.004 0 0 0 282.08 13.34 Q 282.98 13.34 283.7 13.15 Q 284.42 12.96 285.08 12.66 L 285.5 14.2 A 8.154 8.154 0 0 1 284.633 14.525 A 10.373 10.373 0 0 1 283.88 14.73 Q 282.98 14.94 281.86 14.94 A 5.664 5.664 0 0 1 280.311 14.739 A 4.222 4.222 0 0 1 278.31 13.51 A 4.704 4.704 0 0 1 277.269 11.602 Q 277.067 10.902 277.017 10.07 A 9.425 9.425 0 0 1 277 9.5 A 7.072 7.072 0 0 1 277.167 7.936 A 5.768 5.768 0 0 1 277.59 6.71 A 4.928 4.928 0 0 1 278.593 5.294 A 4.577 4.577 0 0 1 279.24 4.77 A 4.21 4.21 0 0 1 281.292 4.076 A 5.241 5.241 0 0 1 281.7 4.06 A 5.711 5.711 0 0 1 282.794 4.159 Q 283.463 4.29 283.997 4.592 A 3.443 3.443 0 0 1 284.19 4.71 Q 285.18 5.36 285.68 6.46 A 5.637 5.637 0 0 1 286.165 8.433 A 6.687 6.687 0 0 1 286.18 8.88 A 15.041 15.041 0 0 1 286.122 10.219 A 14.117 14.117 0 0 1 286.12 10.24 Z M 297 10.24 L 289.72 10.24 A 4.818 4.818 0 0 0 289.948 11.245 Q 290.186 11.924 290.628 12.405 A 2.996 2.996 0 0 0 290.74 12.52 A 2.829 2.829 0 0 0 292.265 13.282 A 4.004 4.004 0 0 0 292.96 13.34 Q 293.86 13.34 294.58 13.15 Q 295.3 12.96 295.96 12.66 L 296.38 14.2 A 8.154 8.154 0 0 1 295.513 14.525 A 10.373 10.373 0 0 1 294.76 14.73 Q 293.86 14.94 292.74 14.94 A 5.664 5.664 0 0 1 291.191 14.739 A 4.222 4.222 0 0 1 289.19 13.51 A 4.704 4.704 0 0 1 288.149 11.602 Q 287.947 10.902 287.897 10.07 A 9.425 9.425 0 0 1 287.88 9.5 A 7.072 7.072 0 0 1 288.047 7.936 A 5.768 5.768 0 0 1 288.47 6.71 A 4.928 4.928 0 0 1 289.473 5.294 A 4.577 4.577 0 0 1 290.12 4.77 A 4.21 4.21 0 0 1 292.172 4.076 A 5.241 5.241 0 0 1 292.58 4.06 A 5.711 5.711 0 0 1 293.674 4.159 Q 294.343 4.29 294.877 4.592 A 3.443 3.443 0 0 1 295.07 4.71 Q 296.06 5.36 296.56 6.46 A 5.637 5.637 0 0 1 297.045 8.433 A 6.687 6.687 0 0 1 297.06 8.88 A 15.041 15.041 0 0 1 297.002 10.219 A 14.117 14.117 0 0 1 297 10.24 Z M 85.2 14.7 L 83.32 14.7 L 79.14 4.78 L 80.78 4.1 L 84.32 12.66 L 87.86 4.1 L 89.4 4.78 L 85.2 14.7 Z M 133.96 11.12 L 133.96 6.24 L 132.16 6.24 L 132.16 4.68 L 134 4.68 L 134.38 1.4 L 135.76 1.4 L 135.76 4.68 L 138.64 4.68 L 138.64 6.24 L 135.76 6.24 L 135.76 11.26 Q 135.76 12.288 136.145 12.766 A 1.111 1.111 0 0 0 136.25 12.88 Q 136.74 13.34 137.42 13.34 Q 137.92 13.34 138.37 13.18 A 5.147 5.147 0 0 0 139.006 12.906 A 4.554 4.554 0 0 0 139.2 12.8 L 139.7 14.24 A 3.709 3.709 0 0 1 139.376 14.411 Q 139.216 14.487 139.027 14.562 A 8.673 8.673 0 0 1 138.62 14.71 Q 137.94 14.94 137.2 14.94 A 3.665 3.665 0 0 1 136.164 14.801 A 2.787 2.787 0 0 1 134.83 13.95 Q 133.96 12.96 133.96 11.12 Z M 184.1 11.12 L 184.1 6.24 L 182.3 6.24 L 182.3 4.68 L 184.14 4.68 L 184.52 1.4 L 185.9 1.4 L 185.9 4.68 L 188.78 4.68 L 188.78 6.24 L 185.9 6.24 L 185.9 11.26 Q 185.9 12.288 186.285 12.766 A 1.111 1.111 0 0 0 186.39 12.88 Q 186.88 13.34 187.56 13.34 Q 188.06 13.34 188.51 13.18 A 5.147 5.147 0 0 0 189.146 12.906 A 4.554 4.554 0 0 0 189.34 12.8 L 189.84 14.24 A 3.709 3.709 0 0 1 189.516 14.411 Q 189.356 14.487 189.167 14.562 A 8.673 8.673 0 0 1 188.76 14.71 Q 188.08 14.94 187.34 14.94 A 3.665 3.665 0 0 1 186.304 14.801 A 2.787 2.787 0 0 1 184.97 13.95 Q 184.1 12.96 184.1 11.12 Z M 75.72 5.14 L 75.72 4.3 L 77.36 4.3 L 77.36 12.18 A 2.43 2.43 0 0 0 77.38 12.507 Q 77.447 12.994 77.73 13.17 Q 78.1 13.4 78.54 13.4 L 78.16 14.8 A 4.683 4.683 0 0 1 78.13 14.8 Q 76.259 14.788 75.849 13.276 A 2.755 2.755 0 0 1 75.84 13.24 A 4.261 4.261 0 0 1 75.218 13.925 A 5.7 5.7 0 0 1 74.59 14.41 Q 73.8 14.94 72.58 14.94 Q 71.28 14.94 70.22 14.28 Q 69.16 13.62 68.53 12.41 A 5.446 5.446 0 0 1 68.004 10.822 A 7.329 7.329 0 0 1 67.9 9.56 A 6.628 6.628 0 0 1 68.099 7.906 A 5.594 5.594 0 0 1 68.53 6.76 Q 69.16 5.52 70.27 4.79 A 4.459 4.459 0 0 1 72.509 4.069 A 5.478 5.478 0 0 1 72.82 4.06 A 4.517 4.517 0 0 1 73.779 4.158 A 3.741 3.741 0 0 1 74.45 4.37 A 5.2 5.2 0 0 1 75.307 4.829 A 4.421 4.421 0 0 1 75.72 5.14 Z M 97.92 5.14 L 97.92 4.3 L 99.56 4.3 L 99.56 12.18 A 2.43 2.43 0 0 0 99.58 12.507 Q 99.647 12.994 99.93 13.17 Q 100.3 13.4 100.74 13.4 L 100.36 14.8 A 4.683 4.683 0 0 1 100.33 14.8 Q 98.459 14.788 98.049 13.276 A 2.755 2.755 0 0 1 98.04 13.24 A 4.261 4.261 0 0 1 97.418 13.925 A 5.7 5.7 0 0 1 96.79 14.41 Q 96 14.94 94.78 14.94 Q 93.48 14.94 92.42 14.28 Q 91.36 13.62 90.73 12.41 A 5.446 5.446 0 0 1 90.204 10.822 A 7.329 7.329 0 0 1 90.1 9.56 A 6.628 6.628 0 0 1 90.299 7.906 A 5.594 5.594 0 0 1 90.73 6.76 Q 91.36 5.52 92.47 4.79 A 4.459 4.459 0 0 1 94.709 4.069 A 5.478 5.478 0 0 1 95.02 4.06 A 4.517 4.517 0 0 1 95.979 4.158 A 3.741 3.741 0 0 1 96.65 4.37 A 5.2 5.2 0 0 1 97.507 4.829 A 4.421 4.421 0 0 1 97.92 5.14 Z M 116.26 5.14 L 116.26 4.3 L 117.9 4.3 L 117.9 12.18 A 2.43 2.43 0 0 0 117.92 12.507 Q 117.987 12.994 118.27 13.17 Q 118.64 13.4 119.08 13.4 L 118.7 14.8 A 4.683 4.683 0 0 1 118.67 14.8 Q 116.799 14.788 116.389 13.276 A 2.755 2.755 0 0 1 116.38 13.24 A 4.261 4.261 0 0 1 115.758 13.925 A 5.7 5.7 0 0 1 115.13 14.41 Q 114.34 14.94 113.12 14.94 Q 111.82 14.94 110.76 14.28 Q 109.7 13.62 109.07 12.41 A 5.446 5.446 0 0 1 108.544 10.822 A 7.329 7.329 0 0 1 108.44 9.56 A 6.628 6.628 0 0 1 108.639 7.906 A 5.594 5.594 0 0 1 109.07 6.76 Q 109.7 5.52 110.81 4.79 A 4.459 4.459 0 0 1 113.049 4.069 A 5.478 5.478 0 0 1 113.36 4.06 A 4.517 4.517 0 0 1 114.319 4.158 A 3.741 3.741 0 0 1 114.99 4.37 A 5.2 5.2 0 0 1 115.847 4.829 A 4.421 4.421 0 0 1 116.26 5.14 Z M 178.48 5.14 L 178.48 4.3 L 180.12 4.3 L 180.12 12.18 A 2.43 2.43 0 0 0 180.14 12.507 Q 180.207 12.994 180.49 13.17 Q 180.86 13.4 181.3 13.4 L 180.92 14.8 A 4.683 4.683 0 0 1 180.89 14.8 Q 179.019 14.788 178.609 13.276 A 2.755 2.755 0 0 1 178.6 13.24 A 4.261 4.261 0 0 1 177.978 13.925 A 5.7 5.7 0 0 1 177.35 14.41 Q 176.56 14.94 175.34 14.94 Q 174.04 14.94 172.98 14.28 Q 171.92 13.62 171.29 12.41 A 5.446 5.446 0 0 1 170.764 10.822 A 7.329 7.329 0 0 1 170.66 9.56 A 6.628 6.628 0 0 1 170.859 7.906 A 5.594 5.594 0 0 1 171.29 6.76 Q 171.92 5.52 173.03 4.79 A 4.459 4.459 0 0 1 175.269 4.069 A 5.478 5.478 0 0 1 175.58 4.06 A 4.517 4.517 0 0 1 176.539 4.158 A 3.741 3.741 0 0 1 177.21 4.37 A 5.2 5.2 0 0 1 178.067 4.829 A 4.421 4.421 0 0 1 178.48 5.14 Z M 0 18.88 L 0.44 17.38 A 2.408 2.408 0 0 0 0.708 17.521 Q 0.85 17.586 1.015 17.642 A 4.093 4.093 0 0 0 1.07 17.66 Q 1.44 17.78 1.82 17.78 Q 3.355 17.78 3.504 16.053 A 4.564 4.564 0 0 0 3.52 15.66 L 3.52 4.3 L 5.32 4.3 L 5.32 15.84 A 5.549 5.549 0 0 1 5.263 16.659 Q 5.162 17.337 4.88 17.83 Q 4.44 18.6 3.7 18.97 A 3.526 3.526 0 0 1 2.434 19.322 A 4.302 4.302 0 0 1 2.04 19.34 Q 0.988 19.34 0.234 18.998 A 3.053 3.053 0 0 1 0 18.88 Z M 60.08 18.88 L 60.52 17.38 A 2.408 2.408 0 0 0 60.788 17.521 Q 60.93 17.586 61.095 17.642 A 4.093 4.093 0 0 0 61.15 17.66 Q 61.52 17.78 61.9 17.78 Q 63.435 17.78 63.584 16.053 A 4.564 4.564 0 0 0 63.6 15.66 L 63.6 4.3 L 65.4 4.3 L 65.4 15.84 A 5.549 5.549 0 0 1 65.343 16.659 Q 65.242 17.337 64.96 17.83 Q 64.52 18.6 63.78 18.97 A 3.526 3.526 0 0 1 62.514 19.322 A 4.302 4.302 0 0 1 62.12 19.34 Q 61.068 19.34 60.314 18.998 A 3.053 3.053 0 0 1 60.08 18.88 Z M 51.2 14.7 L 49.4 14.7 L 49.4 4.3 L 51.14 4.3 L 51.14 6.56 Q 51.4 5.9 51.84 5.33 Q 52.28 4.76 52.94 4.41 A 2.963 2.963 0 0 1 53.876 4.105 A 3.892 3.892 0 0 1 54.48 4.06 Q 54.78 4.06 55.08 4.09 A 3.794 3.794 0 0 1 55.291 4.117 Q 55.391 4.133 55.476 4.153 A 1.763 1.763 0 0 1 55.58 4.18 L 55.04 6.04 Q 54.677 5.887 54.187 5.88 A 3.318 3.318 0 0 0 54.14 5.88 A 2.592 2.592 0 0 0 52.814 6.249 A 3.122 3.122 0 0 0 52.73 6.3 A 2.68 2.68 0 0 0 52.036 6.94 Q 51.815 7.224 51.636 7.589 A 4.585 4.585 0 0 0 51.63 7.6 A 3.864 3.864 0 0 0 51.336 8.462 Q 51.2 9.075 51.2 9.84 L 51.2 14.7 Z M 301.26 14.7 L 299.46 14.7 L 299.46 4.3 L 301.2 4.3 L 301.2 6.56 Q 301.46 5.9 301.9 5.33 Q 302.34 4.76 303 4.41 A 2.963 2.963 0 0 1 303.936 4.105 A 3.892 3.892 0 0 1 304.54 4.06 Q 304.84 4.06 305.14 4.09 A 3.794 3.794 0 0 1 305.351 4.117 Q 305.451 4.133 305.536 4.153 A 1.763 1.763 0 0 1 305.64 4.18 L 305.1 6.04 Q 304.737 5.887 304.247 5.88 A 3.318 3.318 0 0 0 304.2 5.88 A 2.592 2.592 0 0 0 302.874 6.249 A 3.122 3.122 0 0 0 302.79 6.3 A 2.68 2.68 0 0 0 302.096 6.94 Q 301.875 7.224 301.696 7.589 A 4.585 4.585 0 0 0 301.69 7.6 A 3.864 3.864 0 0 0 301.396 8.462 Q 301.26 9.075 301.26 9.84 L 301.26 14.7 Z M 40.092 14.672 A 5.443 5.443 0 0 0 41.82 14.94 A 6.145 6.145 0 0 0 42.275 14.924 A 5.051 5.051 0 0 0 44.47 14.26 Q 45.64 13.58 46.32 12.35 A 5.251 5.251 0 0 0 46.851 10.922 A 6.837 6.837 0 0 0 47 9.46 A 6.908 6.908 0 0 0 46.903 8.278 A 5.159 5.159 0 0 0 46.31 6.59 Q 45.62 5.38 44.45 4.72 A 4.97 4.97 0 0 0 43.522 4.315 A 5.548 5.548 0 0 0 41.82 4.06 A 6.265 6.265 0 0 0 41.504 4.068 A 5.234 5.234 0 0 0 39.18 4.72 Q 38 5.38 37.32 6.6 A 5.205 5.205 0 0 0 36.77 8.118 A 7.001 7.001 0 0 0 36.64 9.5 A 6.964 6.964 0 0 0 36.693 10.371 A 5.49 5.49 0 0 0 37.31 12.33 Q 37.98 13.56 39.16 14.25 A 4.912 4.912 0 0 0 40.092 14.672 Z M 143.752 14.672 A 5.443 5.443 0 0 0 145.48 14.94 A 6.145 6.145 0 0 0 145.935 14.924 A 5.051 5.051 0 0 0 148.13 14.26 Q 149.3 13.58 149.98 12.35 A 5.251 5.251 0 0 0 150.511 10.922 A 6.837 6.837 0 0 0 150.66 9.46 A 6.908 6.908 0 0 0 150.563 8.278 A 5.159 5.159 0 0 0 149.97 6.59 Q 149.28 5.38 148.11 4.72 A 4.97 4.97 0 0 0 147.182 4.315 A 5.548 5.548 0 0 0 145.48 4.06 A 6.265 6.265 0 0 0 145.164 4.068 A 5.234 5.234 0 0 0 142.84 4.72 Q 141.66 5.38 140.98 6.6 A 5.205 5.205 0 0 0 140.43 8.118 A 7.001 7.001 0 0 0 140.3 9.5 A 6.964 6.964 0 0 0 140.353 10.371 A 5.49 5.49 0 0 0 140.97 12.33 Q 141.64 13.56 142.82 14.25 A 4.912 4.912 0 0 0 143.752 14.672 Z M 199.292 14.672 A 5.443 5.443 0 0 0 201.02 14.94 A 6.145 6.145 0 0 0 201.475 14.924 A 5.051 5.051 0 0 0 203.67 14.26 Q 204.84 13.58 205.52 12.35 A 5.251 5.251 0 0 0 206.051 10.922 A 6.837 6.837 0 0 0 206.2 9.46 A 6.908 6.908 0 0 0 206.103 8.278 A 5.159 5.159 0 0 0 205.51 6.59 Q 204.82 5.38 203.65 4.72 A 4.97 4.97 0 0 0 202.722 4.315 A 5.548 5.548 0 0 0 201.02 4.06 A 6.265 6.265 0 0 0 200.704 4.068 A 5.234 5.234 0 0 0 198.38 4.72 Q 197.2 5.38 196.52 6.6 A 5.205 5.205 0 0 0 195.97 8.118 A 7.001 7.001 0 0 0 195.84 9.5 A 6.964 6.964 0 0 0 195.893 10.371 A 5.49 5.49 0 0 0 196.51 12.33 Q 197.18 13.56 198.36 14.25 A 4.912 4.912 0 0 0 199.292 14.672 Z M 34.24 14.7 L 32.44 14.7 L 32.44 4.3 L 34.24 4.3 L 34.24 14.7 Z M 193.44 14.7 L 191.64 14.7 L 191.64 4.3 L 193.44 4.3 L 193.44 14.7 Z M 262.66 14.7 L 260.86 14.7 L 260.86 4.3 L 262.66 4.3 L 262.66 14.7 Z M 41.82 13.34 Q 43.4 13.34 44.28 12.27 A 3.76 3.76 0 0 0 45.044 10.652 A 5.421 5.421 0 0 0 45.16 9.5 Q 45.16 8.46 44.72 7.59 Q 44.28 6.72 43.53 6.19 Q 42.78 5.66 41.82 5.66 A 3.85 3.85 0 0 0 40.775 5.794 A 2.807 2.807 0 0 0 39.36 6.7 A 3.576 3.576 0 0 0 38.625 8.175 Q 38.494 8.706 38.481 9.33 A 6.574 6.574 0 0 0 38.48 9.46 Q 38.48 10.5 38.92 11.39 A 3.887 3.887 0 0 0 39.626 12.398 A 3.525 3.525 0 0 0 40.11 12.81 Q 40.86 13.34 41.82 13.34 Z M 145.48 13.34 Q 147.06 13.34 147.94 12.27 A 3.76 3.76 0 0 0 148.704 10.652 A 5.421 5.421 0 0 0 148.82 9.5 Q 148.82 8.46 148.38 7.59 Q 147.94 6.72 147.19 6.19 Q 146.44 5.66 145.48 5.66 A 3.85 3.85 0 0 0 144.435 5.794 A 2.807 2.807 0 0 0 143.02 6.7 A 3.576 3.576 0 0 0 142.285 8.175 Q 142.154 8.706 142.141 9.33 A 6.574 6.574 0 0 0 142.14 9.46 Q 142.14 10.5 142.58 11.39 A 3.887 3.887 0 0 0 143.286 12.398 A 3.525 3.525 0 0 0 143.77 12.81 Q 144.52 13.34 145.48 13.34 Z M 201.02 13.34 Q 202.6 13.34 203.48 12.27 A 3.76 3.76 0 0 0 204.244 10.652 A 5.421 5.421 0 0 0 204.36 9.5 Q 204.36 8.46 203.92 7.59 Q 203.48 6.72 202.73 6.19 Q 201.98 5.66 201.02 5.66 A 3.85 3.85 0 0 0 199.975 5.794 A 2.807 2.807 0 0 0 198.56 6.7 A 3.576 3.576 0 0 0 197.825 8.175 Q 197.694 8.706 197.681 9.33 A 6.574 6.574 0 0 0 197.68 9.46 Q 197.68 10.5 198.12 11.39 A 3.887 3.887 0 0 0 198.826 12.398 A 3.525 3.525 0 0 0 199.31 12.81 Q 200.06 13.34 201.02 13.34 Z M 75.56 12.04 L 75.56 6.46 Q 75.02 6.08 74.37 5.85 Q 73.72 5.62 73 5.62 A 3.185 3.185 0 0 0 72.006 5.771 A 2.805 2.805 0 0 0 71.31 6.11 A 3.26 3.26 0 0 0 70.306 7.195 A 3.992 3.992 0 0 0 70.16 7.47 A 4.133 4.133 0 0 0 69.809 8.605 A 5.536 5.536 0 0 0 69.74 9.5 Q 69.74 10.62 70.16 11.49 A 3.52 3.52 0 0 0 70.781 12.399 A 3.139 3.139 0 0 0 71.32 12.85 Q 72.06 13.34 72.98 13.34 Q 73.74 13.34 74.42 12.97 Q 75.1 12.6 75.56 12.04 Z M 97.76 12.04 L 97.76 6.46 Q 97.22 6.08 96.57 5.85 Q 95.92 5.62 95.2 5.62 A 3.185 3.185 0 0 0 94.206 5.771 A 2.805 2.805 0 0 0 93.51 6.11 A 3.26 3.26 0 0 0 92.506 7.195 A 3.992 3.992 0 0 0 92.36 7.47 A 4.133 4.133 0 0 0 92.009 8.605 A 5.536 5.536 0 0 0 91.94 9.5 Q 91.94 10.62 92.36 11.49 A 3.52 3.52 0 0 0 92.981 12.399 A 3.139 3.139 0 0 0 93.52 12.85 Q 94.26 13.34 95.18 13.34 Q 95.94 13.34 96.62 12.97 Q 97.3 12.6 97.76 12.04 Z M 116.1 12.04 L 116.1 6.46 Q 115.56 6.08 114.91 5.85 Q 114.26 5.62 113.54 5.62 A 3.185 3.185 0 0 0 112.546 5.771 A 2.805 2.805 0 0 0 111.85 6.11 A 3.26 3.26 0 0 0 110.846 7.195 A 3.992 3.992 0 0 0 110.7 7.47 A 4.133 4.133 0 0 0 110.349 8.605 A 5.536 5.536 0 0 0 110.28 9.5 Q 110.28 10.62 110.7 11.49 A 3.52 3.52 0 0 0 111.321 12.399 A 3.139 3.139 0 0 0 111.86 12.85 Q 112.6 13.34 113.52 13.34 Q 114.28 13.34 114.96 12.97 Q 115.64 12.6 116.1 12.04 Z M 178.32 12.04 L 178.32 6.46 Q 177.78 6.08 177.13 5.85 Q 176.48 5.62 175.76 5.62 A 3.185 3.185 0 0 0 174.766 5.771 A 2.805 2.805 0 0 0 174.07 6.11 A 3.26 3.26 0 0 0 173.066 7.195 A 3.992 3.992 0 0 0 172.92 7.47 A 4.133 4.133 0 0 0 172.569 8.605 A 5.536 5.536 0 0 0 172.5 9.5 Q 172.5 10.62 172.92 11.49 A 3.52 3.52 0 0 0 173.541 12.399 A 3.139 3.139 0 0 0 174.08 12.85 Q 174.82 13.34 175.74 13.34 Q 176.5 13.34 177.18 12.97 Q 177.86 12.6 178.32 12.04 Z M 255.96 11.9 L 255.96 6.46 Q 255.527 6.145 254.919 5.888 A 7.249 7.249 0 0 0 254.9 5.88 A 3.25 3.25 0 0 0 254.139 5.67 A 4.427 4.427 0 0 0 253.46 5.62 Q 252.64 5.62 251.92 6.06 A 3.147 3.147 0 0 0 250.96 6.986 A 3.923 3.923 0 0 0 250.75 7.33 Q 250.326 8.111 250.302 9.221 A 6.228 6.228 0 0 0 250.3 9.36 A 4.864 4.864 0 0 0 250.396 10.347 A 3.662 3.662 0 0 0 250.75 11.34 Q 251.2 12.18 251.92 12.64 Q 252.64 13.1 253.48 13.1 A 3.055 3.055 0 0 0 254.396 12.966 A 2.721 2.721 0 0 0 254.92 12.74 A 4.171 4.171 0 0 0 255.516 12.337 A 3.262 3.262 0 0 0 255.96 11.9 Z M 227.56 8.78 L 233.26 8.78 Q 233.26 7.676 232.859 6.942 A 2.484 2.484 0 0 0 232.5 6.44 A 2.498 2.498 0 0 0 231.108 5.685 A 3.679 3.679 0 0 0 230.4 5.62 A 2.716 2.716 0 0 0 229.378 5.807 A 2.505 2.505 0 0 0 228.48 6.43 Q 227.847 7.104 227.631 8.284 A 6.404 6.404 0 0 0 227.56 8.78 Z M 278.82 8.78 L 284.52 8.78 Q 284.52 7.676 284.119 6.942 A 2.484 2.484 0 0 0 283.76 6.44 A 2.498 2.498 0 0 0 282.368 5.685 A 3.679 3.679 0 0 0 281.66 5.62 A 2.716 2.716 0 0 0 280.638 5.807 A 2.505 2.505 0 0 0 279.74 6.43 Q 279.107 7.104 278.891 8.284 A 6.404 6.404 0 0 0 278.82 8.78 Z M 289.7 8.78 L 295.4 8.78 Q 295.4 7.676 294.999 6.942 A 2.484 2.484 0 0 0 294.64 6.44 A 2.498 2.498 0 0 0 293.248 5.685 A 3.679 3.679 0 0 0 292.54 5.62 A 2.716 2.716 0 0 0 291.518 5.807 A 2.505 2.505 0 0 0 290.62 6.43 Q 289.987 7.104 289.771 8.284 A 6.404 6.404 0 0 0 289.7 8.78 Z M 32.467 2.158 A 1.195 1.195 0 0 0 33.34 2.52 A 1.635 1.635 0 0 0 33.639 2.494 A 1.129 1.129 0 0 0 34.26 2.17 A 1.155 1.155 0 0 0 34.545 1.677 A 1.502 1.502 0 0 0 34.6 1.26 Q 34.6 0.74 34.23 0.37 A 1.481 1.481 0 0 0 34.218 0.359 A 1.212 1.212 0 0 0 33.34 0 A 1.653 1.653 0 0 0 33.009 0.032 A 1.132 1.132 0 0 0 32.42 0.34 A 1.118 1.118 0 0 0 32.126 0.867 A 1.597 1.597 0 0 0 32.08 1.26 A 1.198 1.198 0 0 0 32.178 1.744 A 1.329 1.329 0 0 0 32.45 2.14 A 1.493 1.493 0 0 0 32.467 2.158 Z M 191.667 2.158 A 1.195 1.195 0 0 0 192.54 2.52 A 1.635 1.635 0 0 0 192.839 2.494 A 1.129 1.129 0 0 0 193.46 2.17 A 1.155 1.155 0 0 0 193.745 1.677 A 1.502 1.502 0 0 0 193.8 1.26 Q 193.8 0.74 193.43 0.37 A 1.481 1.481 0 0 0 193.418 0.359 A 1.212 1.212 0 0 0 192.54 0 A 1.653 1.653 0 0 0 192.209 0.032 A 1.132 1.132 0 0 0 191.62 0.34 A 1.118 1.118 0 0 0 191.326 0.867 A 1.597 1.597 0 0 0 191.28 1.26 A 1.198 1.198 0 0 0 191.378 1.744 A 1.329 1.329 0 0 0 191.65 2.14 A 1.493 1.493 0 0 0 191.667 2.158 Z M 260.887 2.158 A 1.195 1.195 0 0 0 261.76 2.52 A 1.635 1.635 0 0 0 262.059 2.494 A 1.129 1.129 0 0 0 262.68 2.17 A 1.155 1.155 0 0 0 262.965 1.677 A 1.502 1.502 0 0 0 263.02 1.26 Q 263.02 0.74 262.65 0.37 A 1.481 1.481 0 0 0 262.638 0.359 A 1.212 1.212 0 0 0 261.76 0 A 1.653 1.653 0 0 0 261.429 0.032 A 1.132 1.132 0 0 0 260.84 0.34 A 1.118 1.118 0 0 0 260.546 0.867 A 1.597 1.597 0 0 0 260.5 1.26 A 1.198 1.198 0 0 0 260.598 1.744 A 1.329 1.329 0 0 0 260.87 2.14 A 1.493 1.493 0 0 0 260.887 2.158 Z M 3.507 2.158 A 1.195 1.195 0 0 0 4.38 2.52 A 1.635 1.635 0 0 0 4.679 2.494 A 1.129 1.129 0 0 0 5.3 2.17 A 1.155 1.155 0 0 0 5.585 1.677 A 1.502 1.502 0 0 0 5.64 1.26 Q 5.64 0.74 5.27 0.37 A 1.481 1.481 0 0 0 5.258 0.359 A 1.212 1.212 0 0 0 4.38 0 A 1.653 1.653 0 0 0 4.049 0.032 A 1.132 1.132 0 0 0 3.46 0.34 A 1.118 1.118 0 0 0 3.166 0.867 A 1.597 1.597 0 0 0 3.12 1.26 A 1.198 1.198 0 0 0 3.218 1.744 A 1.329 1.329 0 0 0 3.49 2.14 A 1.493 1.493 0 0 0 3.507 2.158 Z M 63.587 2.158 A 1.195 1.195 0 0 0 64.46 2.52 A 1.635 1.635 0 0 0 64.759 2.494 A 1.129 1.129 0 0 0 65.38 2.17 A 1.155 1.155 0 0 0 65.665 1.677 A 1.502 1.502 0 0 0 65.72 1.26 Q 65.72 0.74 65.35 0.37 A 1.481 1.481 0 0 0 65.338 0.359 A 1.212 1.212 0 0 0 64.46 0 A 1.653 1.653 0 0 0 64.129 0.032 A 1.132 1.132 0 0 0 63.54 0.34 A 1.118 1.118 0 0 0 63.246 0.867 A 1.597 1.597 0 0 0 63.2 1.26 A 1.198 1.198 0 0 0 63.298 1.744 A 1.329 1.329 0 0 0 63.57 2.14 A 1.493 1.493 0 0 0 63.587 2.158 Z"    <g
       clip-path="url(#clip1)">
    </g>
    <g
       transform="matrix(1.34105,0,0,1.34105,548.8425,-974.56922)"
       id="g5612">
      <path
         class="bear__fur"
         d="m 243,894 c 0,61 -36,106 -94,106 -55,0 -92,-45 -92,-106 0,-61 38,-86 91,-86 53,0 95,25 95,86 z"
         id="path5562" />
      <path
         class="bear__muzzle"
         d="m 212,958 c 0,20 -29,39 -63,39 -35,0 -61,-19 -61,-39 0,-20 26,-33 61,-33 35,0 63,13 63,33 z"
         id="path5564" />
      <path
         class="bear__nose"
         d="m 181,932 c 0,7 -19,24 -30,24 -11,0 -32,-17 -32,-24 0,-8 20,-13 31,-13 12,0 31,5 31,13 z"
         id="path5566" />
      <ellipse
         class="bear__outer-ear"
         cx="68.300003"
         cy="827.70001"
         rx="23.799999"
         ry="23.1"
         id="ellipse5568" />
      <path
         class="bear__inner-ear"
         d="m 85,826 a 17,16 0 0 0 -17,-14 17,16 0 0 0 -16,16 17,16 0 0 0 16,16 17,16 0 0 0 1,0 l 3,-4 a 66,66 0 0 1 11,-12 z"
         id="path5570" />
      <ellipse
         class="bear__outer-ear"
         ry="23.1"
         rx="23.799999"
         cy="827.70001"
         cx="-231.2"
         transform="scale(-1,1)"
         id="ellipse5572" />
      <path
         class="bear__inner-ear"
         d="m 215,826 a 17,16 0 0 1 16,-14 17,16 0 0 1 17,16 17,16 0 0 1 -17,16 17,16 0 0 1 -1,0 l -2,-4 a 66,66 0 0 0 -11,-12 z"
         id="path5574" />
      <path
         class="bear__cap-strap"
         d="m 148,815 c -14,0 -26,1 -38,4 v 11 a 199,199 0 0 1 80,1 v -11 c -13,-3 -27,-5 -42,-5 z"
         id="path5576" />
      <path
         class="bear__small-cap-strap"
         d="m 165,816 a 16,8 0 0 1 5,5 16,8 0 0 1 -6,6 l 26,4 v -11 z"
         id="path5578" />
      <path
         class="bear__cap"
         d="m 148,789 c -43,0 -76,20 -83,64 12,-11 28,-19 45,-23 0,0 -2,-12 10,-16 15,-4 19,-4 28,-4 10,0 15,0 30,4 15,4 12,17 12,17 18,5 32,11 45,22 -8,-46 -43,-64 -87,-64 z"
         id="path5580" />
      <circle
         class="bear__eye"
         cx="97.199997"
         cy="894.09998"
         r="11.2"
         id="circle5582" />
      <circle
         class="bear__eye"
         cy="894.09998"
         cx="201.89999"
         r="11.2"
         id="circle5584" />
      <path
         style="fill:none;stroke:#e9afaf;stroke-width:3;stroke-linecap:round;stroke-linejoin:round"
         class="bear__eyebrows"
         d="m 97,864 a 21,21 0 0 1 -7,16 21,21 0 0 1 -16,5 m 130,-21 a 21,21 0 0 0 6,16 21,21 0 0 0 16,5"
         id="path5586" />
      <path
         class="shades-frame"
         d="m 77,855 c -6,0 -13,0 -23,2 l -14,3 2,15 7,2 c 3,5 1,10 2,18 3,28 12,34 26,35 8,1 23,3 33,-1 10,-4 19,-10 25,-18 6,-9 6,-18 10,-26 3,-5 8,-4 10,0 3,8 4,17 10,26 6,8 15,14 24,18 11,4 26,2 34,1 14,-1 23,-7 26,-35 1,-8 -2,-13 2,-18 l 7,-2 2,-15 -15,-3 c -15,-3 -23,-2 -34,-2 h -13 l -25,4 c -8,2 -15,7 -23,6 -8,0 -15,-5 -23,-6 l -25,-4 z"
         id="path5588" />
      <path
         style="fill:#333333"
         class="lens"
         d="m 85,860 c -10,1 -25,1 -28,13 -3,15 -3,32 6,45 7,11 23,9 35,9 19,-1 35,-16 40,-34 2,-8 4,-14 1,-19 -6,-10 -20,-12 -31,-13 z"
         id="path5590" />
      <path
         class="shades-dot"
         d="m 56,864 a 4,2 0 0 1 -4,2 4,2 0 0 1 -4,-2 4,2 0 0 1 4,-1 4,2 0 0 1 4,1"
         id="path5592" />
      <path
         style="fill:#333333"
         class="lens"
         d="m 215,860 c 10,1 24,1 28,13 3,15 3,32 -6,45 -7,11 -23,9 -35,9 -19,-1 -35,-16 -40,-34 -2,-8 -4,-14 -1,-19 6,-10 20,-12 31,-13 z"
         id="path5594" />
      <path
         class="shades-dot"
         d="m 244,864 a 4,2 0 0 0 4,2 4,2 0 0 0 4,-2 4,2 0 0 0 -4,-1 4,2 0 0 0 -4,1"
         id="path5596" />
      <g
         clip-path="url(#spec-left)"
         id="g5602">
        <use
           height="100%"
           width="100%"
           y="0"
           x="0"
           xlink:href="#code-block"
           id="use5598" />
        <use
           height="100%"
           width="100%"
           x="0"
           xlink:href="#code-block"
           y="283.5"
           id="use5600" />
      </g>
      <g
         clip-path="url(#spec-right)"
         id="g5608">
        <use
           height="100%"
           width="100%"
           y="0"
           x="0"
           xlink:href="#code-block"
           transform="translate(104)"
           id="use5604" />
        <use
           height="100%"
           width="100%"
           x="0"
           xlink:href="#code-block"
           transform="translate(104)"
           y="283.5"
           id="use5606" />
      </g>
      <path
         class="lens__shine"
         d="m 101,861 -19,66 h 17 l 18,-65 z m -12,-1 h -4 l -3,1 -18,59 6,5 z"
         id="path5610" />
    </g>
  </g>
  <defs
     id="defs48">
    <pattern
       height="1"
       width="1"
       patternContentUnits="objectBoundingBox"
       id="pattern0">
      <use
         id="use38"
         transform="scale(0.005)"
         xlink:href="#image0" />
    </pattern>
    <clipPath
       id="clip0">
      <rect
         id="rect41"
         fill="white"
         height="500"
         width="1500" />
    </clipPath>
    <clipPath
       id="clip1">
      <rect
         id="rect44"
         transform="translate(1261 188)"
         fill="white"
         height="50"
         width="50" />
    </clipPath>
    <style
       type="text/css"
       id="style5503">
         svg {
  --fur: #662900;
  --ear: #e4b89b;
  --cap-strap--large: #f00;
  --cap-strap--small: #900;
  --cap: #0d0d0d;
  --dots: rgba(242,242,242,0.6);
  --frame: #000;
  --shine: rgba(242,242,242,0.35);
  --lens: #595959;
  --code-one: rgba(128,230,25,0.5);
  --code-two: rgba(229,230,25,0.5);
  --code-three: rgba(230,25,128,0.5);
  --code-four: rgba(25,195,230,0.5);
}
.code-block {
  -webkit-animation: read 1s infinite linear;
          animation: read 1s infinite linear;
}
.code-block rect {
  fill: var(--code-one);
}
.code-block rect:nth-of-type(5) {
  fill: var(--code-four);
}
.code-block rect:nth-of-type(8),
.code-block rect:nth-of-type(9) {
  fill: var(--code-two);
}
.code-block rect:nth-of-type(12) {
  fill: var(--code-three);
}
.bear__fur,
.bear__outer-ear {
  fill: var(--fur);
}
.bear__inner-ear,
.bear__muzzle {
  fill: var(--ear);
}
.bear__cap-strap {
  fill: var(--cap-strap--large);
}
.bear__small-cap-strap {
  fill: var(--cap-strap--small);
}
.bear__cap {
  fill: var(--cap);
}
.lens {
  fill: var(--lens);
}
.lens__shine {
  fill: var(--shine);
}
.shades-dot {
  fill: var(--dots);
}
.bear__nose,
.shades-frame {
  fill: var(--frame);
}
@-webkit-keyframes read {
  to {
    -webkit-transform: translate(0, -283.5px);
            transform: translate(0, -283.5px);
  }
}
@keyframes read {
  to {
    -webkit-transform: translate(0, -283.5px);
            transform: translate(0, -283.5px);
  }
}
   </style>
    <g
       class="code-block"
       id="code-block">
      <rect
         ry="0"
         y="862"
         x="60"
         height="7.5"
         width="74"
         id="rect5505" />
      <rect
         ry="0"
         y="874"
         x="96"
         height="7.5"
         width="28"
         id="rect5507" />
      <rect
         width="54"
         height="7.5"
         x="60"
         y="886"
         ry="0"
         id="rect5509" />
      <rect
         ry="0"
         y="897"
         x="60"
         height="7.5"
         width="74"
         id="rect5511" />
      <rect
         width="56"
         height="7.5"
         x="78"
         y="909"
         ry="0"
         id="rect5513" />
      <rect
         ry="0"
         y="921"
         x="83"
         height="7.5"
         width="51"
         id="rect5515" />
      <rect
         width="51"
         height="7.5"
         x="73"
         y="932"
         ry="0"
         id="rect5517" />
      <rect
         ry="0"
         y="944"
         x="72"
         height="7.5"
         width="62"
         id="rect5519" />
      <rect
         width="74"
         height="7.5"
         x="60"
         y="956"
         ry="0"
         id="rect5521" />
      <rect
         ry="0"
         y="967"
         x="50"
         height="7.5"
         width="84"
         id="rect5523" />
      <rect
         width="64"
         height="7.5"
         x="60"
         y="979"
         ry="0"
         id="rect5525" />
      <rect
         ry="0"
         y="991"
         x="60"
         height="7.5"
         width="74"
         id="rect5527" />
      <rect
         width="41"
         height="7.5"
         x="93"
         y="1003"
         ry="0"
         id="rect5529" />
      <rect
         ry="0"
         y="1014"
         x="66"
         height="7.5"
         width="58"
         id="rect5531" />
      <rect
         width="58"
         height="7.5"
         x="56"
         y="1026"
         ry="0"
         id="rect5533" />
      <rect
         ry="0"
         y="1038"
         x="50"
         height="7.5"
         width="74"
         id="rect5535" />
      <rect
         width="46"
         height="7.5"
         x="88"
         y="1049"
         ry="0"
         id="rect5537" />
      <rect
         ry="0"
         y="1061"
         x="105"
         height="7.5"
         width="19"
         id="rect5539" />
      <rect
         width="38"
         height="7.5"
         x="96"
         y="1073"
         ry="0"
         id="rect5541" />
      <rect
         ry="0"
         y="1084"
         x="73"
         height="7.5"
         width="51"
         id="rect5543" />
      <rect
         ry="0"
         y="1096"
         x="88"
         height="7.5"
         width="26"
         id="rect5545" />
      <rect
         width="56"
         height="7.5"
         x="68"
         y="1108"
         ry="0"
         id="rect5547" />
      <rect
         ry="0"
         y="1120"
         x="100"
         height="7.5"
         width="24"
         id="rect5549" />
      <rect
         width="74"
         height="7.5"
         x="50"
         y="1131"
         ry="0"
         id="rect5551" />
    </g>
    <clipPath
       id="spec-left">
      <path
         d="M85 860c-10 1-25 1-28 13-3 15-3 32 6 45 7 11 23 9 35 9 19-1 35-16 40-34 2-8 4-14 1-19-6-10-20-12-31-13l-23-1z"
         fill="#333"
         id="path5554" />
    </clipPath>
    <clipPath
       id="spec-right">
      <path
         d="M215 860c10 1 24 1 28 13 3 15 3 32-6 45-7 11-23 9-35 9-19-1-35-16-40-34-2-8-4-14-1-19 6-10 20-12 31-13l23-1z"
         fill="#333"
         id="path5557" />
    </clipPath>
  </defs>
</svg>
