<?xml version="1.0" encoding="UTF-8" standalone="no"?>
<svg
   xmlns:dc="http://purl.org/dc/elements/1.1/"
   xmlns:cc="http://creativecommons.org/ns#"
   xmlns:rdf="http://www.w3.org/1999/02/22-rdf-syntax-ns#"
   xmlns:svg="http://www.w3.org/2000/svg"
   xmlns="http://www.w3.org/2000/svg"
   xmlns:xlink="http://www.w3.org/1999/xlink"
   id="svg50"
   version="1.1"
   fill="none"
   viewBox="0 0 1500 500"
   height="500"
   width="1500">
  <metadata
     id="metadata54">
    <rdf:RDF>
      <cc:Work
         rdf:about="">
        <dc:format>image/svg+xml</dc:format>
        <dc:type
           rdf:resource="http://purl.org/dc/dcmitype/StillImage" />
        <dc:title></dc:title>
      </cc:Work>
    </rdf:RDF>
  </metadata>
  <g
     id="g36"
     clip-path="url(#clip0)">
    <rect
       id="rect2"
       fill="#1E1E1E"
       height="500"
       width="1500" />
    <rect
       id="rect4"
       fill="#1E1E1E"
       height="500"
       width="1500" />
    <rect
       id="rect6"
       fill="#DF2525"
       transform="rotate(-37.4908 286 621.501)"
       height="759.948"
       width="1614.27"
       y="621.501"
       x="286" />
    <circle
       fill="white"
       id="circle8"
       r="183"
       cy="225"
       cx="750" />
    <path
       id="path10"
       fill="white"
d="M 66.55 7.01 L 66.55 2.89 A 4.818 4.818 0 0 0 66.542 2.615 Q 66.527 2.37 66.49 2.07 L 67.24 1.97 L 67.35 2.6 Q 67.62 2.4 67.88 2.25 Q 68.14 2.1 68.44 1.99 Q 68.74 1.88 69.05 1.88 A 2.319 2.319 0 0 1 69.356 1.899 Q 69.645 1.937 69.84 2.055 Q 70.106 2.215 70.246 2.582 A 1.693 1.693 0 0 1 70.27 2.65 Q 70.68 2.36 71.125 2.12 A 1.944 1.944 0 0 1 71.901 1.886 A 1.892 1.892 0 0 1 72.05 1.88 Q 72.42 1.88 72.68 1.975 Q 72.94 2.07 73.1 2.29 A 1.133 1.133 0 0 1 73.227 2.518 Q 73.273 2.63 73.306 2.763 A 2.167 2.167 0 0 1 73.33 2.87 A 3.328 3.328 0 0 1 73.373 3.165 Q 73.4 3.433 73.4 3.77 L 73.4 7.01 L 72.6 7.01 L 72.6 3.86 A 15.386 15.386 0 0 0 72.598 3.593 Q 72.595 3.45 72.59 3.325 A 1.75 1.75 0 0 0 72.574 3.146 Q 72.561 3.057 72.539 2.982 A 0.933 0.933 0 0 0 72.52 2.925 A 0.54 0.54 0 0 0 72.432 2.767 A 0.482 0.482 0 0 0 72.325 2.67 Q 72.226 2.604 72.066 2.586 A 1.152 1.152 0 0 0 71.94 2.58 A 1.454 1.454 0 0 0 71.573 2.625 A 1.339 1.339 0 0 0 71.505 2.645 A 2.204 2.204 0 0 0 71.256 2.742 A 2.777 2.777 0 0 0 71.08 2.83 Q 70.86 2.95 70.4 3.32 L 70.4 7.01 L 69.6 7.01 L 69.6 3.86 A 15.386 15.386 0 0 0 69.598 3.593 Q 69.595 3.45 69.59 3.325 A 1.75 1.75 0 0 0 69.574 3.146 Q 69.561 3.057 69.539 2.982 A 0.933 0.933 0 0 0 69.52 2.925 A 0.54 0.54 0 0 0 69.432 2.767 A 0.482 0.482 0 0 0 69.325 2.67 Q 69.226 2.604 69.066 2.586 A 1.152 1.152 0 0 0 68.94 2.58 A 1.365 1.365 0 0 0 68.592 2.627 A 1.726 1.726 0 0 0 68.4 2.69 Q 68.12 2.8 67.87 2.95 A 5.958 5.958 0 0 0 67.558 3.151 A 7.367 7.367 0 0 0 67.35 3.3 L 67.35 7.01 L 66.55 7.01 Z M 113.67 2.1 L 113.67 7.49 Q 113.67 7.86 113.59 8.21 Q 113.51 8.56 113.285 8.835 Q 113.06 9.11 112.655 9.275 A 1.935 1.935 0 0 1 112.315 9.376 Q 112.139 9.412 111.932 9.428 A 4.494 4.494 0 0 1 111.59 9.44 A 9.315 9.315 0 0 1 111.29 9.428 Q 111.054 9.415 110.86 9.39 A 4.606 4.606 0 0 1 110.376 9.302 A 4.123 4.123 0 0 1 110.27 9.275 A 3.983 3.983 0 0 1 109.955 9.177 A 3.204 3.204 0 0 1 109.76 9.1 L 109.97 8.4 Q 110.36 8.57 110.765 8.66 A 4.206 4.206 0 0 0 111.103 8.722 Q 111.271 8.745 111.422 8.749 A 2.373 2.373 0 0 0 111.49 8.75 Q 111.84 8.75 112.1 8.68 A 1.09 1.09 0 0 0 112.362 8.573 A 0.922 0.922 0 0 0 112.535 8.445 A 0.912 0.912 0 0 0 112.726 8.184 A 1.202 1.202 0 0 0 112.795 8.01 Q 112.861 7.8 112.876 7.512 A 3.373 3.373 0 0 0 112.88 7.34 L 112.88 6.61 Q 112.67 6.75 112.445 6.865 Q 112.22 6.98 111.965 7.06 A 1.748 1.748 0 0 1 111.639 7.13 A 1.496 1.496 0 0 1 111.47 7.14 A 2.124 2.124 0 0 1 110.803 7.04 A 1.722 1.722 0 0 1 110 6.485 Q 109.597 5.996 109.495 5.148 A 5.174 5.174 0 0 1 109.46 4.53 A 3.984 3.984 0 0 1 109.493 4.002 Q 109.548 3.591 109.695 3.275 A 2.711 2.711 0 0 1 109.961 2.819 A 2.122 2.122 0 0 1 110.29 2.46 A 2.23 2.23 0 0 1 111.04 2.028 A 2.156 2.156 0 0 1 111.08 2.015 Q 111.51 1.88 111.9 1.88 Q 112.41 1.88 112.835 1.965 Q 113.26 2.05 113.67 2.1 Z M 8.48 7.01 L 8.48 2.98 Q 8.488 2.802 8.447 2.274 A 29.925 29.925 0 0 0 8.43 2.07 L 9.17 1.97 L 9.28 2.61 A 6.069 6.069 0 0 1 9.727 2.338 A 5.341 5.341 0 0 1 9.875 2.26 Q 10.17 2.11 10.48 1.995 A 1.885 1.885 0 0 1 10.822 1.902 A 1.549 1.549 0 0 1 11.08 1.88 Q 11.49 1.88 11.765 1.975 Q 12.04 2.07 12.21 2.29 A 1.127 1.127 0 0 1 12.349 2.527 Q 12.415 2.679 12.455 2.87 A 3.121 3.121 0 0 1 12.501 3.165 Q 12.518 3.324 12.525 3.507 A 6.831 6.831 0 0 1 12.53 3.77 L 12.53 7.01 L 11.73 7.01 L 11.73 3.86 A 15.386 15.386 0 0 0 11.728 3.593 Q 11.725 3.45 11.72 3.325 Q 11.71 3.09 11.635 2.925 Q 11.56 2.76 11.405 2.67 A 0.571 0.571 0 0 0 11.271 2.615 Q 11.145 2.58 10.97 2.58 A 1.331 1.331 0 0 0 10.659 2.618 A 1.768 1.768 0 0 0 10.42 2.695 Q 10.13 2.81 9.85 2.96 A 5.73 5.73 0 0 0 9.442 3.201 A 6.695 6.695 0 0 0 9.28 3.31 L 9.28 7.01 L 8.48 7.01 Z M 91.45 7.01 L 91.45 2.98 Q 91.458 2.802 91.417 2.274 A 29.925 29.925 0 0 0 91.4 2.07 L 92.14 1.97 L 92.25 2.61 A 6.069 6.069 0 0 1 92.697 2.338 A 5.341 5.341 0 0 1 92.845 2.26 Q 93.14 2.11 93.45 1.995 A 1.885 1.885 0 0 1 93.792 1.902 A 1.549 1.549 0 0 1 94.05 1.88 Q 94.46 1.88 94.735 1.975 Q 95.01 2.07 95.18 2.29 A 1.127 1.127 0 0 1 95.319 2.527 Q 95.385 2.679 95.425 2.87 A 3.121 3.121 0 0 1 95.471 3.165 Q 95.488 3.324 95.495 3.507 A 6.831 6.831 0 0 1 95.5 3.77 L 95.5 7.01 L 94.7 7.01 L 94.7 3.86 A 15.386 15.386 0 0 0 94.698 3.593 Q 94.695 3.45 94.69 3.325 Q 94.68 3.09 94.605 2.925 Q 94.53 2.76 94.375 2.67 A 0.571 0.571 0 0 0 94.241 2.615 Q 94.115 2.58 93.94 2.58 A 1.331 1.331 0 0 0 93.629 2.618 A 1.768 1.768 0 0 0 93.39 2.695 Q 93.1 2.81 92.82 2.96 A 5.73 5.73 0 0 0 92.412 3.201 A 6.695 6.695 0 0 0 92.25 3.31 L 92.25 7.01 L 91.45 7.01 Z M 104.27 7.01 L 104.27 2.98 Q 104.278 2.802 104.237 2.274 A 29.925 29.925 0 0 0 104.22 2.07 L 104.96 1.97 L 105.07 2.61 A 6.069 6.069 0 0 1 105.517 2.338 A 5.341 5.341 0 0 1 105.665 2.26 Q 105.96 2.11 106.27 1.995 A 1.885 1.885 0 0 1 106.612 1.902 A 1.549 1.549 0 0 1 106.87 1.88 Q 107.28 1.88 107.555 1.975 Q 107.83 2.07 108 2.29 A 1.127 1.127 0 0 1 108.139 2.527 Q 108.205 2.679 108.245 2.87 A 3.121 3.121 0 0 1 108.291 3.165 Q 108.308 3.324 108.315 3.507 A 6.831 6.831 0 0 1 108.32 3.77 L 108.32 7.01 L 107.52 7.01 L 107.52 3.86 A 15.386 15.386 0 0 0 107.518 3.593 Q 107.515 3.45 107.51 3.325 Q 107.5 3.09 107.425 2.925 Q 107.35 2.76 107.195 2.67 A 0.571 0.571 0 0 0 107.061 2.615 Q 106.935 2.58 106.76 2.58 A 1.331 1.331 0 0 0 106.449 2.618 A 1.768 1.768 0 0 0 106.21 2.695 Q 105.92 2.81 105.64 2.96 A 5.73 5.73 0 0 0 105.232 3.201 A 6.695 6.695 0 0 0 105.07 3.31 L 105.07 7.01 L 104.27 7.01 Z M 117.36 7.01 L 117.36 2.98 Q 117.368 2.802 117.327 2.274 A 29.925 29.925 0 0 0 117.31 2.07 L 118.05 1.97 L 118.16 2.61 A 6.069 6.069 0 0 1 118.607 2.338 A 5.341 5.341 0 0 1 118.755 2.26 Q 119.05 2.11 119.36 1.995 A 1.885 1.885 0 0 1 119.702 1.902 A 1.549 1.549 0 0 1 119.96 1.88 Q 120.37 1.88 120.645 1.975 Q 120.92 2.07 121.09 2.29 A 1.127 1.127 0 0 1 121.229 2.527 Q 121.295 2.679 121.335 2.87 A 3.121 3.121 0 0 1 121.381 3.165 Q 121.398 3.324 121.405 3.507 A 6.831 6.831 0 0 1 121.41 3.77 L 121.41 7.01 L 120.61 7.01 L 120.61 3.86 A 15.386 15.386 0 0 0 120.608 3.593 Q 120.605 3.45 120.6 3.325 Q 120.59 3.09 120.515 2.925 Q 120.44 2.76 120.285 2.67 A 0.571 0.571 0 0 0 120.151 2.615 Q 120.025 2.58 119.85 2.58 A 1.331 1.331 0 0 0 119.539 2.618 A 1.768 1.768 0 0 0 119.3 2.695 Q 119.01 2.81 118.73 2.96 A 5.73 5.73 0 0 0 118.322 3.201 A 6.695 6.695 0 0 0 118.16 3.31 L 118.16 7.01 L 117.36 7.01 Z M 55.01 7.09 L 54.95 6.46 L 54.93 6.46 A 2.538 2.538 0 0 1 54.88 6.498 Q 54.798 6.559 54.67 6.645 A 3.013 3.013 0 0 1 54.487 6.759 A 3.954 3.954 0 0 1 54.28 6.87 Q 54.06 6.98 53.795 7.06 Q 53.53 7.14 53.26 7.14 Q 52.89 7.14 52.63 7.045 Q 52.37 6.95 52.21 6.73 A 1.133 1.133 0 0 1 52.083 6.502 Q 52.037 6.391 52.004 6.257 A 2.167 2.167 0 0 1 51.98 6.15 A 3.328 3.328 0 0 1 51.937 5.855 Q 51.91 5.588 51.91 5.25 L 51.91 1.98 L 52.71 1.98 L 52.71 5.13 A 15.502 15.502 0 0 0 52.712 5.407 Q 52.715 5.538 52.719 5.655 A 9.339 9.339 0 0 0 52.72 5.67 A 1.834 1.834 0 0 0 52.736 5.853 Q 52.75 5.946 52.772 6.025 A 0.985 0.985 0 0 0 52.79 6.08 A 0.573 0.573 0 0 0 52.875 6.239 A 0.502 0.502 0 0 0 52.985 6.345 Q 53.12 6.44 53.37 6.44 A 1.365 1.365 0 0 0 53.718 6.393 A 1.726 1.726 0 0 0 53.91 6.33 A 3.485 3.485 0 0 0 54.264 6.169 A 2.955 2.955 0 0 0 54.42 6.08 Q 54.69 5.92 54.95 5.72 L 54.95 1.98 L 55.75 1.98 L 55.75 6.36 Q 55.76 6.72 55.8 7.01 L 55.01 7.09 Z M 6.28 7.09 L 6.22 6.46 L 6.2 6.46 A 2.538 2.538 0 0 1 6.15 6.498 Q 6.068 6.559 5.94 6.645 A 3.013 3.013 0 0 1 5.757 6.759 A 3.954 3.954 0 0 1 5.55 6.87 Q 5.33 6.98 5.065 7.06 Q 4.8 7.14 4.53 7.14 Q 4.16 7.14 3.9 7.045 Q 3.64 6.95 3.48 6.73 A 1.133 1.133 0 0 1 3.353 6.502 Q 3.307 6.391 3.274 6.257 A 2.167 2.167 0 0 1 3.25 6.15 A 3.328 3.328 0 0 1 3.207 5.855 Q 3.18 5.588 3.18 5.25 L 3.18 1.98 L 3.98 1.98 L 3.98 5.13 A 15.502 15.502 0 0 0 3.982 5.407 Q 3.985 5.538 3.989 5.655 A 9.339 9.339 0 0 0 3.99 5.67 A 1.834 1.834 0 0 0 4.006 5.853 Q 4.02 5.946 4.042 6.025 A 0.985 0.985 0 0 0 4.06 6.08 A 0.573 0.573 0 0 0 4.145 6.239 A 0.502 0.502 0 0 0 4.255 6.345 Q 4.39 6.44 4.64 6.44 A 1.365 1.365 0 0 0 4.988 6.393 A 1.726 1.726 0 0 0 5.18 6.33 A 3.485 3.485 0 0 0 5.534 6.169 A 2.955 2.955 0 0 0 5.69 6.08 Q 5.96 5.92 6.22 5.72 L 6.22 1.98 L 7.02 1.98 L 7.02 6.36 Q 7.03 6.72 7.07 7.01 L 6.28 7.09 Z M 36.02 7.01 L 34.17 1.98 L 35.05 1.98 L 36.27 5.53 L 36.49 6.32 L 36.5 6.32 L 36.73 5.53 L 38.03 1.98 L 38.87 1.98 L 36.92 7.01 L 36.02 7.01 Z M 80.19 0.58 L 80.99 0.48 L 80.99 1.98 L 82.44 1.98 L 82.44 2.63 L 80.99 2.63 L 80.99 5.3 A 12.773 12.773 0 0 0 80.991 5.458 Q 80.994 5.678 81.004 5.839 A 4.394 4.394 0 0 0 81.005 5.85 Q 81.015 5.993 81.039 6.098 A 0.778 0.778 0 0 0 81.07 6.2 Q 81.12 6.33 81.21 6.385 A 0.352 0.352 0 0 0 81.312 6.426 Q 81.355 6.437 81.406 6.439 A 0.666 0.666 0 0 0 81.44 6.44 A 1.394 1.394 0 0 0 81.755 6.393 Q 82.015 6.325 82.32 6.16 L 82.56 6.77 A 2.743 2.743 0 0 1 82.302 6.924 Q 82.168 6.993 82.042 7.036 A 1.447 1.447 0 0 1 81.945 7.065 Q 81.66 7.14 81.38 7.14 A 1.818 1.818 0 0 1 81.049 7.112 Q 80.867 7.078 80.728 7.004 A 0.779 0.779 0 0 1 80.455 6.765 Q 80.225 6.44 80.195 5.742 A 5.093 5.093 0 0 1 80.19 5.52 L 80.19 2.63 L 79.27 2.63 L 79.27 1.98 L 80.19 1.98 L 80.19 0.58 Z M 57.57 0.58 L 58.37 0.48 L 58.37 1.98 L 59.82 1.98 L 59.82 2.63 L 58.37 2.63 L 58.37 5.3 A 12.773 12.773 0 0 0 58.371 5.458 Q 58.374 5.678 58.384 5.839 A 4.394 4.394 0 0 0 58.385 5.85 Q 58.395 5.993 58.419 6.098 A 0.778 0.778 0 0 0 58.45 6.2 Q 58.5 6.33 58.59 6.385 A 0.352 0.352 0 0 0 58.692 6.426 Q 58.735 6.437 58.786 6.439 A 0.666 0.666 0 0 0 58.82 6.44 A 1.394 1.394 0 0 0 59.135 6.393 Q 59.395 6.325 59.7 6.16 L 59.94 6.77 A 2.743 2.743 0 0 1 59.682 6.924 Q 59.548 6.993 59.422 7.036 A 1.447 1.447 0 0 1 59.325 7.065 Q 59.04 7.14 58.76 7.14 A 1.818 1.818 0 0 1 58.429 7.112 Q 58.247 7.078 58.108 7.004 A 0.779 0.779 0 0 1 57.835 6.765 Q 57.605 6.44 57.575 5.742 A 5.093 5.093 0 0 1 57.57 5.52 L 57.57 2.63 L 56.65 2.63 L 56.65 1.98 L 57.57 1.98 L 57.57 0.58 Z M 42.52 7.09 L 42.42 6.54 Q 41.952 6.809 41.548 6.974 A 5.859 5.859 0 0 1 41.545 6.975 A 2.266 2.266 0 0 1 40.772 7.138 A 2.619 2.619 0 0 1 40.67 7.14 A 2.237 2.237 0 0 1 40.233 7.1 Q 39.971 7.048 39.767 6.928 A 1.247 1.247 0 0 1 39.605 6.815 Q 39.286 6.552 39.224 6.012 A 2.419 2.419 0 0 1 39.21 5.74 Q 39.21 5.35 39.41 5.06 A 1.648 1.648 0 0 1 39.865 4.619 A 1.923 1.923 0 0 1 39.935 4.575 A 2.713 2.713 0 0 1 40.422 4.347 A 3.245 3.245 0 0 1 40.67 4.27 Q 41.08 4.16 41.51 4.13 A 4.758 4.758 0 0 1 41.607 4.12 Q 41.741 4.108 41.92 4.098 A 14.874 14.874 0 0 1 41.98 4.095 A 82.25 82.25 0 0 0 42.117 4.088 Q 42.25 4.081 42.348 4.075 A 21.619 21.619 0 0 0 42.43 4.07 A 10.492 10.492 0 0 0 42.426 3.758 Q 42.421 3.612 42.413 3.482 A 6.16 6.16 0 0 0 42.41 3.445 A 1.494 1.494 0 0 0 42.377 3.22 Q 42.349 3.097 42.3 2.996 A 0.904 0.904 0 0 0 42.29 2.975 Q 42.19 2.78 41.995 2.68 A 0.752 0.752 0 0 0 41.841 2.623 Q 41.687 2.583 41.47 2.58 A 2.517 2.517 0 0 0 41.44 2.58 A 4.406 4.406 0 0 0 40.948 2.607 A 4.02 4.02 0 0 0 40.88 2.615 Q 40.628 2.648 40.428 2.685 A 5.819 5.819 0 0 0 40.4 2.69 A 6.496 6.496 0 0 0 40.131 2.749 A 5.147 5.147 0 0 0 39.94 2.8 L 39.78 2.11 A 7.906 7.906 0 0 1 40.108 2.039 A 9.671 9.671 0 0 1 40.32 2 A 5.163 5.163 0 0 1 40.554 1.959 Q 40.714 1.935 40.9 1.915 A 6.253 6.253 0 0 1 41.332 1.885 A 7.659 7.659 0 0 1 41.61 1.88 Q 41.974 1.88 42.238 1.956 A 1.286 1.286 0 0 1 42.435 2.03 Q 42.75 2.18 42.925 2.435 A 1.532 1.532 0 0 1 43.152 2.955 A 1.772 1.772 0 0 1 43.165 3.015 A 3.406 3.406 0 0 1 43.228 3.566 A 3.881 3.881 0 0 1 43.23 3.7 L 43.23 6.1 A 8.488 8.488 0 0 0 43.231 6.244 A 9.897 9.897 0 0 0 43.235 6.395 Q 43.24 6.55 43.255 6.7 A 12.49 12.49 0 0 0 43.285 6.97 A 13.838 13.838 0 0 0 43.29 7.01 L 42.52 7.09 Z M 49.82 7.09 L 49.72 6.54 Q 49.252 6.809 48.848 6.974 A 5.859 5.859 0 0 1 48.845 6.975 A 2.266 2.266 0 0 1 48.072 7.138 A 2.619 2.619 0 0 1 47.97 7.14 A 2.237 2.237 0 0 1 47.533 7.1 Q 47.271 7.048 47.067 6.928 A 1.247 1.247 0 0 1 46.905 6.815 Q 46.586 6.552 46.524 6.012 A 2.419 2.419 0 0 1 46.51 5.74 Q 46.51 5.35 46.71 5.06 A 1.648 1.648 0 0 1 47.165 4.619 A 1.923 1.923 0 0 1 47.235 4.575 A 2.713 2.713 0 0 1 47.722 4.347 A 3.245 3.245 0 0 1 47.97 4.27 Q 48.38 4.16 48.81 4.13 A 4.758 4.758 0 0 1 48.907 4.12 Q 49.041 4.108 49.22 4.098 A 14.874 14.874 0 0 1 49.28 4.095 A 82.25 82.25 0 0 0 49.417 4.088 Q 49.55 4.081 49.648 4.075 A 21.619 21.619 0 0 0 49.73 4.07 A 10.492 10.492 0 0 0 49.726 3.758 Q 49.721 3.612 49.713 3.482 A 6.16 6.16 0 0 0 49.71 3.445 A 1.494 1.494 0 0 0 49.677 3.22 Q 49.649 3.097 49.6 2.996 A 0.904 0.904 0 0 0 49.59 2.975 Q 49.49 2.78 49.295 2.68 A 0.752 0.752 0 0 0 49.141 2.623 Q 48.987 2.583 48.77 2.58 A 2.517 2.517 0 0 0 48.74 2.58 A 4.406 4.406 0 0 0 48.248 2.607 A 4.02 4.02 0 0 0 48.18 2.615 Q 47.928 2.648 47.728 2.685 A 5.819 5.819 0 0 0 47.7 2.69 A 6.496 6.496 0 0 0 47.431 2.749 A 5.147 5.147 0 0 0 47.24 2.8 L 47.08 2.11 A 7.906 7.906 0 0 1 47.408 2.039 A 9.671 9.671 0 0 1 47.62 2 A 5.163 5.163 0 0 1 47.854 1.959 Q 48.014 1.935 48.2 1.915 A 6.253 6.253 0 0 1 48.632 1.885 A 7.659 7.659 0 0 1 48.91 1.88 Q 49.274 1.88 49.538 1.956 A 1.286 1.286 0 0 1 49.735 2.03 Q 50.05 2.18 50.225 2.435 A 1.532 1.532 0 0 1 50.452 2.955 A 1.772 1.772 0 0 1 50.465 3.015 A 3.406 3.406 0 0 1 50.528 3.566 A 3.881 3.881 0 0 1 50.53 3.7 L 50.53 6.1 A 8.488 8.488 0 0 0 50.531 6.244 A 9.897 9.897 0 0 0 50.535 6.395 Q 50.54 6.55 50.555 6.7 A 12.49 12.49 0 0 0 50.585 6.97 A 13.838 13.838 0 0 0 50.59 7.01 L 49.82 7.09 Z M 32.71 7.09 L 32.61 6.54 Q 32.142 6.809 31.738 6.974 A 5.859 5.859 0 0 1 31.735 6.975 A 2.266 2.266 0 0 1 30.962 7.138 A 2.619 2.619 0 0 1 30.86 7.14 A 2.237 2.237 0 0 1 30.423 7.1 Q 30.161 7.048 29.957 6.928 A 1.247 1.247 0 0 1 29.795 6.815 Q 29.476 6.552 29.414 6.012 A 2.419 2.419 0 0 1 29.4 5.74 Q 29.4 5.35 29.6 5.06 A 1.648 1.648 0 0 1 30.055 4.619 A 1.923 1.923 0 0 1 30.125 4.575 A 2.713 2.713 0 0 1 30.612 4.347 A 3.245 3.245 0 0 1 30.86 4.27 Q 31.27 4.16 31.7 4.13 A 4.758 4.758 0 0 1 31.797 4.12 Q 31.931 4.108 32.11 4.098 A 14.874 14.874 0 0 1 32.17 4.095 A 82.25 82.25 0 0 0 32.307 4.088 Q 32.44 4.081 32.538 4.075 A 21.619 21.619 0 0 0 32.62 4.07 A 10.492 10.492 0 0 0 32.616 3.758 Q 32.611 3.612 32.603 3.482 A 6.16 6.16 0 0 0 32.6 3.445 A 1.494 1.494 0 0 0 32.567 3.22 Q 32.539 3.097 32.49 2.996 A 0.904 0.904 0 0 0 32.48 2.975 Q 32.38 2.78 32.185 2.68 A 0.752 0.752 0 0 0 32.031 2.623 Q 31.877 2.583 31.66 2.58 A 2.517 2.517 0 0 0 31.63 2.58 A 4.406 4.406 0 0 0 31.138 2.607 A 4.02 4.02 0 0 0 31.07 2.615 Q 30.818 2.648 30.618 2.685 A 5.819 5.819 0 0 0 30.59 2.69 A 6.496 6.496 0 0 0 30.321 2.749 A 5.147 5.147 0 0 0 30.13 2.8 L 29.97 2.11 A 7.906 7.906 0 0 1 30.298 2.039 A 9.671 9.671 0 0 1 30.51 2 A 5.163 5.163 0 0 1 30.744 1.959 Q 30.904 1.935 31.09 1.915 A 6.253 6.253 0 0 1 31.522 1.885 A 7.659 7.659 0 0 1 31.8 1.88 Q 32.164 1.88 32.428 1.956 A 1.286 1.286 0 0 1 32.625 2.03 Q 32.94 2.18 33.115 2.435 A 1.532 1.532 0 0 1 33.342 2.955 A 1.772 1.772 0 0 1 33.355 3.015 A 3.406 3.406 0 0 1 33.418 3.566 A 3.881 3.881 0 0 1 33.42 3.7 L 33.42 6.1 A 8.488 8.488 0 0 0 33.421 6.244 A 9.897 9.897 0 0 0 33.425 6.395 Q 33.43 6.55 33.445 6.7 A 12.49 12.49 0 0 0 33.475 6.97 A 13.838 13.838 0 0 0 33.48 7.01 L 32.71 7.09 Z M 77.7 7.09 L 77.6 6.54 Q 77.132 6.809 76.728 6.974 A 5.859 5.859 0 0 1 76.725 6.975 A 2.266 2.266 0 0 1 75.952 7.138 A 2.619 2.619 0 0 1 75.85 7.14 A 2.237 2.237 0 0 1 75.413 7.1 Q 75.151 7.048 74.947 6.928 A 1.247 1.247 0 0 1 74.785 6.815 Q 74.466 6.552 74.404 6.012 A 2.419 2.419 0 0 1 74.39 5.74 Q 74.39 5.35 74.59 5.06 A 1.648 1.648 0 0 1 75.045 4.619 A 1.923 1.923 0 0 1 75.115 4.575 A 2.713 2.713 0 0 1 75.602 4.347 A 3.245 3.245 0 0 1 75.85 4.27 Q 76.26 4.16 76.69 4.13 A 4.758 4.758 0 0 1 76.787 4.12 Q 76.921 4.108 77.1 4.098 A 14.874 14.874 0 0 1 77.16 4.095 A 82.25 82.25 0 0 0 77.297 4.088 Q 77.43 4.081 77.528 4.075 A 21.619 21.619 0 0 0 77.61 4.07 A 10.492 10.492 0 0 0 77.606 3.758 Q 77.601 3.612 77.593 3.482 A 6.16 6.16 0 0 0 77.59 3.445 A 1.494 1.494 0 0 0 77.557 3.22 Q 77.529 3.097 77.48 2.996 A 0.904 0.904 0 0 0 77.47 2.975 Q 77.37 2.78 77.175 2.68 A 0.752 0.752 0 0 0 77.021 2.623 Q 76.867 2.583 76.65 2.58 A 2.517 2.517 0 0 0 76.62 2.58 A 4.406 4.406 0 0 0 76.128 2.607 A 4.02 4.02 0 0 0 76.06 2.615 Q 75.808 2.648 75.608 2.685 A 5.819 5.819 0 0 0 75.58 2.69 A 6.496 6.496 0 0 0 75.311 2.749 A 5.147 5.147 0 0 0 75.12 2.8 L 74.96 2.11 A 7.906 7.906 0 0 1 75.288 2.039 A 9.671 9.671 0 0 1 75.5 2 A 5.163 5.163 0 0 1 75.734 1.959 Q 75.894 1.935 76.08 1.915 A 6.253 6.253 0 0 1 76.512 1.885 A 7.659 7.659 0 0 1 76.79 1.88 Q 77.154 1.88 77.418 1.956 A 1.286 1.286 0 0 1 77.615 2.03 Q 77.93 2.18 78.105 2.435 A 1.532 1.532 0 0 1 78.332 2.955 A 1.772 1.772 0 0 1 78.345 3.015 A 3.406 3.406 0 0 1 78.408 3.566 A 3.881 3.881 0 0 1 78.41 3.7 L 78.41 6.1 A 8.488 8.488 0 0 0 78.411 6.244 A 9.897 9.897 0 0 0 78.415 6.395 Q 78.42 6.55 78.435 6.7 A 12.49 12.49 0 0 0 78.465 6.97 A 13.838 13.838 0 0 0 78.47 7.01 L 77.7 7.09 Z M 131.45 6.22 L 131.6 6.89 Q 131.37 6.96 131.125 7.01 Q 130.88 7.06 130.585 7.1 Q 130.29 7.14 129.97 7.14 A 3.151 3.151 0 0 1 129.344 7.08 A 2.729 2.729 0 0 1 129.04 7 Q 128.61 6.86 128.29 6.55 A 1.946 1.946 0 0 1 127.945 6.094 A 2.565 2.565 0 0 1 127.785 5.745 A 2.683 2.683 0 0 1 127.659 5.269 Q 127.618 5.039 127.606 4.776 A 5.159 5.159 0 0 1 127.6 4.53 A 3.984 3.984 0 0 1 127.639 3.957 A 2.886 2.886 0 0 1 127.78 3.385 A 2.631 2.631 0 0 1 128.017 2.891 A 2.144 2.144 0 0 1 128.275 2.555 Q 128.59 2.22 129.015 2.05 A 2.403 2.403 0 0 1 129.755 1.886 A 2.824 2.824 0 0 1 129.94 1.88 A 2.13 2.13 0 0 1 130.357 1.919 A 1.587 1.587 0 0 1 130.79 2.07 Q 131.15 2.26 131.385 2.585 A 2.165 2.165 0 0 1 131.661 3.109 A 2.624 2.624 0 0 1 131.735 3.345 A 3.532 3.532 0 0 1 131.849 4.17 A 3.955 3.955 0 0 1 131.85 4.26 L 131.7 4.7 L 128.47 4.7 Q 128.47 5.01 128.55 5.32 Q 128.63 5.63 128.825 5.88 A 1.39 1.39 0 0 0 129.203 6.213 A 1.682 1.682 0 0 0 129.335 6.285 Q 129.608 6.419 129.998 6.437 A 2.669 2.669 0 0 0 130.12 6.44 A 4.532 4.532 0 0 0 130.407 6.431 A 3.497 3.497 0 0 0 130.67 6.405 Q 130.871 6.377 131.03 6.342 A 3.171 3.171 0 0 0 131.105 6.325 A 3.164 3.164 0 0 0 131.348 6.256 A 2.69 2.69 0 0 0 131.45 6.22 Z M 102.77 6.22 L 102.92 6.89 Q 102.69 6.96 102.445 7.01 Q 102.2 7.06 101.905 7.1 Q 101.61 7.14 101.29 7.14 A 3.151 3.151 0 0 1 100.664 7.08 A 2.729 2.729 0 0 1 100.36 7 Q 99.93 6.86 99.61 6.55 A 1.946 1.946 0 0 1 99.265 6.094 A 2.565 2.565 0 0 1 99.105 5.745 A 2.683 2.683 0 0 1 98.979 5.269 Q 98.938 5.039 98.926 4.776 A 5.159 5.159 0 0 1 98.92 4.53 A 3.984 3.984 0 0 1 98.959 3.957 A 2.886 2.886 0 0 1 99.1 3.385 A 2.631 2.631 0 0 1 99.337 2.891 A 2.144 2.144 0 0 1 99.595 2.555 Q 99.91 2.22 100.335 2.05 A 2.403 2.403 0 0 1 101.075 1.886 A 2.824 2.824 0 0 1 101.26 1.88 A 2.13 2.13 0 0 1 101.677 1.919 A 1.587 1.587 0 0 1 102.11 2.07 Q 102.47 2.26 102.705 2.585 A 2.165 2.165 0 0 1 102.981 3.109 A 2.624 2.624 0 0 1 103.055 3.345 A 3.532 3.532 0 0 1 103.169 4.17 A 3.955 3.955 0 0 1 103.17 4.26 L 103.02 4.7 L 99.79 4.7 Q 99.79 5.01 99.87 5.32 Q 99.95 5.63 100.145 5.88 A 1.39 1.39 0 0 0 100.523 6.213 A 1.682 1.682 0 0 0 100.655 6.285 Q 100.928 6.419 101.318 6.437 A 2.669 2.669 0 0 0 101.44 6.44 A 4.532 4.532 0 0 0 101.727 6.431 A 3.497 3.497 0 0 0 101.99 6.405 Q 102.191 6.377 102.35 6.342 A 3.171 3.171 0 0 0 102.425 6.325 A 3.164 3.164 0 0 0 102.668 6.256 A 2.69 2.69 0 0 0 102.77 6.22 Z M 126.39 6.22 L 126.54 6.89 Q 126.31 6.96 126.065 7.01 Q 125.82 7.06 125.525 7.1 Q 125.23 7.14 124.91 7.14 A 3.151 3.151 0 0 1 124.284 7.08 A 2.729 2.729 0 0 1 123.98 7 Q 123.55 6.86 123.23 6.55 A 1.946 1.946 0 0 1 122.885 6.094 A 2.565 2.565 0 0 1 122.725 5.745 A 2.683 2.683 0 0 1 122.599 5.269 Q 122.558 5.039 122.546 4.776 A 5.159 5.159 0 0 1 122.54 4.53 A 3.984 3.984 0 0 1 122.579 3.957 A 2.886 2.886 0 0 1 122.72 3.385 A 2.631 2.631 0 0 1 122.957 2.891 A 2.144 2.144 0 0 1 123.215 2.555 Q 123.53 2.22 123.955 2.05 A 2.403 2.403 0 0 1 124.695 1.886 A 2.824 2.824 0 0 1 124.88 1.88 A 2.13 2.13 0 0 1 125.297 1.919 A 1.587 1.587 0 0 1 125.73 2.07 Q 126.09 2.26 126.325 2.585 A 2.165 2.165 0 0 1 126.601 3.109 A 2.624 2.624 0 0 1 126.675 3.345 A 3.532 3.532 0 0 1 126.789 4.17 A 3.955 3.955 0 0 1 126.79 4.26 L 126.64 4.7 L 123.41 4.7 Q 123.41 5.01 123.49 5.32 Q 123.57 5.63 123.765 5.88 A 1.39 1.39 0 0 0 124.143 6.213 A 1.682 1.682 0 0 0 124.275 6.285 Q 124.548 6.419 124.938 6.437 A 2.669 2.669 0 0 0 125.06 6.44 A 4.532 4.532 0 0 0 125.347 6.431 A 3.497 3.497 0 0 0 125.61 6.405 Q 125.811 6.377 125.97 6.342 A 3.171 3.171 0 0 0 126.045 6.325 A 3.164 3.164 0 0 0 126.288 6.256 A 2.69 2.69 0 0 0 126.39 6.22 Z M 0.97 1.99 L 1.77 1.87 L 1.77 6.92 Q 1.77 7.644 1.556 8.165 A 2.157 2.157 0 0 1 1.44 8.405 A 2.389 2.389 0 0 1 0.883 9.064 A 3.243 3.243 0 0 1 0.41 9.39 L 0 8.68 Q 0.3 8.5 0.49 8.285 A 1.753 1.753 0 0 0 0.735 7.931 A 1.595 1.595 0 0 0 0.785 7.825 Q 0.89 7.58 0.93 7.325 Q 0.97 7.07 0.97 6.81 L 0.97 1.99 Z M 27.58 1.99 L 28.38 1.87 L 28.38 6.92 Q 28.38 7.644 28.166 8.165 A 2.157 2.157 0 0 1 28.05 8.405 A 2.389 2.389 0 0 1 27.493 9.064 A 3.243 3.243 0 0 1 27.02 9.39 L 26.61 8.68 Q 26.91 8.5 27.1 8.285 A 1.753 1.753 0 0 0 27.345 7.931 A 1.595 1.595 0 0 0 27.395 7.825 Q 27.5 7.58 27.54 7.325 Q 27.58 7.07 27.58 6.81 L 27.58 1.99 Z M 15.934 3.976 A 3.985 3.985 0 0 0 15.9 4.51 Q 15.9 4.95 15.975 5.303 A 2.336 2.336 0 0 0 16.135 5.8 A 2.707 2.707 0 0 0 16.355 6.192 A 1.985 1.985 0 0 0 16.725 6.605 Q 17.08 6.9 17.5 7.02 Q 17.92 7.14 18.3 7.14 A 2.495 2.495 0 0 0 18.685 7.109 A 3.332 3.332 0 0 0 19.1 7.015 Q 19.53 6.89 19.9 6.585 A 2.063 2.063 0 0 0 20.258 6.2 A 2.738 2.738 0 0 0 20.515 5.76 Q 20.668 5.435 20.726 5.005 A 4.201 4.201 0 0 0 20.76 4.45 Q 20.76 3.69 20.52 3.195 Q 20.28 2.7 19.92 2.405 A 2.387 2.387 0 0 0 19.897 2.387 A 2.084 2.084 0 0 0 19.135 1.995 A 3.557 3.557 0 0 0 18.751 1.912 A 2.622 2.622 0 0 0 18.35 1.88 A 2.52 2.52 0 0 0 18.003 1.905 A 3.174 3.174 0 0 0 17.545 2.005 A 2.095 2.095 0 0 0 17.304 2.092 A 2.317 2.317 0 0 0 16.75 2.435 Q 16.38 2.74 16.14 3.245 A 2.066 2.066 0 0 0 16.052 3.463 Q 15.972 3.697 15.934 3.976 Z M 60.554 3.976 A 3.985 3.985 0 0 0 60.52 4.51 Q 60.52 4.95 60.595 5.303 A 2.336 2.336 0 0 0 60.755 5.8 A 2.707 2.707 0 0 0 60.975 6.192 A 1.985 1.985 0 0 0 61.345 6.605 Q 61.7 6.9 62.12 7.02 Q 62.54 7.14 62.92 7.14 A 2.495 2.495 0 0 0 63.305 7.109 A 3.332 3.332 0 0 0 63.72 7.015 Q 64.15 6.89 64.52 6.585 A 2.063 2.063 0 0 0 64.878 6.2 A 2.738 2.738 0 0 0 65.135 5.76 Q 65.288 5.435 65.346 5.005 A 4.201 4.201 0 0 0 65.38 4.45 Q 65.38 3.69 65.14 3.195 Q 64.9 2.7 64.54 2.405 A 2.387 2.387 0 0 0 64.517 2.387 A 2.084 2.084 0 0 0 63.755 1.995 A 3.557 3.557 0 0 0 63.371 1.912 A 2.622 2.622 0 0 0 62.97 1.88 A 2.52 2.52 0 0 0 62.623 1.905 A 3.174 3.174 0 0 0 62.165 2.005 A 2.095 2.095 0 0 0 61.924 2.092 A 2.317 2.317 0 0 0 61.37 2.435 Q 61 2.74 60.76 3.245 A 2.066 2.066 0 0 0 60.672 3.463 Q 60.592 3.697 60.554 3.976 Z M 85.454 3.976 A 3.985 3.985 0 0 0 85.42 4.51 Q 85.42 4.95 85.495 5.303 A 2.336 2.336 0 0 0 85.655 5.8 A 2.707 2.707 0 0 0 85.875 6.192 A 1.985 1.985 0 0 0 86.245 6.605 Q 86.6 6.9 87.02 7.02 Q 87.44 7.14 87.82 7.14 A 2.495 2.495 0 0 0 88.205 7.109 A 3.332 3.332 0 0 0 88.62 7.015 Q 89.05 6.89 89.42 6.585 A 2.063 2.063 0 0 0 89.778 6.2 A 2.738 2.738 0 0 0 90.035 5.76 Q 90.188 5.435 90.246 5.005 A 4.201 4.201 0 0 0 90.28 4.45 Q 90.28 3.69 90.04 3.195 Q 89.8 2.7 89.44 2.405 A 2.387 2.387 0 0 0 89.417 2.387 A 2.084 2.084 0 0 0 88.655 1.995 A 3.557 3.557 0 0 0 88.271 1.912 A 2.622 2.622 0 0 0 87.87 1.88 A 2.52 2.52 0 0 0 87.523 1.905 A 3.174 3.174 0 0 0 87.065 2.005 A 2.095 2.095 0 0 0 86.824 2.092 A 2.317 2.317 0 0 0 86.27 2.435 Q 85.9 2.74 85.66 3.245 A 2.066 2.066 0 0 0 85.572 3.463 Q 85.492 3.697 85.454 3.976 Z M 21.93 7.01 L 21.93 2.79 Q 21.93 2.56 21.88 2.07 L 22.62 1.97 L 22.7 2.7 L 22.71 2.7 Q 22.89 2.47 23.06 2.3 A 2.465 2.465 0 0 1 23.346 2.053 A 2.219 2.219 0 0 1 23.415 2.005 A 0.858 0.858 0 0 1 23.549 1.93 Q 23.63 1.894 23.709 1.884 A 0.477 0.477 0 0 1 23.77 1.88 A 1.539 1.539 0 0 1 23.821 1.879 Q 24.034 1.877 24.378 1.925 A 7.744 7.744 0 0 1 24.41 1.93 L 24.23 2.7 Q 23.918 2.643 23.785 2.649 A 0.449 0.449 0 0 0 23.77 2.65 A 0.42 0.42 0 0 0 23.612 2.683 Q 23.514 2.723 23.41 2.81 A 2.333 2.333 0 0 0 23.153 3.061 A 2.062 2.062 0 0 0 23.08 3.15 A 4.029 4.029 0 0 0 22.862 3.444 A 4.986 4.986 0 0 0 22.73 3.65 L 22.73 7.01 L 21.93 7.01 Z M 132.95 7.01 L 132.95 2.79 Q 132.95 2.56 132.9 2.07 L 133.64 1.97 L 133.72 2.7 L 133.73 2.7 Q 133.91 2.47 134.08 2.3 A 2.465 2.465 0 0 1 134.366 2.053 A 2.219 2.219 0 0 1 134.435 2.005 A 0.858 0.858 0 0 1 134.569 1.93 Q 134.65 1.894 134.729 1.884 A 0.477 0.477 0 0 1 134.79 1.88 A 1.539 1.539 0 0 1 134.841 1.879 Q 135.054 1.877 135.398 1.925 A 7.744 7.744 0 0 1 135.43 1.93 L 135.25 2.7 Q 134.938 2.643 134.805 2.649 A 0.449 0.449 0 0 0 134.79 2.65 A 0.42 0.42 0 0 0 134.632 2.683 Q 134.534 2.723 134.43 2.81 A 2.333 2.333 0 0 0 134.173 3.061 A 2.062 2.062 0 0 0 134.1 3.15 A 4.029 4.029 0 0 0 133.882 3.444 A 4.986 4.986 0 0 0 133.75 3.65 L 133.75 7.01 L 132.95 7.01 Z M 13.94 7.01 L 13.94 1.97 L 14.74 1.88 L 14.74 7.01 L 13.94 7.01 Z M 83.46 7.01 L 83.46 1.97 L 84.26 1.88 L 84.26 7.01 L 83.46 7.01 Z M 115.11 7.01 L 115.11 1.97 L 115.91 1.88 L 115.91 7.01 L 115.11 7.01 Z M 16.924 5.548 A 1.424 1.424 0 0 0 17.185 5.965 A 1.437 1.437 0 0 0 18.072 6.42 A 2.044 2.044 0 0 0 18.36 6.44 A 1.821 1.821 0 0 0 18.843 6.379 A 1.313 1.313 0 0 0 19.5 5.97 Q 19.91 5.5 19.91 4.56 Q 19.91 3.56 19.475 3.07 A 1.431 1.431 0 0 0 18.566 2.598 A 2.045 2.045 0 0 0 18.29 2.58 A 1.848 1.848 0 0 0 17.821 2.636 A 1.259 1.259 0 0 0 17.145 3.065 A 1.531 1.531 0 0 0 16.889 3.539 Q 16.813 3.761 16.779 4.033 A 3.885 3.885 0 0 0 16.75 4.52 Q 16.75 5.133 16.924 5.548 Z M 61.544 5.548 A 1.424 1.424 0 0 0 61.805 5.965 A 1.437 1.437 0 0 0 62.692 6.42 A 2.044 2.044 0 0 0 62.98 6.44 A 1.821 1.821 0 0 0 63.463 6.379 A 1.313 1.313 0 0 0 64.12 5.97 Q 64.53 5.5 64.53 4.56 Q 64.53 3.56 64.095 3.07 A 1.431 1.431 0 0 0 63.186 2.598 A 2.045 2.045 0 0 0 62.91 2.58 A 1.848 1.848 0 0 0 62.441 2.636 A 1.259 1.259 0 0 0 61.765 3.065 A 1.531 1.531 0 0 0 61.509 3.539 Q 61.433 3.761 61.399 4.033 A 3.885 3.885 0 0 0 61.37 4.52 Q 61.37 5.133 61.544 5.548 Z M 86.444 5.548 A 1.424 1.424 0 0 0 86.705 5.965 A 1.437 1.437 0 0 0 87.592 6.42 A 2.044 2.044 0 0 0 87.88 6.44 A 1.821 1.821 0 0 0 88.363 6.379 A 1.313 1.313 0 0 0 89.02 5.97 Q 89.43 5.5 89.43 4.56 Q 89.43 3.56 88.995 3.07 A 1.431 1.431 0 0 0 88.086 2.598 A 2.045 2.045 0 0 0 87.81 2.58 A 1.848 1.848 0 0 0 87.341 2.636 A 1.259 1.259 0 0 0 86.665 3.065 A 1.531 1.531 0 0 0 86.409 3.539 Q 86.333 3.761 86.299 4.033 A 3.885 3.885 0 0 0 86.27 4.52 Q 86.27 5.133 86.444 5.548 Z M 112.88 5.91 L 112.88 2.72 L 112.6 2.65 Q 112.48 2.633 112.33 2.612 A 117.626 117.626 0 0 0 112.28 2.605 A 2.665 2.665 0 0 0 111.999 2.582 A 3.083 3.083 0 0 0 111.9 2.58 Q 111.503 2.58 111.213 2.714 A 1.209 1.209 0 0 0 111.18 2.73 Q 110.88 2.88 110.685 3.14 A 1.651 1.651 0 0 0 110.448 3.591 A 1.988 1.988 0 0 0 110.4 3.75 A 2.907 2.907 0 0 0 110.312 4.369 A 3.301 3.301 0 0 0 110.31 4.49 Q 110.31 4.84 110.385 5.19 A 2.307 2.307 0 0 0 110.52 5.619 A 1.985 1.985 0 0 0 110.62 5.82 A 1.561 1.561 0 0 0 110.822 6.1 A 1.306 1.306 0 0 0 111.01 6.27 A 0.866 0.866 0 0 0 111.441 6.434 A 1.115 1.115 0 0 0 111.56 6.44 A 1.316 1.316 0 0 0 111.903 6.393 A 1.561 1.561 0 0 0 112.01 6.36 Q 112.24 6.28 112.455 6.17 A 3.34 3.34 0 0 0 112.827 5.947 A 3.705 3.705 0 0 0 112.88 5.91 Z M 32.62 5.84 L 32.62 4.7 Q 32.42 4.71 32.24 4.72 Q 32.06 4.73 31.885 4.745 A 6.671 6.671 0 0 0 31.721 4.761 Q 31.644 4.77 31.574 4.779 A 4.165 4.165 0 0 0 31.57 4.78 A 4.509 4.509 0 0 0 31.217 4.837 Q 30.77 4.93 30.55 5.095 A 0.731 0.731 0 0 0 30.256 5.626 A 1.069 1.069 0 0 0 30.25 5.74 Q 30.25 6.027 30.394 6.196 A 0.543 0.543 0 0 0 30.465 6.265 A 0.751 0.751 0 0 0 30.768 6.411 Q 30.878 6.438 31.008 6.44 A 1.374 1.374 0 0 0 31.03 6.44 A 2.392 2.392 0 0 0 31.484 6.399 A 1.875 1.875 0 0 0 31.885 6.275 Q 32.26 6.11 32.62 5.84 Z M 42.43 5.84 L 42.43 4.7 Q 42.23 4.71 42.05 4.72 Q 41.87 4.73 41.695 4.745 A 6.671 6.671 0 0 0 41.531 4.761 Q 41.454 4.77 41.384 4.779 A 4.165 4.165 0 0 0 41.38 4.78 A 4.509 4.509 0 0 0 41.027 4.837 Q 40.58 4.93 40.36 5.095 A 0.731 0.731 0 0 0 40.066 5.626 A 1.069 1.069 0 0 0 40.06 5.74 Q 40.06 6.027 40.204 6.196 A 0.543 0.543 0 0 0 40.275 6.265 A 0.751 0.751 0 0 0 40.578 6.411 Q 40.688 6.438 40.818 6.44 A 1.374 1.374 0 0 0 40.84 6.44 A 2.392 2.392 0 0 0 41.294 6.399 A 1.875 1.875 0 0 0 41.695 6.275 Q 42.07 6.11 42.43 5.84 Z M 49.73 5.84 L 49.73 4.7 Q 49.53 4.71 49.35 4.72 Q 49.17 4.73 48.995 4.745 A 6.671 6.671 0 0 0 48.831 4.761 Q 48.754 4.77 48.684 4.779 A 4.165 4.165 0 0 0 48.68 4.78 A 4.509 4.509 0 0 0 48.327 4.837 Q 47.88 4.93 47.66 5.095 A 0.731 0.731 0 0 0 47.366 5.626 A 1.069 1.069 0 0 0 47.36 5.74 Q 47.36 6.027 47.504 6.196 A 0.543 0.543 0 0 0 47.575 6.265 A 0.751 0.751 0 0 0 47.878 6.411 Q 47.988 6.438 48.118 6.44 A 1.374 1.374 0 0 0 48.14 6.44 A 2.392 2.392 0 0 0 48.594 6.399 A 1.875 1.875 0 0 0 48.995 6.275 Q 49.37 6.11 49.73 5.84 Z M 77.61 5.84 L 77.61 4.7 Q 77.41 4.71 77.23 4.72 Q 77.05 4.73 76.875 4.745 A 6.671 6.671 0 0 0 76.711 4.761 Q 76.634 4.77 76.564 4.779 A 4.165 4.165 0 0 0 76.56 4.78 A 4.509 4.509 0 0 0 76.207 4.837 Q 75.76 4.93 75.54 5.095 A 0.731 0.731 0 0 0 75.246 5.626 A 1.069 1.069 0 0 0 75.24 5.74 Q 75.24 6.027 75.384 6.196 A 0.543 0.543 0 0 0 75.455 6.265 A 0.751 0.751 0 0 0 75.758 6.411 Q 75.868 6.438 75.998 6.44 A 1.374 1.374 0 0 0 76.02 6.44 A 2.392 2.392 0 0 0 76.474 6.399 A 1.875 1.875 0 0 0 76.875 6.275 Q 77.25 6.11 77.61 5.84 Z M 128.5 4.06 L 131.02 4.06 A 0.656 0.656 0 0 0 131.019 4.021 Q 131.015 3.961 131.002 3.847 A 10.529 10.529 0 0 0 130.99 3.75 A 1.724 1.724 0 0 0 130.924 3.45 A 2.187 2.187 0 0 0 130.85 3.25 Q 130.74 2.99 130.51 2.785 Q 130.28 2.58 129.9 2.58 Q 129.548 2.58 129.301 2.703 A 0.933 0.933 0 0 0 129.21 2.755 A 1.573 1.573 0 0 0 128.928 2.986 A 1.342 1.342 0 0 0 128.78 3.17 Q 128.62 3.41 128.56 3.66 Q 128.5 3.91 128.5 4.06 Z M 99.82 4.06 L 102.34 4.06 A 0.656 0.656 0 0 0 102.339 4.021 Q 102.335 3.961 102.322 3.847 A 10.529 10.529 0 0 0 102.31 3.75 A 1.724 1.724 0 0 0 102.244 3.45 A 2.187 2.187 0 0 0 102.17 3.25 Q 102.06 2.99 101.83 2.785 Q 101.6 2.58 101.22 2.58 Q 100.868 2.58 100.621 2.703 A 0.933 0.933 0 0 0 100.53 2.755 A 1.573 1.573 0 0 0 100.248 2.986 A 1.342 1.342 0 0 0 100.1 3.17 Q 99.94 3.41 99.88 3.66 Q 99.82 3.91 99.82 4.06 Z M 123.44 4.06 L 125.96 4.06 A 0.656 0.656 0 0 0 125.959 4.021 Q 125.955 3.961 125.942 3.847 A 10.529 10.529 0 0 0 125.93 3.75 A 1.724 1.724 0 0 0 125.864 3.45 A 2.187 2.187 0 0 0 125.79 3.25 Q 125.68 2.99 125.45 2.785 Q 125.22 2.58 124.84 2.58 Q 124.488 2.58 124.241 2.703 A 0.933 0.933 0 0 0 124.15 2.755 A 1.573 1.573 0 0 0 123.868 2.986 A 1.342 1.342 0 0 0 123.72 3.17 Q 123.56 3.41 123.5 3.66 Q 123.44 3.91 123.44 4.06 Z M 13.848 0.33 A 0.561 0.561 0 0 0 13.81 0.54 A 0.675 0.675 0 0 0 13.81 0.547 A 0.521 0.521 0 0 0 13.965 0.925 A 0.518 0.518 0 0 0 14.14 1.042 A 0.561 0.561 0 0 0 14.35 1.08 A 0.731 0.731 0 0 0 14.365 1.08 A 0.566 0.566 0 0 0 14.755 0.925 A 0.522 0.522 0 0 0 14.871 0.768 A 0.525 0.525 0 0 0 14.92 0.54 A 0.63 0.63 0 0 0 14.92 0.522 A 0.505 0.505 0 0 0 14.755 0.155 A 0.558 0.558 0 0 0 14.571 0.039 A 0.614 0.614 0 0 0 14.35 0 A 0.675 0.675 0 0 0 14.343 0 A 0.521 0.521 0 0 0 13.965 0.155 A 0.518 0.518 0 0 0 13.848 0.33 Z M 83.368 0.33 A 0.561 0.561 0 0 0 83.33 0.54 A 0.675 0.675 0 0 0 83.33 0.547 A 0.521 0.521 0 0 0 83.485 0.925 A 0.518 0.518 0 0 0 83.66 1.042 A 0.561 0.561 0 0 0 83.87 1.08 A 0.731 0.731 0 0 0 83.885 1.08 A 0.566 0.566 0 0 0 84.275 0.925 A 0.522 0.522 0 0 0 84.391 0.768 A 0.525 0.525 0 0 0 84.44 0.54 A 0.63 0.63 0 0 0 84.44 0.522 A 0.505 0.505 0 0 0 84.275 0.155 A 0.558 0.558 0 0 0 84.091 0.039 A 0.614 0.614 0 0 0 83.87 0 A 0.675 0.675 0 0 0 83.863 0 A 0.521 0.521 0 0 0 83.485 0.155 A 0.518 0.518 0 0 0 83.368 0.33 Z M 115.018 0.33 A 0.561 0.561 0 0 0 114.98 0.54 A 0.675 0.675 0 0 0 114.98 0.547 A 0.521 0.521 0 0 0 115.135 0.925 A 0.518 0.518 0 0 0 115.31 1.042 A 0.561 0.561 0 0 0 115.52 1.08 A 0.731 0.731 0 0 0 115.535 1.08 A 0.566 0.566 0 0 0 115.925 0.925 A 0.522 0.522 0 0 0 116.041 0.768 A 0.525 0.525 0 0 0 116.09 0.54 A 0.63 0.63 0 0 0 116.09 0.522 A 0.505 0.505 0 0 0 115.925 0.155 A 0.558 0.558 0 0 0 115.741 0.039 A 0.614 0.614 0 0 0 115.52 0 A 0.675 0.675 0 0 0 115.513 0 A 0.521 0.521 0 0 0 115.135 0.155 A 0.518 0.518 0 0 0 115.018 0.33 Z M 0.848 0.33 A 0.561 0.561 0 0 0 0.81 0.54 A 0.675 0.675 0 0 0 0.81 0.547 A 0.521 0.521 0 0 0 0.965 0.925 A 0.518 0.518 0 0 0 1.14 1.042 A 0.561 0.561 0 0 0 1.35 1.08 A 0.731 0.731 0 0 0 1.365 1.08 A 0.566 0.566 0 0 0 1.755 0.925 A 0.522 0.522 0 0 0 1.871 0.768 A 0.525 0.525 0 0 0 1.92 0.54 A 0.63 0.63 0 0 0 1.92 0.522 A 0.505 0.505 0 0 0 1.755 0.155 A 0.558 0.558 0 0 0 1.571 0.039 A 0.614 0.614 0 0 0 1.35 0 A 0.675 0.675 0 0 0 1.343 0 A 0.521 0.521 0 0 0 0.965 0.155 A 0.518 0.518 0 0 0 0.848 0.33 Z M 27.458 0.33 A 0.561 0.561 0 0 0 27.42 0.54 A 0.675 0.675 0 0 0 27.42 0.547 A 0.521 0.521 0 0 0 27.575 0.925 A 0.518 0.518 0 0 0 27.75 1.042 A 0.561 0.561 0 0 0 27.96 1.08 A 0.731 0.731 0 0 0 27.975 1.08 A 0.566 0.566 0 0 0 28.365 0.925 A 0.522 0.522 0 0 0 28.481 0.768 A 0.525 0.525 0 0 0 28.53 0.54 A 0.63 0.63 0 0 0 28.53 0.522 A 0.505 0.505 0 0 0 28.365 0.155 A 0.558 0.558 0 0 0 28.181 0.039 A 0.614 0.614 0 0 0 27.96 0 A 0.675 0.675 0 0 0 27.953 0 A 0.521 0.521 0 0 0 27.575 0.155 A 0.518 0.518 0 0 0 27.458 0.33 Z"       clip-path="url(#clip1)">
    </g>
    <g
       transform="matrix(1.34105,0,0,1.34105,548.8425,-974.56922)"
       id="g5612">
      <path
         class="bear__fur"
         d="m 243,894 c 0,61 -36,106 -94,106 -55,0 -92,-45 -92,-106 0,-61 38,-86 91,-86 53,0 95,25 95,86 z"
         id="path5562" />
      <path
         class="bear__muzzle"
         d="m 212,958 c 0,20 -29,39 -63,39 -35,0 -61,-19 -61,-39 0,-20 26,-33 61,-33 35,0 63,13 63,33 z"
         id="path5564" />
      <path
         class="bear__nose"
         d="m 181,932 c 0,7 -19,24 -30,24 -11,0 -32,-17 -32,-24 0,-8 20,-13 31,-13 12,0 31,5 31,13 z"
         id="path5566" />
      <ellipse
         class="bear__outer-ear"
         cx="68.300003"
         cy="827.70001"
         rx="23.799999"
         ry="23.1"
         id="ellipse5568" />
      <path
         class="bear__inner-ear"
         d="m 85,826 a 17,16 0 0 0 -17,-14 17,16 0 0 0 -16,16 17,16 0 0 0 16,16 17,16 0 0 0 1,0 l 3,-4 a 66,66 0 0 1 11,-12 z"
         id="path5570" />
      <ellipse
         class="bear__outer-ear"
         ry="23.1"
         rx="23.799999"
         cy="827.70001"
         cx="-231.2"
         transform="scale(-1,1)"
         id="ellipse5572" />
      <path
         class="bear__inner-ear"
         d="m 215,826 a 17,16 0 0 1 16,-14 17,16 0 0 1 17,16 17,16 0 0 1 -17,16 17,16 0 0 1 -1,0 l -2,-4 a 66,66 0 0 0 -11,-12 z"
         id="path5574" />
      <path
         class="bear__cap-strap"
         d="m 148,815 c -14,0 -26,1 -38,4 v 11 a 199,199 0 0 1 80,1 v -11 c -13,-3 -27,-5 -42,-5 z"
         id="path5576" />
      <path
         class="bear__small-cap-strap"
         d="m 165,816 a 16,8 0 0 1 5,5 16,8 0 0 1 -6,6 l 26,4 v -11 z"
         id="path5578" />
      <path
         class="bear__cap"
         d="m 148,789 c -43,0 -76,20 -83,64 12,-11 28,-19 45,-23 0,0 -2,-12 10,-16 15,-4 19,-4 28,-4 10,0 15,0 30,4 15,4 12,17 12,17 18,5 32,11 45,22 -8,-46 -43,-64 -87,-64 z"
         id="path5580" />
      <circle
         class="bear__eye"
         cx="97.199997"
         cy="894.09998"
         r="11.2"
         id="circle5582" />
      <circle
         class="bear__eye"
         cy="894.09998"
         cx="201.89999"
         r="11.2"
         id="circle5584" />
      <path
         style="fill:none;stroke:#e9afaf;stroke-width:3;stroke-linecap:round;stroke-linejoin:round"
         class="bear__eyebrows"
         d="m 97,864 a 21,21 0 0 1 -7,16 21,21 0 0 1 -16,5 m 130,-21 a 21,21 0 0 0 6,16 21,21 0 0 0 16,5"
         id="path5586" />
      <path
         class="shades-frame"
         d="m 77,855 c -6,0 -13,0 -23,2 l -14,3 2,15 7,2 c 3,5 1,10 2,18 3,28 12,34 26,35 8,1 23,3 33,-1 10,-4 19,-10 25,-18 6,-9 6,-18 10,-26 3,-5 8,-4 10,0 3,8 4,17 10,26 6,8 15,14 24,18 11,4 26,2 34,1 14,-1 23,-7 26,-35 1,-8 -2,-13 2,-18 l 7,-2 2,-15 -15,-3 c -15,-3 -23,-2 -34,-2 h -13 l -25,4 c -8,2 -15,7 -23,6 -8,0 -15,-5 -23,-6 l -25,-4 z"
         id="path5588" />
      <path
         style="fill:#333333"
         class="lens"
         d="m 85,860 c -10,1 -25,1 -28,13 -3,15 -3,32 6,45 7,11 23,9 35,9 19,-1 35,-16 40,-34 2,-8 4,-14 1,-19 -6,-10 -20,-12 -31,-13 z"
         id="path5590" />
      <path
         class="shades-dot"
         d="m 56,864 a 4,2 0 0 1 -4,2 4,2 0 0 1 -4,-2 4,2 0 0 1 4,-1 4,2 0 0 1 4,1"
         id="path5592" />
      <path
         style="fill:#333333"
         class="lens"
         d="m 215,860 c 10,1 24,1 28,13 3,15 3,32 -6,45 -7,11 -23,9 -35,9 -19,-1 -35,-16 -40,-34 -2,-8 -4,-14 -1,-19 6,-10 20,-12 31,-13 z"
         id="path5594" />
      <path
         class="shades-dot"
         d="m 244,864 a 4,2 0 0 0 4,2 4,2 0 0 0 4,-2 4,2 0 0 0 -4,-1 4,2 0 0 0 -4,1"
         id="path5596" />
      <g
         clip-path="url(#spec-left)"
         id="g5602">
        <use
           height="100%"
           width="100%"
           y="0"
           x="0"
           xlink:href="#code-block"
           id="use5598" />
        <use
           height="100%"
           width="100%"
           x="0"
           xlink:href="#code-block"
           y="283.5"
           id="use5600" />
      </g>
      <g
         clip-path="url(#spec-right)"
         id="g5608">
        <use
           height="100%"
           width="100%"
           y="0"
           x="0"
           xlink:href="#code-block"
           transform="translate(104)"
           id="use5604" />
        <use
           height="100%"
           width="100%"
           x="0"
           xlink:href="#code-block"
           transform="translate(104)"
           y="283.5"
           id="use5606" />
      </g>
      <path
         class="lens__shine"
         d="m 101,861 -19,66 h 17 l 18,-65 z m -12,-1 h -4 l -3,1 -18,59 6,5 z"
         id="path5610" />
    </g>
  </g>
  <defs
     id="defs48">
    <pattern
       height="1"
       width="1"
       patternContentUnits="objectBoundingBox"
       id="pattern0">
      <use
         id="use38"
         transform="scale(0.005)"
         xlink:href="#image0" />
    </pattern>
    <clipPath
       id="clip0">
      <rect
         id="rect41"
         fill="white"
         height="500"
         width="1500" />
    </clipPath>
    <clipPath
       id="clip1">
      <rect
         id="rect44"
         transform="translate(1261 188)"
         fill="white"
         height="50"
         width="50" />
    </clipPath>
    <style
       type="text/css"
       id="style5503">
         svg {
  --fur: #662900;
  --ear: #e4b89b;
  --cap-strap--large: #f00;
  --cap-strap--small: #900;
  --cap: #0d0d0d;
  --dots: rgba(242,242,242,0.6);
  --frame: #000;
  --shine: rgba(242,242,242,0.35);
  --lens: #595959;
  --code-one: rgba(128,230,25,0.5);
  --code-two: rgba(229,230,25,0.5);
  --code-three: rgba(230,25,128,0.5);
  --code-four: rgba(25,195,230,0.5);
}
.code-block {
  -webkit-animation: read 1s infinite linear;
          animation: read 1s infinite linear;
}
.code-block rect {
  fill: var(--code-one);
}
.code-block rect:nth-of-type(5) {
  fill: var(--code-four);
}
.code-block rect:nth-of-type(8),
.code-block rect:nth-of-type(9) {
  fill: var(--code-two);
}
.code-block rect:nth-of-type(12) {
  fill: var(--code-three);
}
.bear__fur,
.bear__outer-ear {
  fill: var(--fur);
}
.bear__inner-ear,
.bear__muzzle {
  fill: var(--ear);
}
.bear__cap-strap {
  fill: var(--cap-strap--large);
}
.bear__small-cap-strap {
  fill: var(--cap-strap--small);
}
.bear__cap {
  fill: var(--cap);
}
.lens {
  fill: var(--lens);
}
.lens__shine {
  fill: var(--shine);
}
.shades-dot {
  fill: var(--dots);
}
.bear__nose,
.shades-frame {
  fill: var(--frame);
}
@-webkit-keyframes read {
  to {
    -webkit-transform: translate(0, -283.5px);
            transform: translate(0, -283.5px);
  }
}
@keyframes read {
  to {
    -webkit-transform: translate(0, -283.5px);
            transform: translate(0, -283.5px);
  }
}
   </style>
    <g
       class="code-block"
       id="code-block">
      <rect
         ry="0"
         y="862"
         x="60"
         height="7.5"
         width="74"
         id="rect5505" />
      <rect
         ry="0"
         y="874"
         x="96"
         height="7.5"
         width="28"
         id="rect5507" />
      <rect
         width="54"
         height="7.5"
         x="60"
         y="886"
         ry="0"
         id="rect5509" />
      <rect
         ry="0"
         y="897"
         x="60"
         height="7.5"
         width="74"
         id="rect5511" />
      <rect
         width="56"
         height="7.5"
         x="78"
         y="909"
         ry="0"
         id="rect5513" />
      <rect
         ry="0"
         y="921"
         x="83"
         height="7.5"
         width="51"
         id="rect5515" />
      <rect
         width="51"
         height="7.5"
         x="73"
         y="932"
         ry="0"
         id="rect5517" />
      <rect
         ry="0"
         y="944"
         x="72"
         height="7.5"
         width="62"
         id="rect5519" />
      <rect
         width="74"
         height="7.5"
         x="60"
         y="956"
         ry="0"
         id="rect5521" />
      <rect
         ry="0"
         y="967"
         x="50"
         height="7.5"
         width="84"
         id="rect5523" />
      <rect
         width="64"
         height="7.5"
         x="60"
         y="979"
         ry="0"
         id="rect5525" />
      <rect
         ry="0"
         y="991"
         x="60"
         height="7.5"
         width="74"
         id="rect5527" />
      <rect
         width="41"
         height="7.5"
         x="93"
         y="1003"
         ry="0"
         id="rect5529" />
      <rect
         ry="0"
         y="1014"
         x="66"
         height="7.5"
         width="58"
         id="rect5531" />
      <rect
         width="58"
         height="7.5"
         x="56"
         y="1026"
         ry="0"
         id="rect5533" />
      <rect
         ry="0"
         y="1038"
         x="50"
         height="7.5"
         width="74"
         id="rect5535" />
      <rect
         width="46"
         height="7.5"
         x="88"
         y="1049"
         ry="0"
         id="rect5537" />
      <rect
         ry="0"
         y="1061"
         x="105"
         height="7.5"
         width="19"
         id="rect5539" />
      <rect
         width="38"
         height="7.5"
         x="96"
         y="1073"
         ry="0"
         id="rect5541" />
      <rect
         ry="0"
         y="1084"
         x="73"
         height="7.5"
         width="51"
         id="rect5543" />
      <rect
         ry="0"
         y="1096"
         x="88"
         height="7.5"
         width="26"
         id="rect5545" />
      <rect
         width="56"
         height="7.5"
         x="68"
         y="1108"
         ry="0"
         id="rect5547" />
      <rect
         ry="0"
         y="1120"
         x="100"
         height="7.5"
         width="24"
         id="rect5549" />
      <rect
         width="74"
         height="7.5"
         x="50"
         y="1131"
         ry="0"
         id="rect5551" />
    </g>
    <clipPath
       id="spec-left">
      <path
         d="M85 860c-10 1-25 1-28 13-3 15-3 32 6 45 7 11 23 9 35 9 19-1 35-16 40-34 2-8 4-14 1-19-6-10-20-12-31-13l-23-1z"
         fill="#333"
         id="path5554" />
    </clipPath>
    <clipPath
       id="spec-right">
      <path
         d="M215 860c10 1 24 1 28 13 3 15 3 32-6 45-7 11-23 9-35 9-19-1-35-16-40-34-2-8-4-14-1-19 6-10 20-12 31-13l23-1z"
         fill="#333"
         id="path5557" />
    </clipPath>
  </defs>
</svg>
