<?xml version="1.0" encoding="UTF-8" standalone="no"?>
<svg
   xmlns:dc="http://purl.org/dc/elements/1.1/"
   xmlns:cc="http://creativecommons.org/ns#"
   xmlns:rdf="http://www.w3.org/1999/02/22-rdf-syntax-ns#"
   xmlns:svg="http://www.w3.org/2000/svg"
   xmlns="http://www.w3.org/2000/svg"
   xmlns:xlink="http://www.w3.org/1999/xlink"
   id="svg50"
   version="1.1"
   fill="none"
   viewBox="0 0 1500 500"
   height="500"
   width="1500">
  <metadata
     id="metadata54">
    <rdf:RDF>
      <cc:Work
         rdf:about="">
        <dc:format>image/svg+xml</dc:format>
        <dc:type
           rdf:resource="http://purl.org/dc/dcmitype/StillImage" />
        <dc:title></dc:title>
      </cc:Work>
    </rdf:RDF>
  </metadata>
  <g
     id="g36"
     clip-path="url(#clip0)">
    <rect
       id="rect2"
       fill="#1E1E1E"
       height="500"
       width="1500" />
    <rect
       id="rect4"
       fill="#1E1E1E"
       height="500"
       width="1500" />
    <rect
       id="rect6"
       fill="#DF2525"
       transform="rotate(-37.4908 286 621.501)"
       height="759.948"
       width="1614.27"
       y="621.501"
       x="286" />
    <circle
       fill="white"
       id="circle8"
       r="183"
       cy="225"
       cx="750" />
    <g
       id="g32"
       clip-path="url(#clip1)">
      <path
         id="path30"
         fill="white"
         d="M1310.9 197.519C1309.06 198.329 1307.09 198.881 1305.02 199.133C1307.13 197.86 1308.76 195.854 1309.52 193.46C1307.54 194.617 1305.35 195.458 1303.01 195.927C1301.14 193.929 1298.48 192.679 1295.53 192.679C1289.87 192.679 1285.28 197.269 1285.28 202.923C1285.28 203.735 1285.37 204.517 1285.54 205.265C1277.02 204.862 1269.47 200.771 1264.42 194.585C1263.53 196.09 1263.03 197.837 1263.03 199.742C1263.03 203.304 1264.84 206.435 1267.59 208.275C1265.91 208.221 1264.32 207.758 1262.95 206.992V207.119C1262.95 212.087 1266.47 216.231 1271.17 217.175C1270.31 217.406 1269.4 217.531 1268.47 217.531C1267.81 217.531 1267.19 217.469 1266.56 217.352C1267.87 221.421 1271.65 224.387 1276.15 224.471C1272.65 227.219 1268.21 228.856 1263.44 228.856C1262.62 228.856 1261.81 228.808 1261 228.717C1265.56 231.621 1270.93 233.319 1276.74 233.319C1295.61 233.319 1305.91 217.702 1305.91 204.181C1305.91 203.746 1305.91 203.306 1305.88 202.869C1307.88 201.433 1309.63 199.619 1311 197.56L1310.9 197.519Z" />
    </g>
    <path
       id="path34"
       fill="white"
       d="M1328.99 231.62V227.444H1334.17C1335.32 227.444 1336.25 227.084 1336.94 226.364C1337.66 225.668 1338.02 224.744 1338.02 223.592V209.876H1330.07V205.7H1342.52V223.592C1342.52 224.792 1342.32 225.884 1341.91 226.868C1341.53 227.876 1340.98 228.728 1340.26 229.424C1339.56 230.12 1338.71 230.66 1337.7 231.044C1336.72 231.428 1335.61 231.62 1334.39 231.62H1328.99ZM1337.23 200.372C1337.23 199.652 1337.46 199.076 1337.92 198.644C1338.37 198.188 1338.98 197.96 1339.75 197.96H1340.47C1341.24 197.96 1341.86 198.188 1342.34 198.644C1342.82 199.076 1343.06 199.652 1343.06 200.372C1343.06 201.092 1342.82 201.668 1342.34 202.1C1341.86 202.508 1341.24 202.712 1340.47 202.712H1339.75C1338.98 202.712 1338.37 202.496 1337.92 202.064C1337.46 201.632 1337.23 201.068 1337.23 200.372ZM1350.21 199.58H1354.71V205.7C1354.71 206.06 1354.7 206.444 1354.68 206.852C1354.65 207.236 1354.62 207.596 1354.57 207.932C1354.55 208.268 1354.52 208.556 1354.5 208.796C1354.47 209.012 1354.46 209.12 1354.46 209.12H1354.79C1355.03 207.92 1355.6 206.996 1356.51 206.348C1357.43 205.676 1358.6 205.34 1360.04 205.34C1362.03 205.34 1363.62 205.988 1364.79 207.284C1365.97 208.58 1366.56 210.344 1366.56 212.576V225.5H1362.06V213.116C1362.06 211.892 1361.73 210.944 1361.09 210.272C1360.44 209.576 1359.55 209.228 1358.42 209.228C1357.27 209.228 1356.36 209.588 1355.69 210.308C1355.04 211.004 1354.71 211.964 1354.71 213.188V225.5H1350.21V199.58ZM1379.94 225.86C1378.71 225.86 1377.58 225.704 1376.55 225.392C1375.52 225.056 1374.62 224.588 1373.85 223.988C1373.08 223.364 1372.47 222.62 1372.02 221.756C1371.56 220.892 1371.28 219.92 1371.19 218.84H1375.69C1375.83 219.8 1376.29 220.58 1377.06 221.18C1377.85 221.756 1378.81 222.044 1379.94 222.044C1381.23 222.044 1382.26 221.648 1383.03 220.856C1383.82 220.064 1384.22 219.02 1384.22 217.724C1384.22 216.428 1383.81 215.396 1383 214.628C1382.2 213.836 1381.12 213.44 1379.76 213.44H1376.62V209.156L1380.76 205.232C1381.39 204.704 1381.98 204.248 1382.53 203.864C1382.82 203.672 1383.12 203.48 1383.43 203.288V203.072C1383.12 203.144 1382.77 203.192 1382.38 203.216C1381.71 203.336 1380.91 203.396 1379.97 203.396H1372.27V199.58H1387.6V203.9L1382.35 208.508C1382.16 208.676 1381.96 208.832 1381.77 208.976C1381.58 209.12 1381.4 209.252 1381.23 209.372C1381.04 209.492 1380.86 209.6 1380.69 209.696C1381.92 209.744 1383.02 209.972 1384 210.38C1385.01 210.788 1385.86 211.34 1386.56 212.036C1387.28 212.732 1387.82 213.56 1388.18 214.52C1388.56 215.48 1388.76 216.548 1388.76 217.724C1388.76 218.948 1388.54 220.064 1388.11 221.072C1387.7 222.08 1387.11 222.944 1386.34 223.664C1385.58 224.36 1384.65 224.9 1383.57 225.284C1382.49 225.668 1381.28 225.86 1379.94 225.86ZM1392.02 205.7H1396.91L1400.87 216.32C1401.04 216.776 1401.17 217.232 1401.27 217.688C1401.36 218.144 1401.44 218.576 1401.48 218.984C1401.53 219.416 1401.57 219.848 1401.59 220.28H1402.02C1402.05 219.872 1402.08 219.44 1402.13 218.984C1402.18 218.6 1402.24 218.18 1402.31 217.724C1402.41 217.244 1402.54 216.776 1402.71 216.32L1406.42 205.7H1411.2L1401.66 231.62H1396.91L1399.65 224.384L1392.02 205.7ZM1413.6 205.7H1418.5L1422.46 216.32C1422.63 216.776 1422.76 217.232 1422.85 217.688C1422.95 218.144 1423.02 218.576 1423.07 218.984C1423.12 219.416 1423.15 219.848 1423.18 220.28H1423.61C1423.63 219.872 1423.67 219.44 1423.72 218.984C1423.77 218.6 1423.83 218.18 1423.9 217.724C1423.99 217.244 1424.13 216.776 1424.29 216.32L1428 205.7H1432.79L1423.25 231.62H1418.5L1421.23 224.384L1413.6 205.7Z" />
    <g
       transform="matrix(1.34105,0,0,1.34105,548.8425,-974.56922)"
       id="g5612">
      <path
         class="bear__fur"
         d="m 243,894 c 0,61 -36,106 -94,106 -55,0 -92,-45 -92,-106 0,-61 38,-86 91,-86 53,0 95,25 95,86 z"
         id="path5562" />
      <path
         class="bear__muzzle"
         d="m 212,958 c 0,20 -29,39 -63,39 -35,0 -61,-19 -61,-39 0,-20 26,-33 61,-33 35,0 63,13 63,33 z"
         id="path5564" />
      <path
         class="bear__nose"
         d="m 181,932 c 0,7 -19,24 -30,24 -11,0 -32,-17 -32,-24 0,-8 20,-13 31,-13 12,0 31,5 31,13 z"
         id="path5566" />
      <ellipse
         class="bear__outer-ear"
         cx="68.300003"
         cy="827.70001"
         rx="23.799999"
         ry="23.1"
         id="ellipse5568" />
      <path
         class="bear__inner-ear"
         d="m 85,826 a 17,16 0 0 0 -17,-14 17,16 0 0 0 -16,16 17,16 0 0 0 16,16 17,16 0 0 0 1,0 l 3,-4 a 66,66 0 0 1 11,-12 z"
         id="path5570" />
      <ellipse
         class="bear__outer-ear"
         ry="23.1"
         rx="23.799999"
         cy="827.70001"
         cx="-231.2"
         transform="scale(-1,1)"
         id="ellipse5572" />
      <path
         class="bear__inner-ear"
         d="m 215,826 a 17,16 0 0 1 16,-14 17,16 0 0 1 17,16 17,16 0 0 1 -17,16 17,16 0 0 1 -1,0 l -2,-4 a 66,66 0 0 0 -11,-12 z"
         id="path5574" />
      <path
         class="bear__cap-strap"
         d="m 148,815 c -14,0 -26,1 -38,4 v 11 a 199,199 0 0 1 80,1 v -11 c -13,-3 -27,-5 -42,-5 z"
         id="path5576" />
      <path
         class="bear__small-cap-strap"
         d="m 165,816 a 16,8 0 0 1 5,5 16,8 0 0 1 -6,6 l 26,4 v -11 z"
         id="path5578" />
      <path
         class="bear__cap"
         d="m 148,789 c -43,0 -76,20 -83,64 12,-11 28,-19 45,-23 0,0 -2,-12 10,-16 15,-4 19,-4 28,-4 10,0 15,0 30,4 15,4 12,17 12,17 18,5 32,11 45,22 -8,-46 -43,-64 -87,-64 z"
         id="path5580" />
      <circle
         class="bear__eye"
         cx="97.199997"
         cy="894.09998"
         r="11.2"
         id="circle5582" />
      <circle
         class="bear__eye"
         cy="894.09998"
         cx="201.89999"
         r="11.2"
         id="circle5584" />
      <path
         style="fill:none;stroke:#e9afaf;stroke-width:3;stroke-linecap:round;stroke-linejoin:round"
         class="bear__eyebrows"
         d="m 97,864 a 21,21 0 0 1 -7,16 21,21 0 0 1 -16,5 m 130,-21 a 21,21 0 0 0 6,16 21,21 0 0 0 16,5"
         id="path5586" />
      <path
         class="shades-frame"
         d="m 77,855 c -6,0 -13,0 -23,2 l -14,3 2,15 7,2 c 3,5 1,10 2,18 3,28 12,34 26,35 8,1 23,3 33,-1 10,-4 19,-10 25,-18 6,-9 6,-18 10,-26 3,-5 8,-4 10,0 3,8 4,17 10,26 6,8 15,14 24,18 11,4 26,2 34,1 14,-1 23,-7 26,-35 1,-8 -2,-13 2,-18 l 7,-2 2,-15 -15,-3 c -15,-3 -23,-2 -34,-2 h -13 l -25,4 c -8,2 -15,7 -23,6 -8,0 -15,-5 -23,-6 l -25,-4 z"
         id="path5588" />
      <path
         style="fill:#333333"
         class="lens"
         d="m 85,860 c -10,1 -25,1 -28,13 -3,15 -3,32 6,45 7,11 23,9 35,9 19,-1 35,-16 40,-34 2,-8 4,-14 1,-19 -6,-10 -20,-12 -31,-13 z"
         id="path5590" />
      <path
         class="shades-dot"
         d="m 56,864 a 4,2 0 0 1 -4,2 4,2 0 0 1 -4,-2 4,2 0 0 1 4,-1 4,2 0 0 1 4,1"
         id="path5592" />
      <path
         style="fill:#333333"
         class="lens"
         d="m 215,860 c 10,1 24,1 28,13 3,15 3,32 -6,45 -7,11 -23,9 -35,9 -19,-1 -35,-16 -40,-34 -2,-8 -4,-14 -1,-19 6,-10 20,-12 31,-13 z"
         id="path5594" />
      <path
         class="shades-dot"
         d="m 244,864 a 4,2 0 0 0 4,2 4,2 0 0 0 4,-2 4,2 0 0 0 -4,-1 4,2 0 0 0 -4,1"
         id="path5596" />
      <g
         clip-path="url(#spec-left)"
         id="g5602">
        <use
           height="100%"
           width="100%"
           y="0"
           x="0"
           xlink:href="#code-block"
           id="use5598" />
        <use
           height="100%"
           width="100%"
           x="0"
           xlink:href="#code-block"
           y="283.5"
           id="use5600" />
      </g>
      <g
         clip-path="url(#spec-right)"
         id="g5608">
        <use
           height="100%"
           width="100%"
           y="0"
           x="0"
           xlink:href="#code-block"
           transform="translate(104)"
           id="use5604" />
        <use
           height="100%"
           width="100%"
           x="0"
           xlink:href="#code-block"
           transform="translate(104)"
           y="283.5"
           id="use5606" />
      </g>
      <path
         class="lens__shine"
         d="m 101,861 -19,66 h 17 l 18,-65 z m -12,-1 h -4 l -3,1 -18,59 6,5 z"
         id="path5610" />
    </g>
  </g>
  <defs
     id="defs48">
    <pattern
       height="1"
       width="1"
       patternContentUnits="objectBoundingBox"
       id="pattern0">
      <use
         id="use38"
         transform="scale(0.005)"
         xlink:href="#image0" />
    </pattern>
    <clipPath
       id="clip0">
      <rect
         id="rect41"
         fill="white"
         height="500"
         width="1500" />
    </clipPath>
    <clipPath
       id="clip1">
      <rect
         id="rect44"
         transform="translate(1261 188)"
         fill="white"
         height="50"
         width="50" />
    </clipPath>
    <style
       type="text/css"
       id="style5503">
         svg {
  --fur: #662900;
  --ear: #e4b89b;
  --cap-strap--large: #f00;
  --cap-strap--small: #900;
  --cap: #0d0d0d;
  --dots: rgba(242,242,242,0.6);
  --frame: #000;
  --shine: rgba(242,242,242,0.35);
  --lens: #595959;
  --code-one: rgba(128,230,25,0.5);
  --code-two: rgba(229,230,25,0.5);
  --code-three: rgba(230,25,128,0.5);
  --code-four: rgba(25,195,230,0.5);
}
.code-block {
  -webkit-animation: read 1s infinite linear;
          animation: read 1s infinite linear;
}
.code-block rect {
  fill: var(--code-one);
}
.code-block rect:nth-of-type(5) {
  fill: var(--code-four);
}
.code-block rect:nth-of-type(8),
.code-block rect:nth-of-type(9) {
  fill: var(--code-two);
}
.code-block rect:nth-of-type(12) {
  fill: var(--code-three);
}
.bear__fur,
.bear__outer-ear {
  fill: var(--fur);
}
.bear__inner-ear,
.bear__muzzle {
  fill: var(--ear);
}
.bear__cap-strap {
  fill: var(--cap-strap--large);
}
.bear__small-cap-strap {
  fill: var(--cap-strap--small);
}
.bear__cap {
  fill: var(--cap);
}
.lens {
  fill: var(--lens);
}
.lens__shine {
  fill: var(--shine);
}
.shades-dot {
  fill: var(--dots);
}
.bear__nose,
.shades-frame {
  fill: var(--frame);
}
@-webkit-keyframes read {
  to {
    -webkit-transform: translate(0, -283.5px);
            transform: translate(0, -283.5px);
  }
}
@keyframes read {
  to {
    -webkit-transform: translate(0, -283.5px);
            transform: translate(0, -283.5px);
  }
}
   </style>
    <g
       class="code-block"
       id="code-block">
      <rect
         ry="0"
         y="862"
         x="60"
         height="7.5"
         width="74"
         id="rect5505" />
      <rect
         ry="0"
         y="874"
         x="96"
         height="7.5"
         width="28"
         id="rect5507" />
      <rect
         width="54"
         height="7.5"
         x="60"
         y="886"
         ry="0"
         id="rect5509" />
      <rect
         ry="0"
         y="897"
         x="60"
         height="7.5"
         width="74"
         id="rect5511" />
      <rect
         width="56"
         height="7.5"
         x="78"
         y="909"
         ry="0"
         id="rect5513" />
      <rect
         ry="0"
         y="921"
         x="83"
         height="7.5"
         width="51"
         id="rect5515" />
      <rect
         width="51"
         height="7.5"
         x="73"
         y="932"
         ry="0"
         id="rect5517" />
      <rect
         ry="0"
         y="944"
         x="72"
         height="7.5"
         width="62"
         id="rect5519" />
      <rect
         width="74"
         height="7.5"
         x="60"
         y="956"
         ry="0"
         id="rect5521" />
      <rect
         ry="0"
         y="967"
         x="50"
         height="7.5"
         width="84"
         id="rect5523" />
      <rect
         width="64"
         height="7.5"
         x="60"
         y="979"
         ry="0"
         id="rect5525" />
      <rect
         ry="0"
         y="991"
         x="60"
         height="7.5"
         width="74"
         id="rect5527" />
      <rect
         width="41"
         height="7.5"
         x="93"
         y="1003"
         ry="0"
         id="rect5529" />
      <rect
         ry="0"
         y="1014"
         x="66"
         height="7.5"
         width="58"
         id="rect5531" />
      <rect
         width="58"
         height="7.5"
         x="56"
         y="1026"
         ry="0"
         id="rect5533" />
      <rect
         ry="0"
         y="1038"
         x="50"
         height="7.5"
         width="74"
         id="rect5535" />
      <rect
         width="46"
         height="7.5"
         x="88"
         y="1049"
         ry="0"
         id="rect5537" />
      <rect
         ry="0"
         y="1061"
         x="105"
         height="7.5"
         width="19"
         id="rect5539" />
      <rect
         width="38"
         height="7.5"
         x="96"
         y="1073"
         ry="0"
         id="rect5541" />
      <rect
         ry="0"
         y="1084"
         x="73"
         height="7.5"
         width="51"
         id="rect5543" />
      <rect
         ry="0"
         y="1096"
         x="88"
         height="7.5"
         width="26"
         id="rect5545" />
      <rect
         width="56"
         height="7.5"
         x="68"
         y="1108"
         ry="0"
         id="rect5547" />
      <rect
         ry="0"
         y="1120"
         x="100"
         height="7.5"
         width="24"
         id="rect5549" />
      <rect
         width="74"
         height="7.5"
         x="50"
         y="1131"
         ry="0"
         id="rect5551" />
    </g>
    <clipPath
       id="spec-left">
      <path
         d="M85 860c-10 1-25 1-28 13-3 15-3 32 6 45 7 11 23 9 35 9 19-1 35-16 40-34 2-8 4-14 1-19-6-10-20-12-31-13l-23-1z"
         fill="#333"
         id="path5554" />
    </clipPath>
    <clipPath
       id="spec-right">
      <path
         d="M215 860c10 1 24 1 28 13 3 15 3 32-6 45-7 11-23 9-35 9-19-1-35-16-40-34-2-8-4-14-1-19 6-10 20-12 31-13l23-1z"
         fill="#333"
         id="path5557" />
    </clipPath>
  </defs>
</svg>
