<?xml version="1.0" encoding="UTF-8" standalone="no"?>
<svg
   xmlns:dc="http://purl.org/dc/elements/1.1/"
   xmlns:cc="http://creativecommons.org/ns#"
   xmlns:rdf="http://www.w3.org/1999/02/22-rdf-syntax-ns#"
   xmlns:svg="http://www.w3.org/2000/svg"
   xmlns="http://www.w3.org/2000/svg"
   xmlns:xlink="http://www.w3.org/1999/xlink"
   id="svg50"
   version="1.1"
   fill="none"
   viewBox="0 0 1500 500"
   height="500"
   width="1500">
  <metadata
     id="metadata54">
    <rdf:RDF>
      <cc:Work
         rdf:about="">
        <dc:format>image/svg+xml</dc:format>
        <dc:type
           rdf:resource="http://purl.org/dc/dcmitype/StillImage" />
        <dc:title></dc:title>
      </cc:Work>
    </rdf:RDF>
  </metadata>
  <g
     id="g36"
     clip-path="url(#clip0)">
    <rect
       id="rect2"
       fill="#1E1E1E"
       height="500"
       width="1500" />
    <rect
       id="rect4"
       fill="#1E1E1E"
       height="500"
       width="1500" />
    <rect
       id="rect6"
       fill="#DF2525"
       transform="rotate(-37.4908 286 621.501)"
       height="759.948"
       width="1614.27"
       y="621.501"
       x="286" />
    <circle
       fill="white"
       id="circle8"
       r="183"
       cy="225"
       cx="750" />
     <g>
       <rect x="0" y="0" width="50" height="100" fill=" "></rect>
       <text x="790" y="475" font-family="Verdana" font-size="42" fill="white">A pasionate automation engineer</text>
    </g>
    <g
       id="g32"
       clip-path="url(#clip1)">
    </g>
    <g
       transform="matrix(1.34105,0,0,1.34105,548.8425,-974.56922)"
       id="g5612">
      <path
         class="bear__fur"
         d="m 243,894 c 0,61 -36,106 -94,106 -55,0 -92,-45 -92,-106 0,-61 38,-86 91,-86 53,0 95,25 95,86 z"
         id="path5562" />
      <path
         class="bear__muzzle"
         d="m 212,958 c 0,20 -29,39 -63,39 -35,0 -61,-19 -61,-39 0,-20 26,-33 61,-33 35,0 63,13 63,33 z"
         id="path5564" />
      <path
         class="bear__nose"
         d="m 181,932 c 0,7 -19,24 -30,24 -11,0 -32,-17 -32,-24 0,-8 20,-13 31,-13 12,0 31,5 31,13 z"
         id="path5566" />
      <ellipse
         class="bear__outer-ear"
         cx="68.300003"
         cy="827.70001"
         rx="23.799999"
         ry="23.1"
         id="ellipse5568" />
      <path
         class="bear__inner-ear"
         d="m 85,826 a 17,16 0 0 0 -17,-14 17,16 0 0 0 -16,16 17,16 0 0 0 16,16 17,16 0 0 0 1,0 l 3,-4 a 66,66 0 0 1 11,-12 z"
         id="path5570" />
      <ellipse
         class="bear__outer-ear"
         ry="23.1"
         rx="23.799999"
         cy="827.70001"
         cx="-231.2"
         transform="scale(-1,1)"
         id="ellipse5572" />
      <path
         class="bear__inner-ear"
         d="m 215,826 a 17,16 0 0 1 16,-14 17,16 0 0 1 17,16 17,16 0 0 1 -17,16 17,16 0 0 1 -1,0 l -2,-4 a 66,66 0 0 0 -11,-12 z"
         id="path5574" />
      <path
         class="bear__cap-strap"
         d="m 148,815 c -14,0 -26,1 -38,4 v 11 a 199,199 0 0 1 80,1 v -11 c -13,-3 -27,-5 -42,-5 z"
         id="path5576" />
      <path
         class="bear__small-cap-strap"
         d="m 165,816 a 16,8 0 0 1 5,5 16,8 0 0 1 -6,6 l 26,4 v -11 z"
         id="path5578" />
      <path
         class="bear__cap"
         d="m 148,789 c -43,0 -76,20 -83,64 12,-11 28,-19 45,-23 0,0 -2,-12 10,-16 15,-4 19,-4 28,-4 10,0 15,0 30,4 15,4 12,17 12,17 18,5 32,11 45,22 -8,-46 -43,-64 -87,-64 z"
         id="path5580" />
      <circle
         class="bear__eye"
         cx="97.199997"
         cy="894.09998"
         r="11.2"
         id="circle5582" />
      <circle
         class="bear__eye"
         cy="894.09998"
         cx="201.89999"
         r="11.2"
         id="circle5584" />
      <path
         style="fill:none;stroke:#e9afaf;stroke-width:3;stroke-linecap:round;stroke-linejoin:round"
         class="bear__eyebrows"
         d="m 97,864 a 21,21 0 0 1 -7,16 21,21 0 0 1 -16,5 m 130,-21 a 21,21 0 0 0 6,16 21,21 0 0 0 16,5"
         id="path5586" />
      <path
         class="shades-frame"
         d="m 77,855 c -6,0 -13,0 -23,2 l -14,3 2,15 7,2 c 3,5 1,10 2,18 3,28 12,34 26,35 8,1 23,3 33,-1 10,-4 19,-10 25,-18 6,-9 6,-18 10,-26 3,-5 8,-4 10,0 3,8 4,17 10,26 6,8 15,14 24,18 11,4 26,2 34,1 14,-1 23,-7 26,-35 1,-8 -2,-13 2,-18 l 7,-2 2,-15 -15,-3 c -15,-3 -23,-2 -34,-2 h -13 l -25,4 c -8,2 -15,7 -23,6 -8,0 -15,-5 -23,-6 l -25,-4 z"
         id="path5588" />
      <path
         style="fill:#333333"
         class="lens"
         d="m 85,860 c -10,1 -25,1 -28,13 -3,15 -3,32 6,45 7,11 23,9 35,9 19,-1 35,-16 40,-34 2,-8 4,-14 1,-19 -6,-10 -20,-12 -31,-13 z"
         id="path5590" />
      <path
         class="shades-dot"
         d="m 56,864 a 4,2 0 0 1 -4,2 4,2 0 0 1 -4,-2 4,2 0 0 1 4,-1 4,2 0 0 1 4,1"
         id="path5592" />
      <path
         style="fill:#333333"
         class="lens"
         d="m 215,860 c 10,1 24,1 28,13 3,15 3,32 -6,45 -7,11 -23,9 -35,9 -19,-1 -35,-16 -40,-34 -2,-8 -4,-14 -1,-19 6,-10 20,-12 31,-13 z"
         id="path5594" />
      <path
           
         class="shades-dot"
         d="m 244,864 a 4,2 0 0 0 4,2 4,2 0 0 0 4,-2 4,2 0 0 0 -4,-1 4,2 0 0 0 -4,1"
         id="path5596" />
      <g
         clip-path="url(#spec-left)"
         id="g5602">
        <use
           height="100%"
           width="100%"
           y="0"
           x="0"
           xlink:href="#code-block"
           id="use5598" />
        <use
           height="100%"
           width="100%"
           x="0"
           xlink:href="#code-block"
           y="283.5"
           id="use5600" />
      </g>
      <g
         clip-path="url(#spec-right)"
         id="g5608">
        <use
           height="100%"
           width="100%"
           y="0"
           x="0"
           xlink:href="#code-block"
           transform="translate(104)"
           id="use5604" />
        <use
           height="100%"
           width="100%"
           x="0"
           xlink:href="#code-block"
           transform="translate(104)"
           y="283.5"
           id="use5606" />
      </g>
      <path
         class="lens__shine"
         d="m 101,861 -19,66 h 17 l 18,-65 z m -12,-1 h -4 l -3,1 -18,59 6,5 z"
         id="path5610" />
    </g>
  </g>
  <defs
     id="defs48">
    <pattern
       height="1"
       width="1"
       patternContentUnits="objectBoundingBox"
       id="pattern0">
      <use
         id="use38"
         transform="scale(0.005)"
         xlink:href="#image0" />
    </pattern>
    <clipPath
       id="clip0">
      <rect
         id="rect41"
         fill="white"
         height="500"
         width="1500" />
    </clipPath>
    <clipPath
       id="clip1">
      <rect
         id="rect44"
         transform="translate(1261 188)"
         fill="white"
         height="50"
         width="50" />
    </clipPath>
    <style
       type="text/css"
       id="style5503">
         svg {
  --fur: #662900;
  --ear: #e4b89b;
  --cap-strap--large: #f00;
  --cap-strap--small: #900;
  --cap: #0d0d0d;
  --dots: rgba(242,242,242,0.6);
  --frame: #000;
  --shine: rgba(242,242,242,0.35);
  --lens: #595959;
  --code-one: rgba(128,230,25,0.5);
  --code-two: rgba(229,230,25,0.5);
  --code-three: rgba(230,25,128,0.5);
  --code-four: rgba(25,195,230,0.5);
}
.code-block {
  -webkit-animation: read 1s infinite linear;
          animation: read 1s infinite linear;
}
.code-block rect {
  fill: var(--code-one);
}
.code-block rect:nth-of-type(5) {
  fill: var(--code-four);
}
.code-block rect:nth-of-type(8),
.code-block rect:nth-of-type(9) {
  fill: var(--code-two);
}
.code-block rect:nth-of-type(12) {
  fill: var(--code-three);
}
.bear__fur,
.bear__outer-ear {
  fill: var(--fur);
}
.bear__inner-ear,
.bear__muzzle {
  fill: var(--ear);
}
.bear__cap-strap {
  fill: var(--cap-strap--large);
}
.bear__small-cap-strap {
  fill: var(--cap-strap--small);
}
.bear__cap {
  fill: var(--cap);
}
.lens {
  fill: var(--lens);
}
.lens__shine {
  fill: var(--shine);
}
.shades-dot {
  fill: var(--dots);
}
.bear__nose,
.shades-frame {
  fill: var(--frame);
}
@-webkit-keyframes read {
  to {
    -webkit-transform: translate(0, -283.5px);
            transform: translate(0, -283.5px);
  }
}
@keyframes read {
  to {
    -webkit-transform: translate(0, -283.5px);
            transform: translate(0, -283.5px);
  }
}
   </style>
    <g
       class="code-block"
       id="code-block">
      <rect
         ry="0"
         y="862"
         x="60"
         height="7.5"
         width="74"
         id="rect5505" />
      <rect
         ry="0"
         y="874"
         x="96"
         height="7.5"
         width="28"
         id="rect5507" />
      <rect
         width="54"
         height="7.5"
         x="60"
         y="886"
         ry="0"
         id="rect5509" />
      <rect
         ry="0"
         y="897"
         x="60"
         height="7.5"
         width="74"
         id="rect5511" />
      <rect
         width="56"
         height="7.5"
         x="78"
         y="909"
         ry="0"
         id="rect5513" />
      <rect
         ry="0"
         y="921"
         x="83"
         height="7.5"
         width="51"
         id="rect5515" />
      <rect
         width="51"
         height="7.5"
         x="73"
         y="932"
         ry="0"
         id="rect5517" />
      <rect
         ry="0"
         y="944"
         x="72"
         height="7.5"
         width="62"
         id="rect5519" />
      <rect
         width="74"
         height="7.5"
         x="60"
         y="956"
         ry="0"
         id="rect5521" />
      <rect
         ry="0"
         y="967"
         x="50"
         height="7.5"
         width="84"
         id="rect5523" />
      <rect
         width="64"
         height="7.5"
         x="60"
         y="979"
         ry="0"
         id="rect5525" />
      <rect
         ry="0"
         y="991"
         x="60"
         height="7.5"
         width="74"
         id="rect5527" />
      <rect
         width="41"
         height="7.5"
         x="93"
         y="1003"
         ry="0"
         id="rect5529" />
      <rect
         ry="0"
         y="1014"
         x="66"
         height="7.5"
         width="58"
         id="rect5531" />
      <rect
         width="58"
         height="7.5"
         x="56"
         y="1026"
         ry="0"
         id="rect5533" />
      <rect
         ry="0"
         y="1038"
         x="50"
         height="7.5"
         width="74"
         id="rect5535" />
      <rect
         width="46"
         height="7.5"
         x="88"
         y="1049"
         ry="0"
         id="rect5537" />
      <rect
         ry="0"
         y="1061"
         x="105"
         height="7.5"
         width="19"
         id="rect5539" />
      <rect
         width="38"
         height="7.5"
         x="96"
         y="1073"
         ry="0"
         id="rect5541" />
      <rect
         ry="0"
         y="1084"
         x="73"
         height="7.5"
         width="51"
         id="rect5543" />
      <rect
         ry="0"
         y="1096"
         x="88"
         height="7.5"
         width="26"
         id="rect5545" />
      <rect
         width="56"
         height="7.5"
         x="68"
         y="1108"
         ry="0"
         id="rect5547" />
      <rect
         ry="0"
         y="1120"
         x="100"
         height="7.5"
         width="24"
         id="rect5549" />
      <rect
         width="74"
         height="7.5"
         x="50"
         y="1131"
         ry="0"
         id="rect5551" />
    </g>
    <clipPath
       id="spec-left">
      <path
         d="M85 860c-10 1-25 1-28 13-3 15-3 32 6 45 7 11 23 9 35 9 19-1 35-16 40-34 2-8 4-14 1-19-6-10-20-12-31-13l-23-1z"
         fill="#333"
         id="path5554" />
    </clipPath>
    <clipPath
       id="spec-right">
      <path
         d="M215 860c10 1 24 1 28 13 3 15 3 32-6 45-7 11-23 9-35 9-19-1-35-16-40-34-2-8-4-14-1-19 6-10 20-12 31-13l23-1z"
         fill="#333"
         id="path5557" />
    </clipPath>
  </defs>
</svg>
