<?xml version="1.0" encoding="UTF-8" standalone="no"?>
<svg
   xmlns:dc="http://purl.org/dc/elements/1.1/"
   xmlns:cc="http://creativecommons.org/ns#"
   xmlns:rdf="http://www.w3.org/1999/02/22-rdf-syntax-ns#"
   xmlns:svg="http://www.w3.org/2000/svg"
   xmlns="http://www.w3.org/2000/svg"
   xmlns:xlink="http://www.w3.org/1999/xlink"
   id="svg50"
   version="1.1"
   fill="none"
   viewBox="0 0 1500 500"
   height="500"
   width="1500">
  <metadata
     id="metadata54">
    <rdf:RDF>
      <cc:Work
         rdf:about="">
        <dc:format>image/svg+xml</dc:format>
        <dc:type
           rdf:resource="http://purl.org/dc/dcmitype/StillImage" />
        <dc:title></dc:title>
      </cc:Work>
    </rdf:RDF>
  </metadata>
  <g
     id="g36"
     clip-path="url(#clip0)">
    <rect
       id="rect2"
       fill="#1E1E1E"
       height="500"
       width="1500" />
    <rect
       id="rect4"
       fill="#1E1E1E"
       height="500"
       width="1500" />
    <rect
       id="rect6"
       fill="#DF2525"
       transform="rotate(-37.4908 286 621.501)"
       height="759.948"
       width="1614.27"
       y="621.501"
       x="286" />
    <circle
       fill="white"
       id="circle8"
       r="183"
       cy="225"
       cx="750" />
    <path
       id="path10"
       fill="white"
       d="M599.94 435.08L602.532 443.54C602.652 443.9 602.748 444.296 602.82 444.728C602.916 445.136 603 445.532 603.072 445.916C603.144 446.348 603.204 446.78 603.252 447.212H603.54C603.588 446.78 603.648 446.348 603.72 445.916C603.768 445.532 603.828 445.136 603.9 444.728C603.996 444.296 604.104 443.9 604.224 443.54L606.636 435.08H612.144V461H608.004V444.188C608.004 443.54 608.028 442.868 608.076 442.172C608.148 441.452 608.22 440.804 608.292 440.228C608.364 439.532 608.448 438.86 608.544 438.212H608.112C607.968 438.836 607.824 439.46 607.68 440.084C607.56 440.636 607.416 441.212 607.248 441.812C607.104 442.412 606.96 442.952 606.816 443.432L605.052 449.804H601.596L599.724 443.432C599.556 442.904 599.388 442.34 599.22 441.74C599.076 441.14 598.944 440.576 598.824 440.048C598.68 439.424 598.548 438.812 598.428 438.212H598.032C598.128 438.86 598.224 439.532 598.32 440.228C598.368 440.804 598.416 441.452 598.464 442.172C598.536 442.868 598.572 443.54 598.572 444.188V461H594.468V435.08H599.94ZM615.802 455.456C615.802 454.472 615.982 453.596 616.342 452.828C616.702 452.036 617.218 451.364 617.89 450.812C618.562 450.26 619.366 449.84 620.302 449.552C621.262 449.24 622.33 449.084 623.506 449.084H628.51V447.392C628.51 446.48 628.162 445.76 627.466 445.232C626.794 444.68 625.846 444.404 624.622 444.404C623.638 444.404 622.798 444.584 622.102 444.944C621.43 445.304 620.998 445.796 620.806 446.42H616.414C616.558 445.556 616.858 444.788 617.314 444.116C617.77 443.42 618.358 442.832 619.078 442.352C619.798 441.872 620.626 441.5 621.562 441.236C622.522 440.972 623.554 440.84 624.658 440.84C625.93 440.84 627.082 440.996 628.114 441.308C629.146 441.596 630.022 442.028 630.742 442.604C631.462 443.156 632.014 443.84 632.398 444.656C632.806 445.448 633.01 446.336 633.01 447.32V461H628.762V457.112H628.438C628.222 458.408 627.55 459.44 626.422 460.208C625.294 460.976 623.878 461.36 622.174 461.36C620.23 461.36 618.682 460.832 617.53 459.776C616.378 458.696 615.802 457.256 615.802 455.456ZM620.302 454.916C620.302 455.828 620.602 456.548 621.202 457.076C621.826 457.58 622.69 457.832 623.794 457.832C625.162 457.832 626.29 457.508 627.178 456.86C628.066 456.188 628.51 455.348 628.51 454.34V452.036H623.542C622.534 452.036 621.742 452.288 621.166 452.792C620.59 453.296 620.302 454.004 620.302 454.916ZM642.968 435.08V449.012H646.172L651.104 441.2H656.144L650.024 450.848L656.252 461H651.104L646.136 452.864H642.968V461H638.468V435.08H642.968ZM660.234 456.896H667.326V445.268H661.134V441.2H671.61V456.896H677.37V461H660.234V456.896ZM666.246 435.872C666.246 435.152 666.474 434.576 666.93 434.144C667.386 433.688 667.998 433.46 668.766 433.46H669.486C670.254 433.46 670.878 433.688 671.358 434.144C671.838 434.576 672.078 435.152 672.078 435.872C672.078 436.592 671.838 437.168 671.358 437.6C670.878 438.008 670.254 438.212 669.486 438.212H668.766C667.998 438.212 667.386 437.996 666.93 437.564C666.474 437.132 666.246 436.568 666.246 435.872ZM681.424 441.2H685.672V444.62H685.996C686.236 443.396 686.812 442.46 687.724 441.812C688.636 441.164 689.812 440.84 691.252 440.84C693.292 440.84 694.888 441.5 696.04 442.82C697.192 444.14 697.768 445.892 697.768 448.076V461H693.268V448.616C693.268 447.392 692.944 446.444 692.296 445.772C691.648 445.076 690.76 444.728 689.632 444.728C688.48 444.728 687.568 445.088 686.896 445.808C686.248 446.504 685.924 447.464 685.924 448.688V461H681.424V441.2ZM702.506 448.508C702.506 447.356 702.662 446.312 702.974 445.376C703.31 444.416 703.766 443.6 704.342 442.928C704.942 442.256 705.662 441.74 706.502 441.38C707.366 441.02 708.314 440.84 709.346 440.84C710.834 440.84 712.058 441.2 713.018 441.92C714.002 442.616 714.602 443.576 714.818 444.8H715.07V441.2H719.39V459.884C719.39 460.988 719.198 461.984 718.814 462.872C718.43 463.76 717.878 464.516 717.158 465.14C716.438 465.788 715.574 466.28 714.566 466.616C713.558 466.952 712.418 467.12 711.146 467.12H705.854V463.376H711.146C712.298 463.376 713.21 463.064 713.882 462.44C714.554 461.816 714.89 460.964 714.89 459.884V459.38L715.07 455.636H714.818C714.578 456.86 713.978 457.832 713.018 458.552C712.058 459.248 710.834 459.596 709.346 459.596C708.314 459.596 707.378 459.416 706.538 459.056C705.698 458.696 704.978 458.18 704.378 457.508C703.778 456.836 703.31 456.032 702.974 455.096C702.662 454.136 702.506 453.08 702.506 451.928V448.508ZM707.042 451.82C707.042 453.044 707.39 454.004 708.086 454.7C708.782 455.372 709.742 455.708 710.966 455.708C712.19 455.708 713.15 455.36 713.846 454.664C714.542 453.968 714.89 453.02 714.89 451.82V448.616C714.89 447.416 714.542 446.468 713.846 445.772C713.15 445.076 712.19 444.728 710.966 444.728C709.742 444.728 708.782 445.076 708.086 445.772C707.39 446.444 707.042 447.392 707.042 448.616V451.82ZM745.318 455.456C745.318 454.472 745.498 453.596 745.858 452.828C746.218 452.036 746.734 451.364 747.406 450.812C748.078 450.26 748.882 449.84 749.818 449.552C750.778 449.24 751.846 449.084 753.022 449.084H758.026V447.392C758.026 446.48 757.678 445.76 756.982 445.232C756.31 444.68 755.362 444.404 754.138 444.404C753.154 444.404 752.314 444.584 751.618 444.944C750.946 445.304 750.514 445.796 750.322 446.42H745.93C746.074 445.556 746.374 444.788 746.83 444.116C747.286 443.42 747.874 442.832 748.594 442.352C749.314 441.872 750.142 441.5 751.078 441.236C752.038 440.972 753.07 440.84 754.174 440.84C755.446 440.84 756.598 440.996 757.63 441.308C758.662 441.596 759.538 442.028 760.258 442.604C760.978 443.156 761.53 443.84 761.914 444.656C762.322 445.448 762.526 446.336 762.526 447.32V461H758.278V457.112H757.954C757.738 458.408 757.066 459.44 755.938 460.208C754.81 460.976 753.394 461.36 751.69 461.36C749.746 461.36 748.198 460.832 747.046 459.776C745.894 458.696 745.318 457.256 745.318 455.456ZM749.818 454.916C749.818 455.828 750.118 456.548 750.718 457.076C751.342 457.58 752.206 457.832 753.31 457.832C754.678 457.832 755.806 457.508 756.694 456.86C757.582 456.188 758.026 455.348 758.026 454.34V452.036H753.058C752.05 452.036 751.258 452.288 750.682 452.792C750.106 453.296 749.818 454.004 749.818 454.916ZM765.824 441.2H769.64L771.152 453.512C771.2 453.944 771.236 454.448 771.26 455.024C771.308 455.6 771.344 456.152 771.368 456.68C771.392 457.304 771.404 457.928 771.404 458.552H771.908C771.956 457.928 772.004 457.304 772.052 456.68C772.1 456.152 772.148 455.6 772.196 455.024C772.268 454.448 772.34 453.944 772.412 453.512L774.356 441.2H777.668L779.612 453.512C779.684 453.968 779.744 454.484 779.792 455.06C779.84 455.636 779.888 456.188 779.936 456.716C779.96 457.316 779.984 457.928 780.008 458.552H780.512C780.536 457.928 780.572 457.316 780.62 456.716C780.668 456.188 780.704 455.636 780.728 455.06C780.776 454.484 780.824 453.968 780.872 453.512L782.42 441.2H786.128L783.428 461H778.28L776.444 448.22C776.396 447.86 776.36 447.44 776.336 446.96C776.312 446.456 776.288 445.988 776.264 445.556C776.24 445.028 776.228 444.5 776.228 443.972H775.796C775.796 444.5 775.784 445.028 775.76 445.556C775.736 445.988 775.712 446.456 775.688 446.96C775.664 447.44 775.616 447.86 775.544 448.22L773.6 461H768.488L765.824 441.2ZM788.958 448.652C788.958 447.452 789.162 446.372 789.57 445.412C789.978 444.452 790.554 443.636 791.298 442.964C792.042 442.292 792.942 441.776 793.998 441.416C795.078 441.032 796.266 440.84 797.562 440.84C798.858 440.84 800.022 441.032 801.054 441.416C802.11 441.776 803.01 442.304 803.754 443C804.522 443.672 805.11 444.5 805.518 445.484C805.926 446.444 806.13 447.512 806.13 448.688V452.216H793.314V453.512C793.314 454.856 793.698 455.912 794.466 456.68C795.234 457.424 796.266 457.796 797.562 457.796C798.546 457.796 799.386 457.64 800.082 457.328C800.778 456.992 801.258 456.548 801.522 455.996H805.986C805.77 456.812 805.41 457.556 804.906 458.228C804.402 458.876 803.778 459.44 803.034 459.92C802.29 460.376 801.45 460.736 800.514 461C799.602 461.24 798.618 461.36 797.562 461.36C796.266 461.36 795.09 461.18 794.034 460.82C792.978 460.436 792.066 459.908 791.298 459.236C790.554 458.54 789.978 457.712 789.57 456.752C789.162 455.768 788.958 454.688 788.958 453.512V448.652ZM797.562 444.404C796.266 444.404 795.234 444.788 794.466 445.556C793.698 446.324 793.314 447.356 793.314 448.652V449.228H801.774V448.688C801.774 447.368 801.402 446.324 800.658 445.556C799.914 444.788 798.882 444.404 797.562 444.404ZM810.436 455.924H815.044C815.212 456.548 815.596 457.04 816.196 457.4C816.796 457.736 817.528 457.904 818.392 457.904H819.868C820.972 457.904 821.824 457.688 822.424 457.256C823.048 456.824 823.36 456.224 823.36 455.456C823.36 454.088 822.34 453.284 820.3 453.044L817.492 452.684C815.236 452.42 813.568 451.808 812.488 450.848C811.408 449.864 810.868 448.484 810.868 446.708C810.868 444.836 811.528 443.396 812.848 442.388C814.168 441.356 816.04 440.84 818.464 440.84H819.94C822.124 440.84 823.876 441.308 825.196 442.244C826.54 443.156 827.332 444.44 827.572 446.096H822.964C822.844 445.544 822.508 445.112 821.956 444.8C821.428 444.464 820.756 444.296 819.94 444.296H818.464C817.456 444.296 816.676 444.488 816.124 444.872C815.572 445.232 815.296 445.796 815.296 446.564C815.296 447.812 816.184 448.556 817.96 448.796L820.876 449.156C823.228 449.444 824.968 450.092 826.096 451.1C827.224 452.084 827.788 453.488 827.788 455.312C827.788 457.256 827.104 458.756 825.736 459.812C824.368 460.844 822.412 461.36 819.868 461.36H818.392C816.088 461.36 814.24 460.892 812.848 459.956C811.456 458.996 810.652 457.652 810.436 455.924ZM840.734 461.36C839.438 461.36 838.25 461.168 837.17 460.784C836.114 460.4 835.214 459.872 834.47 459.2C833.726 458.504 833.15 457.676 832.742 456.716C832.334 455.756 832.13 454.688 832.13 453.512V448.652C832.13 447.476 832.334 446.408 832.742 445.448C833.15 444.488 833.726 443.672 834.47 443C835.214 442.304 836.114 441.776 837.17 441.416C838.25 441.032 839.438 440.84 840.734 440.84C842.03 440.84 843.206 441.032 844.262 441.416C845.342 441.776 846.254 442.304 846.998 443C847.742 443.672 848.318 444.488 848.726 445.448C849.134 446.408 849.338 447.476 849.338 448.652V453.512C849.338 454.688 849.134 455.768 848.726 456.752C848.318 457.712 847.742 458.54 846.998 459.236C846.254 459.908 845.354 460.436 844.298 460.82C843.242 461.18 842.054 461.36 840.734 461.36ZM836.63 453.512C836.63 454.712 836.99 455.66 837.71 456.356C838.454 457.052 839.462 457.4 840.734 457.4C842.006 457.4 843.002 457.052 843.722 456.356C844.466 455.66 844.838 454.712 844.838 453.512V448.652C844.838 447.452 844.466 446.504 843.722 445.808C843.002 445.112 842.006 444.764 840.734 444.764C839.462 444.764 838.454 445.112 837.71 445.808C836.99 446.504 836.63 447.452 836.63 448.652V453.512ZM856.92 441.2V444.08H857.244C857.316 443.072 857.64 442.28 858.216 441.704C858.792 441.128 859.572 440.84 860.556 440.84C861.468 440.84 862.176 441.116 862.68 441.668C863.184 442.22 863.544 443.024 863.76 444.08H864.048C864.12 443.072 864.444 442.28 865.02 441.704C865.596 441.128 866.376 440.84 867.36 440.84C868.56 440.84 869.532 441.284 870.276 442.172C871.02 443.06 871.392 444.296 871.392 445.88V461H867.396V446.24C867.396 444.752 866.832 444.008 865.704 444.008C864.528 444.008 863.94 444.776 863.94 446.312V461H860.7V446.24C860.7 444.752 860.112 444.008 858.936 444.008C857.832 444.008 857.28 444.776 857.28 446.312V461H853.284V441.2H856.92ZM875.301 448.652C875.301 447.452 875.505 446.372 875.913 445.412C876.321 444.452 876.897 443.636 877.641 442.964C878.385 442.292 879.285 441.776 880.341 441.416C881.421 441.032 882.609 440.84 883.905 440.84C885.201 440.84 886.365 441.032 887.397 441.416C888.453 441.776 889.353 442.304 890.097 443C890.865 443.672 891.453 444.5 891.861 445.484C892.269 446.444 892.473 447.512 892.473 448.688V452.216H879.657V453.512C879.657 454.856 880.041 455.912 880.809 456.68C881.577 457.424 882.609 457.796 883.905 457.796C884.889 457.796 885.729 457.64 886.425 457.328C887.121 456.992 887.601 456.548 887.865 455.996H892.329C892.113 456.812 891.753 457.556 891.249 458.228C890.745 458.876 890.121 459.44 889.377 459.92C888.633 460.376 887.793 460.736 886.857 461C885.945 461.24 884.961 461.36 883.905 461.36C882.609 461.36 881.433 461.18 880.377 460.82C879.321 460.436 878.409 459.908 877.641 459.236C876.897 458.54 876.321 457.712 875.913 456.752C875.505 455.768 875.301 454.688 875.301 453.512V448.652ZM883.905 444.404C882.609 444.404 881.577 444.788 880.809 445.556C880.041 446.324 879.657 447.356 879.657 448.652V449.228H888.117V448.688C888.117 447.368 887.745 446.324 887.001 445.556C886.257 444.788 885.225 444.404 883.905 444.404ZM923.369 441.2V435.08H927.869V441.2H935.393V445.268H927.869V454.88C927.869 455.504 928.061 456.008 928.445 456.392C928.829 456.752 929.345 456.932 929.993 456.932H935.033V461H929.669C927.725 461 926.189 460.448 925.061 459.344C923.933 458.24 923.369 456.752 923.369 454.88V445.268H917.933V441.2H923.369ZM940.455 435.08H944.955V441.2C944.955 441.56 944.943 441.944 944.919 442.352C944.895 442.736 944.859 443.096 944.811 443.432C944.787 443.768 944.763 444.056 944.739 444.296C944.715 444.512 944.703 444.62 944.703 444.62H945.027C945.267 443.42 945.843 442.496 946.755 441.848C947.667 441.176 948.843 440.84 950.283 440.84C952.275 440.84 953.859 441.488 955.035 442.784C956.211 444.08 956.799 445.844 956.799 448.076V461H952.299V448.616C952.299 447.392 951.975 446.444 951.327 445.772C950.679 445.076 949.791 444.728 948.663 444.728C947.511 444.728 946.599 445.088 945.927 445.808C945.279 446.504 944.955 447.464 944.955 448.688V461H940.455V435.08ZM962.437 456.896H969.529V445.268H963.337V441.2H973.813V456.896H979.573V461H962.437V456.896ZM968.449 435.872C968.449 435.152 968.677 434.576 969.133 434.144C969.589 433.688 970.201 433.46 970.969 433.46H971.689C972.457 433.46 973.081 433.688 973.561 434.144C974.041 434.576 974.281 435.152 974.281 435.872C974.281 436.592 974.041 437.168 973.561 437.6C973.081 438.008 972.457 438.212 971.689 438.212H970.969C970.201 438.212 969.589 437.996 969.133 437.564C968.677 437.132 968.449 436.568 968.449 435.872ZM983.627 441.2H987.875V444.62H988.199C988.439 443.396 989.015 442.46 989.927 441.812C990.839 441.164 992.015 440.84 993.455 440.84C995.495 440.84 997.091 441.5 998.243 442.82C999.395 444.14 999.971 445.892 999.971 448.076V461H995.471V448.616C995.471 447.392 995.147 446.444 994.499 445.772C993.851 445.076 992.963 444.728 991.835 444.728C990.683 444.728 989.771 445.088 989.099 445.808C988.451 446.504 988.127 447.464 988.127 448.688V461H983.627V441.2ZM1004.71 448.508C1004.71 447.356 1004.87 446.312 1005.18 445.376C1005.51 444.416 1005.97 443.6 1006.55 442.928C1007.15 442.256 1007.87 441.74 1008.71 441.38C1009.57 441.02 1010.52 440.84 1011.55 440.84C1013.04 440.84 1014.26 441.2 1015.22 441.92C1016.21 442.616 1016.81 443.576 1017.02 444.8H1017.27V441.2H1021.59V459.884C1021.59 460.988 1021.4 461.984 1021.02 462.872C1020.63 463.76 1020.08 464.516 1019.36 465.14C1018.64 465.788 1017.78 466.28 1016.77 466.616C1015.76 466.952 1014.62 467.12 1013.35 467.12H1008.06V463.376H1013.35C1014.5 463.376 1015.41 463.064 1016.09 462.44C1016.76 461.816 1017.09 460.964 1017.09 459.884V459.38L1017.27 455.636H1017.02C1016.78 456.86 1016.18 457.832 1015.22 458.552C1014.26 459.248 1013.04 459.596 1011.55 459.596C1010.52 459.596 1009.58 459.416 1008.74 459.056C1007.9 458.696 1007.18 458.18 1006.58 457.508C1005.98 456.836 1005.51 456.032 1005.18 455.096C1004.87 454.136 1004.71 453.08 1004.71 451.928V448.508ZM1009.25 451.82C1009.25 453.044 1009.59 454.004 1010.29 454.7C1010.99 455.372 1011.95 455.708 1013.17 455.708C1014.39 455.708 1015.35 455.36 1016.05 454.664C1016.75 453.968 1017.09 453.02 1017.09 451.82V448.616C1017.09 447.416 1016.75 446.468 1016.05 445.772C1015.35 445.076 1014.39 444.728 1013.17 444.728C1011.95 444.728 1010.99 445.076 1010.29 445.772C1009.59 446.444 1009.25 447.392 1009.25 448.616V451.82ZM1026.3 455.924H1030.9C1031.07 456.548 1031.46 457.04 1032.06 457.4C1032.66 457.736 1033.39 457.904 1034.25 457.904H1035.73C1036.83 457.904 1037.68 457.688 1038.28 457.256C1038.91 456.824 1039.22 456.224 1039.22 455.456C1039.22 454.088 1038.2 453.284 1036.16 453.044L1033.35 452.684C1031.1 452.42 1029.43 451.808 1028.35 450.848C1027.27 449.864 1026.73 448.484 1026.73 446.708C1026.73 444.836 1027.39 443.396 1028.71 442.388C1030.03 441.356 1031.9 440.84 1034.32 440.84H1035.8C1037.98 440.84 1039.74 441.308 1041.06 442.244C1042.4 443.156 1043.19 444.44 1043.43 446.096H1038.82C1038.7 445.544 1038.37 445.112 1037.82 444.8C1037.29 444.464 1036.62 444.296 1035.8 444.296H1034.32C1033.32 444.296 1032.54 444.488 1031.98 444.872C1031.43 445.232 1031.16 445.796 1031.16 446.564C1031.16 447.812 1032.04 448.556 1033.82 448.796L1036.74 449.156C1039.09 449.444 1040.83 450.092 1041.96 451.1C1043.08 452.084 1043.65 453.488 1043.65 455.312C1043.65 457.256 1042.96 458.756 1041.6 459.812C1040.23 460.844 1038.27 461.36 1035.73 461.36H1034.25C1031.95 461.36 1030.1 460.892 1028.71 459.956C1027.32 458.996 1026.51 457.652 1026.3 455.924ZM1069.29 447.464V443.396H1074.76V440.768C1074.76 439.904 1074.9 439.124 1075.19 438.428C1075.5 437.732 1075.93 437.132 1076.49 436.628C1077.04 436.124 1077.7 435.74 1078.47 435.476C1079.23 435.212 1080.1 435.08 1081.06 435.08H1086.85V439.04H1081.17C1080.57 439.04 1080.1 439.208 1079.76 439.544C1079.43 439.856 1079.26 440.288 1079.26 440.84V443.396H1086.85V447.464H1079.26V461H1074.76V447.464H1069.29ZM1099.76 461.36C1098.47 461.36 1097.28 461.168 1096.2 460.784C1095.14 460.4 1094.24 459.872 1093.5 459.2C1092.76 458.504 1092.18 457.676 1091.77 456.716C1091.36 455.756 1091.16 454.688 1091.16 453.512V448.652C1091.16 447.476 1091.36 446.408 1091.77 445.448C1092.18 444.488 1092.76 443.672 1093.5 443C1094.24 442.304 1095.14 441.776 1096.2 441.416C1097.28 441.032 1098.47 440.84 1099.76 440.84C1101.06 440.84 1102.24 441.032 1103.29 441.416C1104.37 441.776 1105.28 442.304 1106.03 443C1106.77 443.672 1107.35 444.488 1107.76 445.448C1108.16 446.408 1108.37 447.476 1108.37 448.652V453.512C1108.37 454.688 1108.16 455.768 1107.76 456.752C1107.35 457.712 1106.77 458.54 1106.03 459.236C1105.28 459.908 1104.38 460.436 1103.33 460.82C1102.27 461.18 1101.08 461.36 1099.76 461.36ZM1095.66 453.512C1095.66 454.712 1096.02 455.66 1096.74 456.356C1097.48 457.052 1098.49 457.4 1099.76 457.4C1101.04 457.4 1102.03 457.052 1102.75 456.356C1103.5 455.66 1103.87 454.712 1103.87 453.512V448.652C1103.87 447.452 1103.5 446.504 1102.75 445.808C1102.03 445.112 1101.04 444.764 1099.76 444.764C1098.49 444.764 1097.48 445.112 1096.74 445.808C1096.02 446.504 1095.66 447.452 1095.66 448.652V453.512ZM1118.18 441.2V444.62H1118.58C1118.84 443.42 1119.44 442.496 1120.38 441.848C1121.34 441.176 1122.55 440.84 1124.01 440.84C1126.15 440.84 1127.82 441.512 1129.02 442.856C1130.22 444.176 1130.82 446 1130.82 448.328V449.732H1126.1V448.688C1126.1 447.416 1125.75 446.432 1125.06 445.736C1124.36 445.016 1123.4 444.656 1122.18 444.656C1121.03 444.656 1120.11 445.028 1119.44 445.772C1118.77 446.492 1118.43 447.464 1118.43 448.688V461H1113.93V441.2H1118.18ZM1155.45 455.456C1155.45 454.472 1155.63 453.596 1155.99 452.828C1156.35 452.036 1156.87 451.364 1157.54 450.812C1158.21 450.26 1159.01 449.84 1159.95 449.552C1160.91 449.24 1161.98 449.084 1163.15 449.084H1168.16V447.392C1168.16 446.48 1167.81 445.76 1167.11 445.232C1166.44 444.68 1165.49 444.404 1164.27 444.404C1163.29 444.404 1162.45 444.584 1161.75 444.944C1161.08 445.304 1160.65 445.796 1160.45 446.42H1156.06C1156.21 445.556 1156.51 444.788 1156.96 444.116C1157.42 443.42 1158.01 442.832 1158.73 442.352C1159.45 441.872 1160.27 441.5 1161.21 441.236C1162.17 440.972 1163.2 440.84 1164.31 440.84C1165.58 440.84 1166.73 440.996 1167.76 441.308C1168.79 441.596 1169.67 442.028 1170.39 442.604C1171.11 443.156 1171.66 443.84 1172.05 444.656C1172.45 445.448 1172.66 446.336 1172.66 447.32V461H1168.41V457.112H1168.09C1167.87 458.408 1167.2 459.44 1166.07 460.208C1164.94 460.976 1163.53 461.36 1161.82 461.36C1159.88 461.36 1158.33 460.832 1157.18 459.776C1156.03 458.696 1155.45 457.256 1155.45 455.456ZM1159.95 454.916C1159.95 455.828 1160.25 456.548 1160.85 457.076C1161.47 457.58 1162.34 457.832 1163.44 457.832C1164.81 457.832 1165.94 457.508 1166.83 456.86C1167.71 456.188 1168.16 455.348 1168.16 454.34V452.036H1163.19C1162.18 452.036 1161.39 452.288 1160.81 452.792C1160.24 453.296 1159.95 454.004 1159.95 454.916ZM1175.96 441.2H1179.77L1181.28 453.512C1181.33 453.944 1181.37 454.448 1181.39 455.024C1181.44 455.6 1181.48 456.152 1181.5 456.68C1181.52 457.304 1181.54 457.928 1181.54 458.552H1182.04C1182.09 457.928 1182.14 457.304 1182.18 456.68C1182.23 456.152 1182.28 455.6 1182.33 455.024C1182.4 454.448 1182.47 453.944 1182.54 453.512L1184.49 441.2H1187.8L1189.74 453.512C1189.82 453.968 1189.88 454.484 1189.92 455.06C1189.97 455.636 1190.02 456.188 1190.07 456.716C1190.09 457.316 1190.12 457.928 1190.14 458.552H1190.64C1190.67 457.928 1190.7 457.316 1190.75 456.716C1190.8 456.188 1190.84 455.636 1190.86 455.06C1190.91 454.484 1190.96 453.968 1191 453.512L1192.55 441.2H1196.26L1193.56 461H1188.41L1186.58 448.22C1186.53 447.86 1186.49 447.44 1186.47 446.96C1186.44 446.456 1186.42 445.988 1186.4 445.556C1186.37 445.028 1186.36 444.5 1186.36 443.972H1185.93C1185.93 444.5 1185.92 445.028 1185.89 445.556C1185.87 445.988 1185.84 446.456 1185.82 446.96C1185.8 447.44 1185.75 447.86 1185.68 448.22L1183.73 461H1178.62L1175.96 441.2ZM1199.09 448.652C1199.09 447.452 1199.29 446.372 1199.7 445.412C1200.11 444.452 1200.69 443.636 1201.43 442.964C1202.17 442.292 1203.07 441.776 1204.13 441.416C1205.21 441.032 1206.4 440.84 1207.69 440.84C1208.99 440.84 1210.15 441.032 1211.19 441.416C1212.24 441.776 1213.14 442.304 1213.89 443C1214.65 443.672 1215.24 444.5 1215.65 445.484C1216.06 446.444 1216.26 447.512 1216.26 448.688V452.216H1203.45V453.512C1203.45 454.856 1203.83 455.912 1204.6 456.68C1205.37 457.424 1206.4 457.796 1207.69 457.796C1208.68 457.796 1209.52 457.64 1210.21 457.328C1210.91 456.992 1211.39 456.548 1211.65 455.996H1216.12C1215.9 456.812 1215.54 457.556 1215.04 458.228C1214.53 458.876 1213.91 459.44 1213.17 459.92C1212.42 460.376 1211.58 460.736 1210.65 461C1209.73 461.24 1208.75 461.36 1207.69 461.36C1206.4 461.36 1205.22 461.18 1204.17 460.82C1203.11 460.436 1202.2 459.908 1201.43 459.236C1200.69 458.54 1200.11 457.712 1199.7 456.752C1199.29 455.768 1199.09 454.688 1199.09 453.512V448.652ZM1207.69 444.404C1206.4 444.404 1205.37 444.788 1204.6 445.556C1203.83 446.324 1203.45 447.356 1203.45 448.652V449.228H1211.91V448.688C1211.91 447.368 1211.53 446.324 1210.79 445.556C1210.05 444.788 1209.01 444.404 1207.69 444.404ZM1220.57 455.924H1225.18C1225.34 456.548 1225.73 457.04 1226.33 457.4C1226.93 457.736 1227.66 457.904 1228.52 457.904H1230C1231.1 457.904 1231.96 457.688 1232.56 457.256C1233.18 456.824 1233.49 456.224 1233.49 455.456C1233.49 454.088 1232.47 453.284 1230.43 453.044L1227.62 452.684C1225.37 452.42 1223.7 451.808 1222.62 450.848C1221.54 449.864 1221 448.484 1221 446.708C1221 444.836 1221.66 443.396 1222.98 442.388C1224.3 441.356 1226.17 440.84 1228.6 440.84H1230.07C1232.26 440.84 1234.01 441.308 1235.33 442.244C1236.67 443.156 1237.46 444.44 1237.7 446.096H1233.1C1232.98 445.544 1232.64 445.112 1232.09 444.8C1231.56 444.464 1230.89 444.296 1230.07 444.296H1228.6C1227.59 444.296 1226.81 444.488 1226.26 444.872C1225.7 445.232 1225.43 445.796 1225.43 446.564C1225.43 447.812 1226.32 448.556 1228.09 448.796L1231.01 449.156C1233.36 449.444 1235.1 450.092 1236.23 451.1C1237.36 452.084 1237.92 453.488 1237.92 455.312C1237.92 457.256 1237.24 458.756 1235.87 459.812C1234.5 460.844 1232.54 461.36 1230 461.36H1228.52C1226.22 461.36 1224.37 460.892 1222.98 459.956C1221.59 458.996 1220.78 457.652 1220.57 455.924ZM1250.87 461.36C1249.57 461.36 1248.38 461.168 1247.3 460.784C1246.25 460.4 1245.35 459.872 1244.6 459.2C1243.86 458.504 1243.28 457.676 1242.87 456.716C1242.47 455.756 1242.26 454.688 1242.26 453.512V448.652C1242.26 447.476 1242.47 446.408 1242.87 445.448C1243.28 444.488 1243.86 443.672 1244.6 443C1245.35 442.304 1246.25 441.776 1247.3 441.416C1248.38 441.032 1249.57 440.84 1250.87 440.84C1252.16 440.84 1253.34 441.032 1254.39 441.416C1255.47 441.776 1256.39 442.304 1257.13 443C1257.87 443.672 1258.45 444.488 1258.86 445.448C1259.27 446.408 1259.47 447.476 1259.47 448.652V453.512C1259.47 454.688 1259.27 455.768 1258.86 456.752C1258.45 457.712 1257.87 458.54 1257.13 459.236C1256.39 459.908 1255.49 460.436 1254.43 460.82C1253.37 461.18 1252.19 461.36 1250.87 461.36ZM1246.76 453.512C1246.76 454.712 1247.12 455.66 1247.84 456.356C1248.59 457.052 1249.59 457.4 1250.87 457.4C1252.14 457.4 1253.13 457.052 1253.85 456.356C1254.6 455.66 1254.97 454.712 1254.97 453.512V448.652C1254.97 447.452 1254.6 446.504 1253.85 445.808C1253.13 445.112 1252.14 444.764 1250.87 444.764C1249.59 444.764 1248.59 445.112 1247.84 445.808C1247.12 446.504 1246.76 447.452 1246.76 448.652V453.512ZM1267.05 441.2V444.08H1267.38C1267.45 443.072 1267.77 442.28 1268.35 441.704C1268.92 441.128 1269.7 440.84 1270.69 440.84C1271.6 440.84 1272.31 441.116 1272.81 441.668C1273.32 442.22 1273.68 443.024 1273.89 444.08H1274.18C1274.25 443.072 1274.58 442.28 1275.15 441.704C1275.73 441.128 1276.51 440.84 1277.49 440.84C1278.69 440.84 1279.66 441.284 1280.41 442.172C1281.15 443.06 1281.52 444.296 1281.52 445.88V461H1277.53V446.24C1277.53 444.752 1276.96 444.008 1275.84 444.008C1274.66 444.008 1274.07 444.776 1274.07 446.312V461H1270.83V446.24C1270.83 444.752 1270.24 444.008 1269.07 444.008C1267.96 444.008 1267.41 444.776 1267.41 446.312V461H1263.42V441.2H1267.05ZM1285.43 448.652C1285.43 447.452 1285.64 446.372 1286.05 445.412C1286.45 444.452 1287.03 443.636 1287.77 442.964C1288.52 442.292 1289.42 441.776 1290.47 441.416C1291.55 441.032 1292.74 440.84 1294.04 440.84C1295.33 440.84 1296.5 441.032 1297.53 441.416C1298.59 441.776 1299.49 442.304 1300.23 443C1301 443.672 1301.59 444.5 1301.99 445.484C1302.4 446.444 1302.61 447.512 1302.61 448.688V452.216H1289.79V453.512C1289.79 454.856 1290.17 455.912 1290.94 456.68C1291.71 457.424 1292.74 457.796 1294.04 457.796C1295.02 457.796 1295.86 457.64 1296.56 457.328C1297.25 456.992 1297.73 456.548 1298 455.996H1302.46C1302.25 456.812 1301.89 457.556 1301.38 458.228C1300.88 458.876 1300.25 459.44 1299.51 459.92C1298.77 460.376 1297.93 460.736 1296.99 461C1296.08 461.24 1295.09 461.36 1294.04 461.36C1292.74 461.36 1291.57 461.18 1290.51 460.82C1289.45 460.436 1288.54 459.908 1287.77 459.236C1287.03 458.54 1286.45 457.712 1286.05 456.752C1285.64 455.768 1285.43 454.688 1285.43 453.512V448.652ZM1294.04 444.404C1292.74 444.404 1291.71 444.788 1290.94 445.556C1290.17 446.324 1289.79 447.356 1289.79 448.652V449.228H1298.25V448.688C1298.25 447.368 1297.88 446.324 1297.13 445.556C1296.39 444.788 1295.36 444.404 1294.04 444.404ZM1329.04 441.2H1333.36V444.62H1333.68C1333.92 443.42 1334.51 442.496 1335.45 441.848C1336.38 441.176 1337.57 440.84 1339.01 440.84C1340.04 440.84 1340.98 441.02 1341.82 441.38C1342.66 441.74 1343.37 442.256 1343.94 442.928C1344.54 443.6 1345 444.416 1345.31 445.376C1345.65 446.312 1345.81 447.38 1345.81 448.58V453.512C1345.81 454.712 1345.65 455.804 1345.31 456.788C1345 457.748 1344.54 458.576 1343.94 459.272C1343.37 459.944 1342.66 460.46 1341.82 460.82C1340.98 461.18 1340.04 461.36 1339.01 461.36C1337.57 461.36 1336.38 461.024 1335.45 460.352C1334.51 459.68 1333.92 458.744 1333.68 457.544H1333.36C1333.36 457.616 1333.37 457.772 1333.39 458.012C1333.42 458.228 1333.44 458.504 1333.47 458.84C1333.49 459.176 1333.5 459.536 1333.5 459.92C1333.53 460.28 1333.54 460.64 1333.54 461V467.12H1329.04V441.2ZM1333.54 448.688V453.512C1333.54 454.688 1333.89 455.636 1334.58 456.356C1335.28 457.076 1336.21 457.436 1337.39 457.436C1338.61 457.436 1339.57 457.076 1340.27 456.356C1340.97 455.612 1341.31 454.628 1341.31 453.404V448.688C1341.31 447.464 1340.97 446.504 1340.27 445.808C1339.57 445.088 1338.61 444.728 1337.39 444.728C1336.24 444.728 1335.3 445.088 1334.58 445.808C1333.89 446.504 1333.54 447.464 1333.54 448.688ZM1350.19 448.652C1350.19 447.452 1350.4 446.372 1350.8 445.412C1351.21 444.452 1351.79 443.636 1352.53 442.964C1353.28 442.292 1354.18 441.776 1355.23 441.416C1356.31 441.032 1357.5 440.84 1358.8 440.84C1360.09 440.84 1361.26 441.032 1362.29 441.416C1363.34 441.776 1364.24 442.304 1364.99 443C1365.76 443.672 1366.34 444.5 1366.75 445.484C1367.16 446.444 1367.36 447.512 1367.36 448.688V452.216H1354.55V453.512C1354.55 454.856 1354.93 455.912 1355.7 456.68C1356.47 457.424 1357.5 457.796 1358.8 457.796C1359.78 457.796 1360.62 457.64 1361.32 457.328C1362.01 456.992 1362.49 456.548 1362.76 455.996H1367.22C1367 456.812 1366.64 457.556 1366.14 458.228C1365.64 458.876 1365.01 459.44 1364.27 459.92C1363.52 460.376 1362.68 460.736 1361.75 461C1360.84 461.24 1359.85 461.36 1358.8 461.36C1357.5 461.36 1356.32 461.18 1355.27 460.82C1354.21 460.436 1353.3 459.908 1352.53 459.236C1351.79 458.54 1351.21 457.712 1350.8 456.752C1350.4 455.768 1350.19 454.688 1350.19 453.512V448.652ZM1358.8 444.404C1357.5 444.404 1356.47 444.788 1355.7 445.556C1354.93 446.324 1354.55 447.356 1354.55 448.652V449.228H1363.01V448.688C1363.01 447.368 1362.64 446.324 1361.89 445.556C1361.15 444.788 1360.12 444.404 1358.8 444.404ZM1380.38 461.36C1379.09 461.36 1377.9 461.168 1376.82 460.784C1375.76 460.4 1374.86 459.872 1374.12 459.2C1373.37 458.504 1372.8 457.676 1372.39 456.716C1371.98 455.756 1371.78 454.688 1371.78 453.512V448.652C1371.78 447.476 1371.98 446.408 1372.39 445.448C1372.8 444.488 1373.37 443.672 1374.12 443C1374.86 442.304 1375.76 441.776 1376.82 441.416C1377.9 441.032 1379.09 440.84 1380.38 440.84C1381.68 440.84 1382.85 441.032 1383.91 441.416C1384.99 441.776 1385.9 442.304 1386.65 443C1387.39 443.672 1387.97 444.488 1388.37 445.448C1388.78 446.408 1388.99 447.476 1388.99 448.652V453.512C1388.99 454.688 1388.78 455.768 1388.37 456.752C1387.97 457.712 1387.39 458.54 1386.65 459.236C1385.9 459.908 1385 460.436 1383.95 460.82C1382.89 461.18 1381.7 461.36 1380.38 461.36ZM1376.28 453.512C1376.28 454.712 1376.64 455.66 1377.36 456.356C1378.1 457.052 1379.11 457.4 1380.38 457.4C1381.65 457.4 1382.65 457.052 1383.37 456.356C1384.11 455.66 1384.49 454.712 1384.49 453.512V448.652C1384.49 447.452 1384.11 446.504 1383.37 445.808C1382.65 445.112 1381.65 444.764 1380.38 444.764C1379.11 444.764 1378.1 445.112 1377.36 445.808C1376.64 446.504 1376.28 447.452 1376.28 448.652V453.512ZM1393.8 441.2H1398.12V444.62H1398.44C1398.68 443.42 1399.27 442.496 1400.2 441.848C1401.14 441.176 1402.33 440.84 1403.77 440.84C1404.8 440.84 1405.74 441.02 1406.58 441.38C1407.42 441.74 1408.12 442.256 1408.7 442.928C1409.3 443.6 1409.76 444.416 1410.07 445.376C1410.4 446.312 1410.57 447.38 1410.57 448.58V453.512C1410.57 454.712 1410.4 455.804 1410.07 456.788C1409.76 457.748 1409.3 458.576 1408.7 459.272C1408.12 459.944 1407.42 460.46 1406.58 460.82C1405.74 461.18 1404.8 461.36 1403.77 461.36C1402.33 461.36 1401.14 461.024 1400.2 460.352C1399.27 459.68 1398.68 458.744 1398.44 457.544H1398.12C1398.12 457.616 1398.13 457.772 1398.15 458.012C1398.18 458.228 1398.2 458.504 1398.22 458.84C1398.25 459.176 1398.26 459.536 1398.26 459.92C1398.28 460.28 1398.3 460.64 1398.3 461V467.12H1393.8V441.2ZM1398.3 448.688V453.512C1398.3 454.688 1398.64 455.636 1399.34 456.356C1400.04 457.076 1400.97 457.436 1402.15 457.436C1403.37 457.436 1404.33 457.076 1405.03 456.356C1405.72 455.612 1406.07 454.628 1406.07 453.404V448.688C1406.07 447.464 1405.72 446.504 1405.03 445.808C1404.33 445.088 1403.37 444.728 1402.15 444.728C1401 444.728 1400.06 445.088 1399.34 445.808C1398.64 446.504 1398.3 447.464 1398.3 448.688ZM1413.87 439.148V435.08H1424.67V454.412C1424.67 455.18 1424.89 455.792 1425.32 456.248C1425.77 456.704 1426.37 456.932 1427.12 456.932H1432.88V461H1426.83C1425.82 461 1424.91 460.844 1424.09 460.532C1423.28 460.22 1422.58 459.776 1422.01 459.2C1421.43 458.624 1420.97 457.928 1420.64 457.112C1420.33 456.296 1420.17 455.396 1420.17 454.412V439.148H1413.87ZM1436.54 448.652C1436.54 447.452 1436.74 446.372 1437.15 445.412C1437.56 444.452 1438.13 443.636 1438.88 442.964C1439.62 442.292 1440.52 441.776 1441.58 441.416C1442.66 441.032 1443.84 440.84 1445.14 440.84C1446.44 440.84 1447.6 441.032 1448.63 441.416C1449.69 441.776 1450.59 442.304 1451.33 443C1452.1 443.672 1452.69 444.5 1453.1 445.484C1453.5 446.444 1453.71 447.512 1453.71 448.688V452.216H1440.89V453.512C1440.89 454.856 1441.28 455.912 1442.04 456.68C1442.81 457.424 1443.84 457.796 1445.14 457.796C1446.12 457.796 1446.96 457.64 1447.66 457.328C1448.36 456.992 1448.84 456.548 1449.1 455.996H1453.56C1453.35 456.812 1452.99 457.556 1452.48 458.228C1451.98 458.876 1451.36 459.44 1450.61 459.92C1449.87 460.376 1449.03 460.736 1448.09 461C1447.18 461.24 1446.2 461.36 1445.14 461.36C1443.84 461.36 1442.67 461.18 1441.61 460.82C1440.56 460.436 1439.64 459.908 1438.88 459.236C1438.13 458.54 1437.56 457.712 1437.15 456.752C1436.74 455.768 1436.54 454.688 1436.54 453.512V448.652ZM1445.14 444.404C1443.84 444.404 1442.81 444.788 1442.04 445.556C1441.28 446.324 1440.89 447.356 1440.89 448.652V449.228H1449.35V448.688C1449.35 447.368 1448.98 446.324 1448.24 445.556C1447.49 444.788 1446.46 444.404 1445.14 444.404ZM1464.28 435.08H1469.17V440.012L1468.38 452.612H1465.07L1464.28 440.012V435.08ZM1463.7 458.84C1463.7 458.12 1463.93 457.544 1464.39 457.112C1464.87 456.656 1465.49 456.428 1466.26 456.428H1467.19C1467.96 456.428 1468.57 456.656 1469.03 457.112C1469.51 457.544 1469.75 458.12 1469.75 458.84C1469.75 459.56 1469.51 460.136 1469.03 460.568C1468.57 460.976 1467.95 461.18 1467.16 461.18H1466.26C1465.49 461.18 1464.87 460.964 1464.39 460.532C1463.93 460.1 1463.7 459.536 1463.7 458.84Z" />
     <g
       id="g32"
       clip-path="url(#clip1)">
    </g>
    <path
       id="path34"
       fill="white"
      <path
         class="bear__fur"
         d="m 243,894 c 0,61 -36,106 -94,106 -55,0 -92,-45 -92,-106 0,-61 38,-86 91,-86 53,0 95,25 95,86 z"
         id="path5562" />
      <path
         class="bear__muzzle"
         d="m 212,958 c 0,20 -29,39 -63,39 -35,0 -61,-19 -61,-39 0,-20 26,-33 61,-33 35,0 63,13 63,33 z"
         id="path5564" />
      <path
         class="bear__nose"
         d="m 181,932 c 0,7 -19,24 -30,24 -11,0 -32,-17 -32,-24 0,-8 20,-13 31,-13 12,0 31,5 31,13 z"
         id="path5566" />
      <ellipse
         class="bear__outer-ear"
         cx="68.300003"
         cy="827.70001"
         rx="23.799999"
         ry="23.1"
         id="ellipse5568" />
      <path
         class="bear__inner-ear"
         d="m 85,826 a 17,16 0 0 0 -17,-14 17,16 0 0 0 -16,16 17,16 0 0 0 16,16 17,16 0 0 0 1,0 l 3,-4 a 66,66 0 0 1 11,-12 z"
         id="path5570" />
      <ellipse
         class="bear__outer-ear"
         ry="23.1"
         rx="23.799999"
         cy="827.70001"
         cx="-231.2"
         transform="scale(-1,1)"
         id="ellipse5572" />
      <path
         class="bear__inner-ear"
         d="m 215,826 a 17,16 0 0 1 16,-14 17,16 0 0 1 17,16 17,16 0 0 1 -17,16 17,16 0 0 1 -1,0 l -2,-4 a 66,66 0 0 0 -11,-12 z"
         id="path5574" />
      <path
         class="bear__cap-strap"
         d="m 148,815 c -14,0 -26,1 -38,4 v 11 a 199,199 0 0 1 80,1 v -11 c -13,-3 -27,-5 -42,-5 z"
         id="path5576" />
      <path
         class="bear__small-cap-strap"
         d="m 165,816 a 16,8 0 0 1 5,5 16,8 0 0 1 -6,6 l 26,4 v -11 z"
         id="path5578" />
      <path
         class="bear__cap"
         d="m 148,789 c -43,0 -76,20 -83,64 12,-11 28,-19 45,-23 0,0 -2,-12 10,-16 15,-4 19,-4 28,-4 10,0 15,0 30,4 15,4 12,17 12,17 18,5 32,11 45,22 -8,-46 -43,-64 -87,-64 z"
         id="path5580" />
      <circle
         class="bear__eye"
         cx="97.199997"
         cy="894.09998"
         r="11.2"
         id="circle5582" />
      <circle
         class="bear__eye"
         cy="894.09998"
         cx="201.89999"
         r="11.2"
         id="circle5584" />
      <path
         style="fill:none;stroke:#e9afaf;stroke-width:3;stroke-linecap:round;stroke-linejoin:round"
         class="bear__eyebrows"
         d="m 97,864 a 21,21 0 0 1 -7,16 21,21 0 0 1 -16,5 m 130,-21 a 21,21 0 0 0 6,16 21,21 0 0 0 16,5"
         id="path5586" />
      <path
         class="shades-frame"
         d="m 77,855 c -6,0 -13,0 -23,2 l -14,3 2,15 7,2 c 3,5 1,10 2,18 3,28 12,34 26,35 8,1 23,3 33,-1 10,-4 19,-10 25,-18 6,-9 6,-18 10,-26 3,-5 8,-4 10,0 3,8 4,17 10,26 6,8 15,14 24,18 11,4 26,2 34,1 14,-1 23,-7 26,-35 1,-8 -2,-13 2,-18 l 7,-2 2,-15 -15,-3 c -15,-3 -23,-2 -34,-2 h -13 l -25,4 c -8,2 -15,7 -23,6 -8,0 -15,-5 -23,-6 l -25,-4 z"
         id="path5588" />
      <path
         style="fill:#333333"
         class="lens"
         d="m 85,860 c -10,1 -25,1 -28,13 -3,15 -3,32 6,45 7,11 23,9 35,9 19,-1 35,-16 40,-34 2,-8 4,-14 1,-19 -6,-10 -20,-12 -31,-13 z"
         id="path5590" />
      <path
         class="shades-dot"
         d="m 56,864 a 4,2 0 0 1 -4,2 4,2 0 0 1 -4,-2 4,2 0 0 1 4,-1 4,2 0 0 1 4,1"
         id="path5592" />
      <path
         style="fill:#333333"
         class="lens"
         d="m 215,860 c 10,1 24,1 28,13 3,15 3,32 -6,45 -7,11 -23,9 -35,9 -19,-1 -35,-16 -40,-34 -2,-8 -4,-14 -1,-19 6,-10 20,-12 31,-13 z"
         id="path5594" />
      <path
         class="shades-dot"
         d="m 244,864 a 4,2 0 0 0 4,2 4,2 0 0 0 4,-2 4,2 0 0 0 -4,-1 4,2 0 0 0 -4,1"
         id="path5596" />
      <g
         clip-path="url(#spec-left)"
         id="g5602">
        <use
           height="100%"
           width="100%"
           y="0"
           x="0"
           xlink:href="#code-block"
           id="use5598" />
        <use
           height="100%"
           width="100%"
           x="0"
           xlink:href="#code-block"
           y="283.5"
           id="use5600" />
      </g>
      <g
         clip-path="url(#spec-right)"
         id="g5608">
        <use
           height="100%"
           width="100%"
           y="0"
           x="0"
           xlink:href="#code-block"
           transform="translate(104)"
           id="use5604" />
        <use
           height="100%"
           width="100%"
           x="0"
           xlink:href="#code-block"
           transform="translate(104)"
           y="283.5"
           id="use5606" />
      </g>
      <path
         class="lens__shine"
         d="m 101,861 -19,66 h 17 l 18,-65 z m -12,-1 h -4 l -3,1 -18,59 6,5 z"
         id="path5610" />
    </g>
  </g>
  <defs
     id="defs48">
    <pattern
       height="1"
       width="1"
       patternContentUnits="objectBoundingBox"
       id="pattern0">
      <use
         id="use38"
         transform="scale(0.005)"
         xlink:href="#image0" />
    </pattern>
    <clipPath
       id="clip0">
      <rect
         id="rect41"
         fill="white"
         height="500"
         width="1500" />
    </clipPath>
    <clipPath
       id="clip1">
      <rect
         id="rect44"
         transform="translate(1261 188)"
         fill="white"
         height="50"
         width="50" />
    </clipPath>
    <style
       type="text/css"
       id="style5503">
         svg {
  --fur: #662900;
  --ear: #e4b89b;
  --cap-strap--large: #f00;
  --cap-strap--small: #900;
  --cap: #0d0d0d;
  --dots: rgba(242,242,242,0.6);
  --frame: #000;
  --shine: rgba(242,242,242,0.35);
  --lens: #595959;
  --code-one: rgba(128,230,25,0.5);
  --code-two: rgba(229,230,25,0.5);
  --code-three: rgba(230,25,128,0.5);
  --code-four: rgba(25,195,230,0.5);
}
.code-block {
  -webkit-animation: read 1s infinite linear;
          animation: read 1s infinite linear;
}
.code-block rect {
  fill: var(--code-one);
}
.code-block rect:nth-of-type(5) {
  fill: var(--code-four);
}
.code-block rect:nth-of-type(8),
.code-block rect:nth-of-type(9) {
  fill: var(--code-two);
}
.code-block rect:nth-of-type(12) {
  fill: var(--code-three);
}
.bear__fur,
.bear__outer-ear {
  fill: var(--fur);
}
.bear__inner-ear,
.bear__muzzle {
  fill: var(--ear);
}
.bear__cap-strap {
  fill: var(--cap-strap--large);
}
.bear__small-cap-strap {
  fill: var(--cap-strap--small);
}
.bear__cap {
  fill: var(--cap);
}
.lens {
  fill: var(--lens);
}
.lens__shine {
  fill: var(--shine);
}
.shades-dot {
  fill: var(--dots);
}
.bear__nose,
.shades-frame {
  fill: var(--frame);
}
@-webkit-keyframes read {
  to {
    -webkit-transform: translate(0, -283.5px);
            transform: translate(0, -283.5px);
  }
}
@keyframes read {
  to {
    -webkit-transform: translate(0, -283.5px);
            transform: translate(0, -283.5px);
  }
}
   </style>
    <g
       class="code-block"
       id="code-block">
      <rect
         ry="0"
         y="862"
         x="60"
         height="7.5"
         width="74"
         id="rect5505" />
      <rect
         ry="0"
         y="874"
         x="96"
         height="7.5"
         width="28"
         id="rect5507" />
      <rect
         width="54"
         height="7.5"
         x="60"
         y="886"
         ry="0"
         id="rect5509" />
      <rect
         ry="0"
         y="897"
         x="60"
         height="7.5"
         width="74"
         id="rect5511" />
      <rect
         width="56"
         height="7.5"
         x="78"
         y="909"
         ry="0"
         id="rect5513" />
      <rect
         ry="0"
         y="921"
         x="83"
         height="7.5"
         width="51"
         id="rect5515" />
      <rect
         width="51"
         height="7.5"
         x="73"
         y="932"
         ry="0"
         id="rect5517" />
      <rect
         ry="0"
         y="944"
         x="72"
         height="7.5"
         width="62"
         id="rect5519" />
      <rect
         width="74"
         height="7.5"
         x="60"
         y="956"
         ry="0"
         id="rect5521" />
      <rect
         ry="0"
         y="967"
         x="50"
         height="7.5"
         width="84"
         id="rect5523" />
      <rect
         width="64"
         height="7.5"
         x="60"
         y="979"
         ry="0"
         id="rect5525" />
      <rect
         ry="0"
         y="991"
         x="60"
         height="7.5"
         width="74"
         id="rect5527" />
      <rect
         width="41"
         height="7.5"
         x="93"
         y="1003"
         ry="0"
         id="rect5529" />
      <rect
         ry="0"
         y="1014"
         x="66"
         height="7.5"
         width="58"
         id="rect5531" />
      <rect
         width="58"
         height="7.5"
         x="56"
         y="1026"
         ry="0"
         id="rect5533" />
      <rect
         ry="0"
         y="1038"
         x="50"
         height="7.5"
         width="74"
         id="rect5535" />
      <rect
         width="46"
         height="7.5"
         x="88"
         y="1049"
         ry="0"
         id="rect5537" />
      <rect
         ry="0"
         y="1061"
         x="105"
         height="7.5"
         width="19"
         id="rect5539" />
      <rect
         width="38"
         height="7.5"
         x="96"
         y="1073"
         ry="0"
         id="rect5541" />
      <rect
         ry="0"
         y="1084"
         x="73"
         height="7.5"
         width="51"
         id="rect5543" />
      <rect
         ry="0"
         y="1096"
         x="88"
         height="7.5"
         width="26"
         id="rect5545" />
      <rect
         width="56"
         height="7.5"
         x="68"
         y="1108"
         ry="0"
         id="rect5547" />
      <rect
         ry="0"
         y="1120"
         x="100"
         height="7.5"
         width="24"
         id="rect5549" />
      <rect
         width="74"
         height="7.5"
         x="50"
         y="1131"
         ry="0"
         id="rect5551" />
    </g>
    <clipPath
       id="spec-left">
      <path
         d="M85 860c-10 1-25 1-28 13-3 15-3 32 6 45 7 11 23 9 35 9 19-1 35-16 40-34 2-8 4-14 1-19-6-10-20-12-31-13l-23-1z"
         fill="#333"
         id="path5554" />
    </clipPath>
    <clipPath
       id="spec-right">
      <path
         d="M215 860c10 1 24 1 28 13 3 15 3 32-6 45-7 11-23 9-35 9-19-1-35-16-40-34-2-8-4-14-1-19 6-10 20-12 31-13l23-1z"
         fill="#333"
         id="path5557" />
    </clipPath>
  </defs>
</svg>
