<?xml version="1.0" encoding="UTF-8" standalone="no"?>
<svg
   xmlns:dc="http://purl.org/dc/elements/1.1/"
   xmlns:cc="http://creativecommons.org/ns#"
   xmlns:rdf="http://www.w3.org/1999/02/22-rdf-syntax-ns#"
   xmlns:svg="http://www.w3.org/2000/svg"
   xmlns="http://www.w3.org/2000/svg"
   xmlns:xlink="http://www.w3.org/1999/xlink"
   id="svg50"
   version="1.1"
   fill="none"
   viewBox="0 0 1500 500"
   height="500"
   width="1500">
  <metadata
     id="metadata54">
    <rdf:RDF>
      <cc:Work
         rdf:about="">
        <dc:format>image/svg+xml</dc:format>
        <dc:type
           rdf:resource="http://purl.org/dc/dcmitype/StillImage" />
        <dc:title></dc:title>
      </cc:Work>
    </rdf:RDF>
  </metadata>
  <g
     id="g36"
     clip-path="url(#clip0)">
    <rect
       id="rect2"
       fill="#1E1E1E"
       height="500"
       width="1500" />
    <rect
       id="rect4"
       fill="#1E1E1E"
       height="500"
       width="1500" />
    <rect
       id="rect6"
       fill="#DF2525"
       transform="rotate(-37.4908 286 621.501)"
       height="759.948"
       width="1614.27"
       y="621.501"
       x="286" />
    <circle
       fill="white"
       id="circle8"
       r="183"
       cy="225"
       cx="750" />
    <path
       id="path10"
       fill="white"
d="M 133.1 14.02 L 133.1 5.78 Q 133.1 5.313 133.043 4.713 A 19.189 19.189 0 0 0 132.98 4.14 L 134.48 3.94 L 134.7 5.2 A 11.871 11.871 0 0 1 135.367 4.739 A 10.021 10.021 0 0 1 135.76 4.5 A 7.133 7.133 0 0 1 136.787 4.015 A 7.887 7.887 0 0 1 136.88 3.98 Q 137.48 3.76 138.1 3.76 A 4.638 4.638 0 0 1 138.711 3.798 Q 139.019 3.839 139.273 3.924 A 2.052 2.052 0 0 1 139.68 4.11 Q 140.212 4.431 140.491 5.163 A 3.386 3.386 0 0 1 140.54 5.3 Q 141.36 4.72 142.25 4.24 A 3.888 3.888 0 0 1 143.802 3.772 A 3.785 3.785 0 0 1 144.1 3.76 A 4.812 4.812 0 0 1 144.66 3.791 Q 144.94 3.824 145.179 3.892 A 2.579 2.579 0 0 1 145.36 3.95 Q 145.88 4.14 146.2 4.58 A 2.266 2.266 0 0 1 146.453 5.036 Q 146.547 5.259 146.613 5.525 A 4.335 4.335 0 0 1 146.66 5.74 A 6.656 6.656 0 0 1 146.745 6.331 Q 146.8 6.865 146.8 7.54 L 146.8 14.02 L 145.2 14.02 L 145.2 7.72 A 30.772 30.772 0 0 0 145.196 7.186 Q 145.191 6.9 145.18 6.65 A 3.5 3.5 0 0 0 145.147 6.291 Q 145.121 6.115 145.077 5.964 A 1.866 1.866 0 0 0 145.04 5.85 A 1.08 1.08 0 0 0 144.864 5.534 A 0.963 0.963 0 0 0 144.65 5.34 Q 144.452 5.208 144.131 5.173 A 2.304 2.304 0 0 0 143.88 5.16 A 2.908 2.908 0 0 0 143.146 5.251 A 2.677 2.677 0 0 0 143.01 5.29 A 4.407 4.407 0 0 0 142.513 5.483 A 5.553 5.553 0 0 0 142.16 5.66 A 3.791 3.791 0 0 0 141.91 5.811 Q 141.495 6.082 140.815 6.628 A 33.166 33.166 0 0 0 140.8 6.64 L 140.8 14.02 L 139.2 14.02 L 139.2 7.72 A 30.772 30.772 0 0 0 139.196 7.186 Q 139.191 6.9 139.18 6.65 A 3.5 3.5 0 0 0 139.147 6.291 Q 139.121 6.115 139.077 5.964 A 1.866 1.866 0 0 0 139.04 5.85 A 1.08 1.08 0 0 0 138.864 5.534 A 0.963 0.963 0 0 0 138.65 5.34 Q 138.452 5.208 138.131 5.173 A 2.304 2.304 0 0 0 137.88 5.16 Q 137.36 5.16 136.8 5.38 Q 136.24 5.6 135.74 5.9 A 11.917 11.917 0 0 0 135.116 6.303 A 14.735 14.735 0 0 0 134.7 6.6 L 134.7 14.02 L 133.1 14.02 Z M 227.34 4.2 L 227.34 14.98 Q 227.34 15.72 227.18 16.42 Q 227.02 17.12 226.57 17.67 Q 226.122 18.218 225.316 18.548 A 4.597 4.597 0 0 1 225.31 18.55 A 3.871 3.871 0 0 1 224.631 18.751 Q 224.005 18.88 223.18 18.88 A 18.63 18.63 0 0 1 222.581 18.857 Q 222.285 18.84 222.023 18.814 A 10.015 10.015 0 0 1 221.72 18.78 A 9.212 9.212 0 0 1 220.752 18.604 A 8.244 8.244 0 0 1 220.54 18.55 A 7.966 7.966 0 0 1 219.91 18.354 A 6.408 6.408 0 0 1 219.52 18.2 L 219.94 16.8 Q 220.72 17.14 221.53 17.32 A 8.411 8.411 0 0 0 222.206 17.443 Q 222.62 17.5 222.98 17.5 A 5.911 5.911 0 0 0 223.553 17.474 Q 223.905 17.439 224.2 17.36 A 2.18 2.18 0 0 0 224.725 17.146 A 1.843 1.843 0 0 0 225.07 16.89 A 1.825 1.825 0 0 0 225.451 16.367 A 2.404 2.404 0 0 0 225.59 16.02 Q 225.722 15.6 225.752 15.023 A 6.746 6.746 0 0 0 225.76 14.68 L 225.76 13.22 Q 225.34 13.5 224.89 13.73 A 6.133 6.133 0 0 1 223.962 14.11 A 6.722 6.722 0 0 1 223.93 14.12 A 3.496 3.496 0 0 1 223.277 14.261 A 2.992 2.992 0 0 1 222.94 14.28 A 4.248 4.248 0 0 1 221.606 14.08 A 3.444 3.444 0 0 1 220 12.97 A 4.158 4.158 0 0 1 219.283 11.642 Q 218.92 10.568 218.92 9.06 Q 218.92 7.855 219.223 6.966 A 4.204 4.204 0 0 1 219.39 6.55 Q 219.86 5.54 220.58 4.92 Q 221.3 4.3 222.16 4.03 A 6.04 6.04 0 0 1 223.102 3.812 A 4.862 4.862 0 0 1 223.8 3.76 A 10.659 10.659 0 0 1 224.879 3.812 A 8.344 8.344 0 0 1 225.67 3.93 Q 226.52 4.1 227.34 4.2 Z M 16.96 14.02 L 16.96 5.96 A 2.403 2.403 0 0 0 16.962 5.895 Q 16.971 5.44 16.86 4.14 L 18.34 3.94 L 18.56 5.22 Q 19.16 4.82 19.75 4.52 Q 20.34 4.22 20.96 3.99 Q 21.58 3.76 22.16 3.76 A 5.863 5.863 0 0 1 22.737 3.787 Q 23.018 3.815 23.257 3.871 A 2.848 2.848 0 0 1 23.53 3.95 Q 24.08 4.14 24.42 4.58 A 2.253 2.253 0 0 1 24.697 5.054 Q 24.797 5.282 24.867 5.554 A 4.176 4.176 0 0 1 24.91 5.74 A 6.241 6.241 0 0 1 25.001 6.331 Q 25.036 6.648 25.05 7.015 A 13.662 13.662 0 0 1 25.06 7.54 L 25.06 14.02 L 23.46 14.02 L 23.46 7.72 A 30.772 30.772 0 0 0 23.456 7.186 Q 23.451 6.9 23.44 6.65 A 2.74 2.74 0 0 0 23.402 6.291 Q 23.359 6.046 23.27 5.85 Q 23.12 5.52 22.81 5.34 A 1.141 1.141 0 0 0 22.542 5.23 Q 22.408 5.193 22.247 5.176 A 2.854 2.854 0 0 0 21.94 5.16 A 2.662 2.662 0 0 0 21.319 5.237 A 3.537 3.537 0 0 0 20.84 5.39 Q 20.26 5.62 19.7 5.92 A 11.459 11.459 0 0 0 18.885 6.403 A 13.39 13.39 0 0 0 18.56 6.62 L 18.56 14.02 L 16.96 14.02 Z M 182.9 14.02 L 182.9 5.96 A 2.403 2.403 0 0 0 182.902 5.895 Q 182.911 5.44 182.8 4.14 L 184.28 3.94 L 184.5 5.22 Q 185.1 4.82 185.69 4.52 Q 186.28 4.22 186.9 3.99 Q 187.52 3.76 188.1 3.76 A 5.863 5.863 0 0 1 188.677 3.787 Q 188.958 3.815 189.197 3.871 A 2.848 2.848 0 0 1 189.47 3.95 Q 190.02 4.14 190.36 4.58 A 2.253 2.253 0 0 1 190.637 5.054 Q 190.737 5.282 190.807 5.554 A 4.176 4.176 0 0 1 190.85 5.74 A 6.241 6.241 0 0 1 190.941 6.331 Q 190.976 6.648 190.99 7.015 A 13.662 13.662 0 0 1 191 7.54 L 191 14.02 L 189.4 14.02 L 189.4 7.72 A 30.772 30.772 0 0 0 189.396 7.186 Q 189.391 6.9 189.38 6.65 A 2.74 2.74 0 0 0 189.342 6.291 Q 189.299 6.046 189.21 5.85 Q 189.06 5.52 188.75 5.34 A 1.141 1.141 0 0 0 188.482 5.23 Q 188.348 5.193 188.187 5.176 A 2.854 2.854 0 0 0 187.88 5.16 A 2.662 2.662 0 0 0 187.259 5.237 A 3.537 3.537 0 0 0 186.78 5.39 Q 186.2 5.62 185.64 5.92 A 11.459 11.459 0 0 0 184.825 6.403 A 13.39 13.39 0 0 0 184.5 6.62 L 184.5 14.02 L 182.9 14.02 Z M 208.54 14.02 L 208.54 5.96 A 2.403 2.403 0 0 0 208.542 5.895 Q 208.551 5.44 208.44 4.14 L 209.92 3.94 L 210.14 5.22 Q 210.74 4.82 211.33 4.52 Q 211.92 4.22 212.54 3.99 Q 213.16 3.76 213.74 3.76 A 5.863 5.863 0 0 1 214.317 3.787 Q 214.598 3.815 214.837 3.871 A 2.848 2.848 0 0 1 215.11 3.95 Q 215.66 4.14 216 4.58 A 2.253 2.253 0 0 1 216.277 5.054 Q 216.377 5.282 216.447 5.554 A 4.176 4.176 0 0 1 216.49 5.74 A 6.241 6.241 0 0 1 216.581 6.331 Q 216.616 6.648 216.63 7.015 A 13.662 13.662 0 0 1 216.64 7.54 L 216.64 14.02 L 215.04 14.02 L 215.04 7.72 A 30.772 30.772 0 0 0 215.036 7.186 Q 215.031 6.9 215.02 6.65 A 2.74 2.74 0 0 0 214.982 6.291 Q 214.939 6.046 214.85 5.85 Q 214.7 5.52 214.39 5.34 A 1.141 1.141 0 0 0 214.122 5.23 Q 213.988 5.193 213.827 5.176 A 2.854 2.854 0 0 0 213.52 5.16 A 2.662 2.662 0 0 0 212.899 5.237 A 3.537 3.537 0 0 0 212.42 5.39 Q 211.84 5.62 211.28 5.92 A 11.459 11.459 0 0 0 210.465 6.403 A 13.39 13.39 0 0 0 210.14 6.62 L 210.14 14.02 L 208.54 14.02 Z M 234.72 14.02 L 234.72 5.96 A 2.403 2.403 0 0 0 234.722 5.895 Q 234.731 5.44 234.62 4.14 L 236.1 3.94 L 236.32 5.22 Q 236.92 4.82 237.51 4.52 Q 238.1 4.22 238.72 3.99 Q 239.34 3.76 239.92 3.76 A 5.863 5.863 0 0 1 240.497 3.787 Q 240.778 3.815 241.017 3.871 A 2.848 2.848 0 0 1 241.29 3.95 Q 241.84 4.14 242.18 4.58 A 2.253 2.253 0 0 1 242.457 5.054 Q 242.557 5.282 242.627 5.554 A 4.176 4.176 0 0 1 242.67 5.74 A 6.241 6.241 0 0 1 242.761 6.331 Q 242.796 6.648 242.81 7.015 A 13.662 13.662 0 0 1 242.82 7.54 L 242.82 14.02 L 241.22 14.02 L 241.22 7.72 A 30.772 30.772 0 0 0 241.216 7.186 Q 241.211 6.9 241.2 6.65 A 2.74 2.74 0 0 0 241.162 6.291 Q 241.119 6.046 241.03 5.85 Q 240.88 5.52 240.57 5.34 A 1.141 1.141 0 0 0 240.302 5.23 Q 240.168 5.193 240.007 5.176 A 2.854 2.854 0 0 0 239.7 5.16 A 2.662 2.662 0 0 0 239.079 5.237 A 3.537 3.537 0 0 0 238.6 5.39 Q 238.02 5.62 237.46 5.92 A 11.459 11.459 0 0 0 236.645 6.403 A 13.39 13.39 0 0 0 236.32 6.62 L 236.32 14.02 L 234.72 14.02 Z M 12.56 14.18 L 12.44 12.92 L 12.4 12.92 Q 12.262 13.027 12.031 13.187 A 18.98 18.98 0 0 1 11.88 13.29 Q 11.54 13.52 11.1 13.74 A 5.789 5.789 0 0 1 10.456 14.013 A 6.927 6.927 0 0 1 10.13 14.12 Q 9.6 14.28 9.06 14.28 A 4.812 4.812 0 0 1 8.5 14.249 Q 8.22 14.216 7.981 14.149 A 2.579 2.579 0 0 1 7.8 14.09 Q 7.28 13.9 6.96 13.46 A 2.266 2.266 0 0 1 6.707 13.004 Q 6.613 12.781 6.547 12.515 A 4.335 4.335 0 0 1 6.5 12.3 A 6.656 6.656 0 0 1 6.415 11.709 Q 6.36 11.175 6.36 10.5 L 6.36 3.96 L 7.96 3.96 L 7.96 10.26 A 31.002 31.002 0 0 0 7.965 10.813 Q 7.969 11.075 7.979 11.309 A 18.688 18.688 0 0 0 7.98 11.34 A 3.668 3.668 0 0 0 8.013 11.707 Q 8.039 11.891 8.085 12.049 A 1.97 1.97 0 0 0 8.12 12.16 A 1.146 1.146 0 0 0 8.29 12.479 A 1.004 1.004 0 0 0 8.51 12.69 Q 8.71 12.831 9.036 12.867 A 2.196 2.196 0 0 0 9.28 12.88 Q 9.8 12.88 10.36 12.66 A 6.971 6.971 0 0 0 11.067 12.337 A 5.91 5.91 0 0 0 11.38 12.16 Q 11.92 11.84 12.44 11.44 L 12.44 3.96 L 14.04 3.96 L 14.04 12.72 Q 14.06 13.44 14.14 14.02 L 12.56 14.18 Z M 110.02 14.18 L 109.9 12.92 L 109.86 12.92 Q 109.722 13.027 109.491 13.187 A 18.98 18.98 0 0 1 109.34 13.29 Q 109 13.52 108.56 13.74 A 5.789 5.789 0 0 1 107.916 14.013 A 6.927 6.927 0 0 1 107.59 14.12 Q 107.06 14.28 106.52 14.28 A 4.812 4.812 0 0 1 105.96 14.249 Q 105.68 14.216 105.441 14.149 A 2.579 2.579 0 0 1 105.26 14.09 Q 104.74 13.9 104.42 13.46 A 2.266 2.266 0 0 1 104.167 13.004 Q 104.073 12.781 104.007 12.515 A 4.335 4.335 0 0 1 103.96 12.3 A 6.656 6.656 0 0 1 103.875 11.709 Q 103.82 11.175 103.82 10.5 L 103.82 3.96 L 105.42 3.96 L 105.42 10.26 A 31.002 31.002 0 0 0 105.425 10.813 Q 105.429 11.075 105.439 11.309 A 18.688 18.688 0 0 0 105.44 11.34 A 3.668 3.668 0 0 0 105.473 11.707 Q 105.499 11.891 105.545 12.049 A 1.97 1.97 0 0 0 105.58 12.16 A 1.146 1.146 0 0 0 105.75 12.479 A 1.004 1.004 0 0 0 105.97 12.69 Q 106.17 12.831 106.496 12.867 A 2.196 2.196 0 0 0 106.74 12.88 Q 107.26 12.88 107.82 12.66 A 6.971 6.971 0 0 0 108.527 12.337 A 5.91 5.91 0 0 0 108.84 12.16 Q 109.38 11.84 109.9 11.44 L 109.9 3.96 L 111.5 3.96 L 111.5 12.72 Q 111.52 13.44 111.6 14.02 L 110.02 14.18 Z M 72.04 14.02 L 68.34 3.96 L 70.1 3.96 L 72.54 11.06 L 72.98 12.64 L 73 12.64 L 73.46 11.06 L 76.06 3.96 L 77.74 3.96 L 73.84 14.02 L 72.04 14.02 Z M 160.38 1.16 L 161.98 0.96 L 161.98 3.96 L 164.88 3.96 L 164.88 5.26 L 161.98 5.26 L 161.98 10.6 Q 161.98 11.244 162.009 11.679 A 8.789 8.789 0 0 0 162.01 11.7 A 3.915 3.915 0 0 0 162.036 11.957 Q 162.053 12.087 162.079 12.197 A 1.556 1.556 0 0 0 162.14 12.4 A 0.981 0.981 0 0 0 162.221 12.566 Q 162.278 12.658 162.351 12.72 A 0.538 0.538 0 0 0 162.42 12.77 A 0.703 0.703 0 0 0 162.623 12.852 Q 162.71 12.873 162.811 12.878 A 1.333 1.333 0 0 0 162.88 12.88 A 2.789 2.789 0 0 0 163.51 12.785 Q 164.031 12.649 164.64 12.32 L 165.12 13.54 Q 164.571 13.906 164.084 14.071 A 2.894 2.894 0 0 1 163.89 14.13 Q 163.32 14.28 162.76 14.28 A 3.637 3.637 0 0 1 162.097 14.224 Q 161.295 14.075 160.91 13.53 Q 160.45 12.879 160.389 11.484 A 10.186 10.186 0 0 1 160.38 11.04 L 160.38 5.26 L 158.54 5.26 L 158.54 3.96 L 160.38 3.96 L 160.38 1.16 Z M 115.14 1.16 L 116.74 0.96 L 116.74 3.96 L 119.64 3.96 L 119.64 5.26 L 116.74 5.26 L 116.74 10.6 Q 116.74 11.244 116.769 11.679 A 8.789 8.789 0 0 0 116.77 11.7 A 3.915 3.915 0 0 0 116.796 11.957 Q 116.813 12.087 116.839 12.197 A 1.556 1.556 0 0 0 116.9 12.4 A 0.981 0.981 0 0 0 116.981 12.566 Q 117.038 12.658 117.111 12.72 A 0.538 0.538 0 0 0 117.18 12.77 A 0.703 0.703 0 0 0 117.383 12.852 Q 117.47 12.873 117.571 12.878 A 1.333 1.333 0 0 0 117.64 12.88 A 2.789 2.789 0 0 0 118.27 12.785 Q 118.791 12.649 119.4 12.32 L 119.88 13.54 Q 119.331 13.906 118.844 14.071 A 2.894 2.894 0 0 1 118.65 14.13 Q 118.08 14.28 117.52 14.28 A 3.637 3.637 0 0 1 116.857 14.224 Q 116.055 14.075 115.67 13.53 Q 115.21 12.879 115.149 11.484 A 10.186 10.186 0 0 1 115.14 11.04 L 115.14 5.26 L 113.3 5.26 L 113.3 3.96 L 115.14 3.96 L 115.14 1.16 Z M 85.04 14.18 L 84.84 13.08 A 17.223 17.223 0 0 1 83.946 13.561 Q 83.501 13.782 83.09 13.95 Q 82.28 14.28 81.34 14.28 Q 80 14.28 79.21 13.63 A 1.967 1.967 0 0 1 78.618 12.769 Q 78.496 12.437 78.449 12.024 A 4.839 4.839 0 0 1 78.42 11.48 A 2.565 2.565 0 0 1 78.526 10.729 A 2.19 2.19 0 0 1 78.82 10.12 A 3.296 3.296 0 0 1 79.731 9.238 A 3.846 3.846 0 0 1 79.87 9.15 A 5.425 5.425 0 0 1 80.844 8.694 A 6.49 6.49 0 0 1 81.34 8.54 Q 82.16 8.32 83.02 8.26 Q 83.342 8.224 83.84 8.197 A 29.749 29.749 0 0 1 83.96 8.19 Q 84.404 8.167 84.696 8.15 A 43.189 43.189 0 0 0 84.86 8.14 A 20.983 20.983 0 0 0 84.851 7.517 Q 84.842 7.224 84.825 6.964 A 12.298 12.298 0 0 0 84.82 6.89 Q 84.782 6.369 84.601 5.992 A 1.807 1.807 0 0 0 84.58 5.95 Q 84.38 5.56 83.99 5.36 Q 83.6 5.16 82.88 5.16 A 8.812 8.812 0 0 0 81.896 5.214 A 8.037 8.037 0 0 0 81.76 5.23 A 20.01 20.01 0 0 0 81.28 5.298 Q 81.055 5.333 80.856 5.369 A 11.643 11.643 0 0 0 80.8 5.38 A 12.991 12.991 0 0 0 80.263 5.499 A 10.294 10.294 0 0 0 79.88 5.6 L 79.56 4.22 A 15.812 15.812 0 0 1 80.216 4.078 A 19.341 19.341 0 0 1 80.64 4 Q 81.07 3.914 81.618 3.85 A 17.943 17.943 0 0 1 81.8 3.83 A 12.506 12.506 0 0 1 82.664 3.77 A 15.318 15.318 0 0 1 83.22 3.76 A 5.68 5.68 0 0 1 83.875 3.796 Q 84.202 3.834 84.476 3.913 A 2.572 2.572 0 0 1 84.87 4.06 A 2.668 2.668 0 0 1 85.457 4.435 A 2.22 2.22 0 0 1 85.85 4.87 A 3.065 3.065 0 0 1 86.304 5.909 A 3.544 3.544 0 0 1 86.33 6.03 A 6.812 6.812 0 0 1 86.455 7.133 A 7.763 7.763 0 0 1 86.46 7.4 L 86.46 12.2 Q 86.46 12.48 86.47 12.79 Q 86.48 13.1 86.51 13.4 A 24.979 24.979 0 0 0 86.57 13.94 A 27.57 27.57 0 0 0 86.58 14.02 L 85.04 14.18 Z M 99.64 14.18 L 99.44 13.08 A 17.223 17.223 0 0 1 98.546 13.561 Q 98.101 13.782 97.69 13.95 Q 96.88 14.28 95.94 14.28 Q 94.6 14.28 93.81 13.63 A 1.967 1.967 0 0 1 93.218 12.769 Q 93.096 12.437 93.049 12.024 A 4.839 4.839 0 0 1 93.02 11.48 A 2.565 2.565 0 0 1 93.126 10.729 A 2.19 2.19 0 0 1 93.42 10.12 A 3.296 3.296 0 0 1 94.331 9.238 A 3.846 3.846 0 0 1 94.47 9.15 A 5.425 5.425 0 0 1 95.444 8.694 A 6.49 6.49 0 0 1 95.94 8.54 Q 96.76 8.32 97.62 8.26 Q 97.942 8.224 98.44 8.197 A 29.749 29.749 0 0 1 98.56 8.19 Q 99.004 8.167 99.296 8.15 A 43.189 43.189 0 0 0 99.46 8.14 A 20.983 20.983 0 0 0 99.451 7.517 Q 99.442 7.224 99.425 6.964 A 12.298 12.298 0 0 0 99.42 6.89 Q 99.382 6.369 99.201 5.992 A 1.807 1.807 0 0 0 99.18 5.95 Q 98.98 5.56 98.59 5.36 Q 98.2 5.16 97.48 5.16 A 8.812 8.812 0 0 0 96.496 5.214 A 8.037 8.037 0 0 0 96.36 5.23 A 20.01 20.01 0 0 0 95.88 5.298 Q 95.655 5.333 95.456 5.369 A 11.643 11.643 0 0 0 95.4 5.38 A 12.991 12.991 0 0 0 94.863 5.499 A 10.294 10.294 0 0 0 94.48 5.6 L 94.16 4.22 A 15.812 15.812 0 0 1 94.816 4.078 A 19.341 19.341 0 0 1 95.24 4 Q 95.67 3.914 96.218 3.85 A 17.943 17.943 0 0 1 96.4 3.83 A 12.506 12.506 0 0 1 97.264 3.77 A 15.318 15.318 0 0 1 97.82 3.76 A 5.68 5.68 0 0 1 98.475 3.796 Q 98.802 3.834 99.076 3.913 A 2.572 2.572 0 0 1 99.47 4.06 A 2.668 2.668 0 0 1 100.057 4.435 A 2.22 2.22 0 0 1 100.45 4.87 A 3.065 3.065 0 0 1 100.904 5.909 A 3.544 3.544 0 0 1 100.93 6.03 A 6.812 6.812 0 0 1 101.055 7.133 A 7.763 7.763 0 0 1 101.06 7.4 L 101.06 12.2 Q 101.06 12.48 101.07 12.79 Q 101.08 13.1 101.11 13.4 A 24.979 24.979 0 0 0 101.17 13.94 A 27.57 27.57 0 0 0 101.18 14.02 L 99.64 14.18 Z M 65.42 14.18 L 65.22 13.08 A 17.223 17.223 0 0 1 64.326 13.561 Q 63.881 13.782 63.47 13.95 Q 62.66 14.28 61.72 14.28 Q 60.38 14.28 59.59 13.63 A 1.967 1.967 0 0 1 58.998 12.769 Q 58.876 12.437 58.829 12.024 A 4.839 4.839 0 0 1 58.8 11.48 A 2.565 2.565 0 0 1 58.906 10.729 A 2.19 2.19 0 0 1 59.2 10.12 A 3.296 3.296 0 0 1 60.111 9.238 A 3.846 3.846 0 0 1 60.25 9.15 A 5.425 5.425 0 0 1 61.224 8.694 A 6.49 6.49 0 0 1 61.72 8.54 Q 62.54 8.32 63.4 8.26 Q 63.722 8.224 64.22 8.197 A 29.749 29.749 0 0 1 64.34 8.19 Q 64.784 8.167 65.076 8.15 A 43.189 43.189 0 0 0 65.24 8.14 A 20.983 20.983 0 0 0 65.231 7.517 Q 65.222 7.224 65.205 6.964 A 12.298 12.298 0 0 0 65.2 6.89 Q 65.162 6.369 64.981 5.992 A 1.807 1.807 0 0 0 64.96 5.95 Q 64.76 5.56 64.37 5.36 Q 63.98 5.16 63.26 5.16 A 8.812 8.812 0 0 0 62.276 5.214 A 8.037 8.037 0 0 0 62.14 5.23 A 20.01 20.01 0 0 0 61.66 5.298 Q 61.435 5.333 61.236 5.369 A 11.643 11.643 0 0 0 61.18 5.38 A 12.991 12.991 0 0 0 60.643 5.499 A 10.294 10.294 0 0 0 60.26 5.6 L 59.94 4.22 A 15.812 15.812 0 0 1 60.596 4.078 A 19.341 19.341 0 0 1 61.02 4 Q 61.45 3.914 61.998 3.85 A 17.943 17.943 0 0 1 62.18 3.83 A 12.506 12.506 0 0 1 63.044 3.77 A 15.318 15.318 0 0 1 63.6 3.76 A 5.68 5.68 0 0 1 64.255 3.796 Q 64.582 3.834 64.856 3.913 A 2.572 2.572 0 0 1 65.25 4.06 A 2.668 2.668 0 0 1 65.837 4.435 A 2.22 2.22 0 0 1 66.23 4.87 A 3.065 3.065 0 0 1 66.684 5.909 A 3.544 3.544 0 0 1 66.71 6.03 A 6.812 6.812 0 0 1 66.835 7.133 A 7.763 7.763 0 0 1 66.84 7.4 L 66.84 12.2 Q 66.84 12.48 66.85 12.79 Q 66.86 13.1 66.89 13.4 A 24.979 24.979 0 0 0 66.95 13.94 A 27.57 27.57 0 0 0 66.96 14.02 L 65.42 14.18 Z M 155.4 14.18 L 155.2 13.08 A 17.223 17.223 0 0 1 154.306 13.561 Q 153.861 13.782 153.45 13.95 Q 152.64 14.28 151.7 14.28 Q 150.36 14.28 149.57 13.63 A 1.967 1.967 0 0 1 148.978 12.769 Q 148.856 12.437 148.809 12.024 A 4.839 4.839 0 0 1 148.78 11.48 A 2.565 2.565 0 0 1 148.886 10.729 A 2.19 2.19 0 0 1 149.18 10.12 A 3.296 3.296 0 0 1 150.091 9.238 A 3.846 3.846 0 0 1 150.23 9.15 A 5.425 5.425 0 0 1 151.204 8.694 A 6.49 6.49 0 0 1 151.7 8.54 Q 152.52 8.32 153.38 8.26 Q 153.702 8.224 154.2 8.197 A 29.749 29.749 0 0 1 154.32 8.19 Q 154.764 8.167 155.056 8.15 A 43.189 43.189 0 0 0 155.22 8.14 A 20.983 20.983 0 0 0 155.211 7.517 Q 155.202 7.224 155.185 6.964 A 12.298 12.298 0 0 0 155.18 6.89 Q 155.142 6.369 154.961 5.992 A 1.807 1.807 0 0 0 154.94 5.95 Q 154.74 5.56 154.35 5.36 Q 153.96 5.16 153.24 5.16 A 8.812 8.812 0 0 0 152.256 5.214 A 8.037 8.037 0 0 0 152.12 5.23 A 20.01 20.01 0 0 0 151.64 5.298 Q 151.415 5.333 151.216 5.369 A 11.643 11.643 0 0 0 151.16 5.38 A 12.991 12.991 0 0 0 150.623 5.499 A 10.294 10.294 0 0 0 150.24 5.6 L 149.92 4.22 A 15.812 15.812 0 0 1 150.576 4.078 A 19.341 19.341 0 0 1 151 4 Q 151.43 3.914 151.978 3.85 A 17.943 17.943 0 0 1 152.16 3.83 A 12.506 12.506 0 0 1 153.024 3.77 A 15.318 15.318 0 0 1 153.58 3.76 A 5.68 5.68 0 0 1 154.235 3.796 Q 154.562 3.834 154.836 3.913 A 2.572 2.572 0 0 1 155.23 4.06 A 2.668 2.668 0 0 1 155.817 4.435 A 2.22 2.22 0 0 1 156.21 4.87 A 3.065 3.065 0 0 1 156.664 5.909 A 3.544 3.544 0 0 1 156.69 6.03 A 6.812 6.812 0 0 1 156.815 7.133 A 7.763 7.763 0 0 1 156.82 7.4 L 156.82 12.2 Q 156.82 12.48 156.83 12.79 Q 156.84 13.1 156.87 13.4 A 24.979 24.979 0 0 0 156.93 13.94 A 27.57 27.57 0 0 0 156.94 14.02 L 155.4 14.18 Z M 262.9 12.44 L 263.2 13.78 Q 262.74 13.92 262.25 14.02 Q 261.76 14.12 261.17 14.2 A 9.012 9.012 0 0 1 260.119 14.278 A 10.074 10.074 0 0 1 259.94 14.28 A 6.303 6.303 0 0 1 258.688 14.159 A 5.458 5.458 0 0 1 258.08 14 Q 257.22 13.72 256.58 13.1 A 3.893 3.893 0 0 1 255.889 12.187 A 5.129 5.129 0 0 1 255.57 11.49 A 5.367 5.367 0 0 1 255.317 10.538 Q 255.237 10.079 255.211 9.552 A 10.318 10.318 0 0 1 255.2 9.06 Q 255.2 7.76 255.56 6.77 A 5.261 5.261 0 0 1 256.034 5.783 A 4.289 4.289 0 0 1 256.55 5.11 Q 257.18 4.44 258.03 4.1 A 4.807 4.807 0 0 1 259.51 3.772 A 5.648 5.648 0 0 1 259.88 3.76 A 4.259 4.259 0 0 1 260.715 3.838 A 3.175 3.175 0 0 1 261.58 4.14 Q 262.3 4.52 262.77 5.17 Q 263.24 5.82 263.47 6.69 A 7.063 7.063 0 0 1 263.698 8.341 A 7.91 7.91 0 0 1 263.7 8.52 L 263.4 9.4 L 256.94 9.4 Q 256.94 10.02 257.1 10.64 Q 257.26 11.26 257.65 11.76 A 2.78 2.78 0 0 0 258.406 12.425 A 3.363 3.363 0 0 0 258.67 12.57 A 2.808 2.808 0 0 0 259.329 12.793 Q 259.638 12.858 259.996 12.875 A 5.338 5.338 0 0 0 260.24 12.88 Q 260.84 12.88 261.34 12.81 A 11.669 11.669 0 0 0 261.697 12.755 Q 261.891 12.721 262.061 12.684 A 6.34 6.34 0 0 0 262.21 12.65 A 6.327 6.327 0 0 0 262.695 12.512 A 5.38 5.38 0 0 0 262.9 12.44 Z M 205.54 12.44 L 205.84 13.78 Q 205.38 13.92 204.89 14.02 Q 204.4 14.12 203.81 14.2 A 9.012 9.012 0 0 1 202.759 14.278 A 10.074 10.074 0 0 1 202.58 14.28 A 6.303 6.303 0 0 1 201.328 14.159 A 5.458 5.458 0 0 1 200.72 14 Q 199.86 13.72 199.22 13.1 A 3.893 3.893 0 0 1 198.529 12.187 A 5.129 5.129 0 0 1 198.21 11.49 A 5.367 5.367 0 0 1 197.957 10.538 Q 197.877 10.079 197.851 9.552 A 10.318 10.318 0 0 1 197.84 9.06 Q 197.84 7.76 198.2 6.77 A 5.261 5.261 0 0 1 198.674 5.783 A 4.289 4.289 0 0 1 199.19 5.11 Q 199.82 4.44 200.67 4.1 A 4.807 4.807 0 0 1 202.15 3.772 A 5.648 5.648 0 0 1 202.52 3.76 A 4.259 4.259 0 0 1 203.355 3.838 A 3.175 3.175 0 0 1 204.22 4.14 Q 204.94 4.52 205.41 5.17 Q 205.88 5.82 206.11 6.69 A 7.063 7.063 0 0 1 206.338 8.341 A 7.91 7.91 0 0 1 206.34 8.52 L 206.04 9.4 L 199.58 9.4 Q 199.58 10.02 199.74 10.64 Q 199.9 11.26 200.29 11.76 A 2.78 2.78 0 0 0 201.046 12.425 A 3.363 3.363 0 0 0 201.31 12.57 A 2.808 2.808 0 0 0 201.969 12.793 Q 202.278 12.858 202.636 12.875 A 5.338 5.338 0 0 0 202.88 12.88 Q 203.48 12.88 203.98 12.81 A 11.669 11.669 0 0 0 204.337 12.755 Q 204.531 12.721 204.701 12.684 A 6.34 6.34 0 0 0 204.85 12.65 A 6.327 6.327 0 0 0 205.335 12.512 A 5.38 5.38 0 0 0 205.54 12.44 Z M 252.78 12.44 L 253.08 13.78 Q 252.62 13.92 252.13 14.02 Q 251.64 14.12 251.05 14.2 A 9.012 9.012 0 0 1 249.999 14.278 A 10.074 10.074 0 0 1 249.82 14.28 A 6.303 6.303 0 0 1 248.568 14.159 A 5.458 5.458 0 0 1 247.96 14 Q 247.1 13.72 246.46 13.1 A 3.893 3.893 0 0 1 245.769 12.187 A 5.129 5.129 0 0 1 245.45 11.49 A 5.367 5.367 0 0 1 245.197 10.538 Q 245.117 10.079 245.091 9.552 A 10.318 10.318 0 0 1 245.08 9.06 Q 245.08 7.76 245.44 6.77 A 5.261 5.261 0 0 1 245.914 5.783 A 4.289 4.289 0 0 1 246.43 5.11 Q 247.06 4.44 247.91 4.1 A 4.807 4.807 0 0 1 249.39 3.772 A 5.648 5.648 0 0 1 249.76 3.76 A 4.259 4.259 0 0 1 250.595 3.838 A 3.175 3.175 0 0 1 251.46 4.14 Q 252.18 4.52 252.65 5.17 Q 253.12 5.82 253.35 6.69 A 7.063 7.063 0 0 1 253.578 8.341 A 7.91 7.91 0 0 1 253.58 8.52 L 253.28 9.4 L 246.82 9.4 Q 246.82 10.02 246.98 10.64 Q 247.14 11.26 247.53 11.76 A 2.78 2.78 0 0 0 248.286 12.425 A 3.363 3.363 0 0 0 248.55 12.57 A 2.808 2.808 0 0 0 249.209 12.793 Q 249.518 12.858 249.876 12.875 A 5.338 5.338 0 0 0 250.12 12.88 Q 250.72 12.88 251.22 12.81 A 11.669 11.669 0 0 0 251.577 12.755 Q 251.771 12.721 251.941 12.684 A 6.34 6.34 0 0 0 252.09 12.65 A 6.327 6.327 0 0 0 252.575 12.512 A 5.38 5.38 0 0 0 252.78 12.44 Z M 1.94 3.98 L 3.54 3.74 L 3.54 13.84 A 9.75 9.75 0 0 1 3.54 13.868 Q 3.535 15.649 2.88 16.81 A 4.778 4.778 0 0 1 1.766 18.128 A 6.486 6.486 0 0 1 0.82 18.78 L 0 17.36 A 4.835 4.835 0 0 0 0.53 16.995 A 3.575 3.575 0 0 0 0.98 16.57 A 3.507 3.507 0 0 0 1.47 15.862 A 3.19 3.19 0 0 0 1.57 15.65 Q 1.78 15.16 1.86 14.65 Q 1.94 14.14 1.94 13.62 L 1.94 3.98 Z M 55.16 3.98 L 56.76 3.74 L 56.76 13.84 A 9.75 9.75 0 0 1 56.76 13.868 Q 56.755 15.649 56.1 16.81 A 4.778 4.778 0 0 1 54.986 18.128 A 6.486 6.486 0 0 1 54.04 18.78 L 53.22 17.36 A 4.835 4.835 0 0 0 53.75 16.995 A 3.575 3.575 0 0 0 54.2 16.57 A 3.507 3.507 0 0 0 54.69 15.862 A 3.19 3.19 0 0 0 54.79 15.65 Q 55 15.16 55.08 14.65 Q 55.16 14.14 55.16 13.62 L 55.16 3.98 Z M 31.867 7.952 A 7.97 7.97 0 0 0 31.8 9.02 A 9.426 9.426 0 0 0 31.815 9.566 Q 31.848 10.126 31.949 10.607 A 4.673 4.673 0 0 0 32.27 11.6 A 5.415 5.415 0 0 0 32.709 12.384 A 3.97 3.97 0 0 0 33.45 13.21 A 4.808 4.808 0 0 0 33.495 13.247 A 4.21 4.21 0 0 0 35 14.04 A 6.682 6.682 0 0 0 35.619 14.186 A 5.386 5.386 0 0 0 36.6 14.28 Q 37.34 14.28 38.2 14.03 Q 39.06 13.78 39.8 13.17 Q 40.54 12.56 41.03 11.52 A 4.268 4.268 0 0 0 41.218 11.048 Q 41.376 10.574 41.451 10.009 A 8.402 8.402 0 0 0 41.52 8.9 A 8.774 8.774 0 0 0 41.505 8.379 Q 41.435 7.205 41.04 6.39 A 5.47 5.47 0 0 0 40.646 5.704 A 4.177 4.177 0 0 0 39.84 4.81 A 4.773 4.773 0 0 0 39.795 4.774 A 4.169 4.169 0 0 0 38.27 3.99 A 7.114 7.114 0 0 0 37.502 3.825 A 5.243 5.243 0 0 0 36.7 3.76 Q 35.94 3.76 35.09 4.01 A 4.19 4.19 0 0 0 34.608 4.185 A 4.633 4.633 0 0 0 33.5 4.87 Q 32.76 5.48 32.28 6.49 A 4.132 4.132 0 0 0 32.103 6.926 Q 31.943 7.394 31.868 7.952 Z M 121.107 7.952 A 7.97 7.97 0 0 0 121.04 9.02 A 9.426 9.426 0 0 0 121.055 9.566 Q 121.088 10.126 121.189 10.607 A 4.673 4.673 0 0 0 121.51 11.6 A 5.415 5.415 0 0 0 121.949 12.384 A 3.97 3.97 0 0 0 122.69 13.21 A 4.808 4.808 0 0 0 122.735 13.247 A 4.21 4.21 0 0 0 124.24 14.04 A 6.682 6.682 0 0 0 124.859 14.186 A 5.386 5.386 0 0 0 125.84 14.28 Q 126.58 14.28 127.44 14.03 Q 128.3 13.78 129.04 13.17 Q 129.78 12.56 130.27 11.52 A 4.268 4.268 0 0 0 130.458 11.048 Q 130.616 10.574 130.691 10.009 A 8.402 8.402 0 0 0 130.76 8.9 A 8.774 8.774 0 0 0 130.745 8.379 Q 130.675 7.205 130.28 6.39 A 5.47 5.47 0 0 0 129.886 5.704 A 4.177 4.177 0 0 0 129.08 4.81 A 4.773 4.773 0 0 0 129.035 4.774 A 4.169 4.169 0 0 0 127.51 3.99 A 7.114 7.114 0 0 0 126.742 3.825 A 5.243 5.243 0 0 0 125.94 3.76 Q 125.18 3.76 124.33 4.01 A 4.19 4.19 0 0 0 123.848 4.185 A 4.633 4.633 0 0 0 122.74 4.87 Q 122 5.48 121.52 6.49 A 4.132 4.132 0 0 0 121.343 6.926 Q 121.183 7.394 121.108 7.952 Z M 170.907 7.952 A 7.97 7.97 0 0 0 170.84 9.02 A 9.426 9.426 0 0 0 170.855 9.566 Q 170.888 10.126 170.989 10.607 A 4.673 4.673 0 0 0 171.31 11.6 A 5.415 5.415 0 0 0 171.749 12.384 A 3.97 3.97 0 0 0 172.49 13.21 A 4.808 4.808 0 0 0 172.535 13.247 A 4.21 4.21 0 0 0 174.04 14.04 A 6.682 6.682 0 0 0 174.659 14.186 A 5.386 5.386 0 0 0 175.64 14.28 Q 176.38 14.28 177.24 14.03 Q 178.1 13.78 178.84 13.17 Q 179.58 12.56 180.07 11.52 A 4.268 4.268 0 0 0 180.258 11.048 Q 180.416 10.574 180.491 10.009 A 8.402 8.402 0 0 0 180.56 8.9 A 8.774 8.774 0 0 0 180.545 8.379 Q 180.475 7.205 180.08 6.39 A 5.47 5.47 0 0 0 179.686 5.704 A 4.177 4.177 0 0 0 178.88 4.81 A 4.773 4.773 0 0 0 178.835 4.774 A 4.169 4.169 0 0 0 177.31 3.99 A 7.114 7.114 0 0 0 176.542 3.825 A 5.243 5.243 0 0 0 175.74 3.76 Q 174.98 3.76 174.13 4.01 A 4.19 4.19 0 0 0 173.648 4.185 A 4.633 4.633 0 0 0 172.54 4.87 Q 171.8 5.48 171.32 6.49 A 4.132 4.132 0 0 0 171.143 6.926 Q 170.983 7.394 170.908 7.952 Z M 43.86 14.02 L 43.86 5.58 Q 43.86 5.12 43.76 4.14 L 45.24 3.94 L 45.4 5.4 L 45.42 5.4 Q 45.78 4.94 46.12 4.6 A 4.931 4.931 0 0 1 46.692 4.107 A 4.438 4.438 0 0 1 46.83 4.01 Q 47.134 3.805 47.418 3.768 A 0.954 0.954 0 0 1 47.54 3.76 Q 47.982 3.741 48.756 3.851 A 15.475 15.475 0 0 1 48.82 3.86 L 48.46 5.4 Q 47.835 5.286 47.569 5.298 A 0.898 0.898 0 0 0 47.54 5.3 A 0.84 0.84 0 0 0 47.224 5.366 Q 47.028 5.445 46.82 5.62 Q 46.44 5.94 46.16 6.3 A 8.058 8.058 0 0 0 45.723 6.889 A 9.972 9.972 0 0 0 45.46 7.3 L 45.46 14.02 L 43.86 14.02 Z M 265.9 14.02 L 265.9 5.58 Q 265.9 5.12 265.8 4.14 L 267.28 3.94 L 267.44 5.4 L 267.46 5.4 Q 267.82 4.94 268.16 4.6 A 4.931 4.931 0 0 1 268.732 4.107 A 4.438 4.438 0 0 1 268.87 4.01 Q 269.174 3.805 269.458 3.768 A 0.954 0.954 0 0 1 269.58 3.76 Q 270.022 3.741 270.796 3.851 A 15.475 15.475 0 0 1 270.86 3.86 L 270.5 5.4 Q 269.875 5.286 269.609 5.298 A 0.898 0.898 0 0 0 269.58 5.3 A 0.84 0.84 0 0 0 269.264 5.366 Q 269.068 5.445 268.86 5.62 Q 268.48 5.94 268.2 6.3 A 8.058 8.058 0 0 0 267.763 6.889 A 9.972 9.972 0 0 0 267.5 7.3 L 267.5 14.02 L 265.9 14.02 Z M 27.88 14.02 L 27.88 3.94 L 29.48 3.76 L 29.48 14.02 L 27.88 14.02 Z M 166.92 14.02 L 166.92 3.94 L 168.52 3.76 L 168.52 14.02 L 166.92 14.02 Z M 230.22 14.02 L 230.22 3.94 L 231.82 3.76 L 231.82 14.02 L 230.22 14.02 Z M 33.5 9.04 A 6.885 6.885 0 0 0 33.577 10.105 Q 33.663 10.656 33.847 11.097 A 2.847 2.847 0 0 0 34.37 11.93 A 2.875 2.875 0 0 0 36.144 12.841 A 4.088 4.088 0 0 0 36.72 12.88 A 3.642 3.642 0 0 0 37.687 12.759 A 2.626 2.626 0 0 0 39 11.94 A 2.957 2.957 0 0 0 39.56 10.94 Q 39.71 10.5 39.774 9.961 A 7.205 7.205 0 0 0 39.82 9.12 A 7.314 7.314 0 0 0 39.743 8.022 Q 39.658 7.463 39.479 7.015 A 2.961 2.961 0 0 0 38.95 6.14 A 2.863 2.863 0 0 0 37.131 5.196 A 4.089 4.089 0 0 0 36.58 5.16 Q 35.08 5.16 34.29 6.13 A 3.062 3.062 0 0 0 33.779 7.078 Q 33.626 7.521 33.557 8.066 A 7.771 7.771 0 0 0 33.5 9.04 Z M 122.74 9.04 A 6.885 6.885 0 0 0 122.817 10.105 Q 122.903 10.656 123.087 11.097 A 2.847 2.847 0 0 0 123.61 11.93 A 2.875 2.875 0 0 0 125.384 12.841 A 4.088 4.088 0 0 0 125.96 12.88 A 3.642 3.642 0 0 0 126.927 12.759 A 2.626 2.626 0 0 0 128.24 11.94 A 2.957 2.957 0 0 0 128.8 10.94 Q 128.95 10.5 129.014 9.961 A 7.205 7.205 0 0 0 129.06 9.12 A 7.314 7.314 0 0 0 128.983 8.022 Q 128.898 7.463 128.719 7.015 A 2.961 2.961 0 0 0 128.19 6.14 A 2.863 2.863 0 0 0 126.371 5.196 A 4.089 4.089 0 0 0 125.82 5.16 Q 124.32 5.16 123.53 6.13 A 3.062 3.062 0 0 0 123.019 7.078 Q 122.866 7.521 122.797 8.066 A 7.771 7.771 0 0 0 122.74 9.04 Z M 172.54 9.04 A 6.885 6.885 0 0 0 172.617 10.105 Q 172.703 10.656 172.887 11.097 A 2.847 2.847 0 0 0 173.41 11.93 A 2.875 2.875 0 0 0 175.184 12.841 A 4.088 4.088 0 0 0 175.76 12.88 A 3.642 3.642 0 0 0 176.727 12.759 A 2.626 2.626 0 0 0 178.04 11.94 A 2.957 2.957 0 0 0 178.6 10.94 Q 178.75 10.5 178.814 9.961 A 7.205 7.205 0 0 0 178.86 9.12 A 7.314 7.314 0 0 0 178.783 8.022 Q 178.698 7.463 178.519 7.015 A 2.961 2.961 0 0 0 177.99 6.14 A 2.863 2.863 0 0 0 176.171 5.196 A 4.089 4.089 0 0 0 175.62 5.16 Q 174.12 5.16 173.33 6.13 A 3.062 3.062 0 0 0 172.819 7.078 Q 172.666 7.521 172.597 8.066 A 7.771 7.771 0 0 0 172.54 9.04 Z M 225.76 11.82 L 225.76 5.44 L 225.2 5.3 A 135.498 135.498 0 0 0 224.94 5.263 Q 224.807 5.244 224.66 5.224 A 227.454 227.454 0 0 0 224.56 5.21 Q 224.2 5.16 223.8 5.16 A 3.945 3.945 0 0 0 223.134 5.213 Q 222.707 5.287 222.36 5.46 Q 221.76 5.76 221.37 6.28 A 3.302 3.302 0 0 0 220.896 7.182 A 3.976 3.976 0 0 0 220.8 7.5 A 5.814 5.814 0 0 0 220.624 8.738 A 6.603 6.603 0 0 0 220.62 8.98 Q 220.62 9.68 220.77 10.38 A 4.614 4.614 0 0 0 221.04 11.239 A 3.971 3.971 0 0 0 221.24 11.64 A 3.123 3.123 0 0 0 221.644 12.2 A 2.612 2.612 0 0 0 222.02 12.54 A 1.733 1.733 0 0 0 222.882 12.868 A 2.23 2.23 0 0 0 223.12 12.88 A 2.631 2.631 0 0 0 223.805 12.786 A 3.122 3.122 0 0 0 224.02 12.72 Q 224.48 12.56 224.91 12.34 A 6.68 6.68 0 0 0 225.655 11.894 A 7.411 7.411 0 0 0 225.76 11.82 Z M 65.24 11.68 L 65.24 9.4 Q 64.84 9.42 64.48 9.44 Q 64.12 9.46 63.77 9.49 A 13.342 13.342 0 0 0 63.442 9.522 Q 63.287 9.539 63.149 9.559 A 7.702 7.702 0 0 0 63.14 9.56 A 9.019 9.019 0 0 0 62.434 9.675 Q 61.75 9.816 61.331 10.043 A 1.871 1.871 0 0 0 61.1 10.19 A 1.462 1.462 0 0 0 60.512 11.252 A 2.139 2.139 0 0 0 60.5 11.48 A 1.808 1.808 0 0 0 60.544 11.893 Q 60.613 12.186 60.789 12.392 A 1.087 1.087 0 0 0 60.93 12.53 A 1.502 1.502 0 0 0 61.536 12.822 Q 61.776 12.88 62.06 12.88 Q 63.02 12.88 63.77 12.55 Q 64.52 12.22 65.24 11.68 Z M 84.86 11.68 L 84.86 9.4 Q 84.46 9.42 84.1 9.44 Q 83.74 9.46 83.39 9.49 A 13.342 13.342 0 0 0 83.062 9.522 Q 82.907 9.539 82.769 9.559 A 7.702 7.702 0 0 0 82.76 9.56 A 9.019 9.019 0 0 0 82.054 9.675 Q 81.37 9.816 80.951 10.043 A 1.871 1.871 0 0 0 80.72 10.19 A 1.462 1.462 0 0 0 80.132 11.252 A 2.139 2.139 0 0 0 80.12 11.48 A 1.808 1.808 0 0 0 80.164 11.893 Q 80.233 12.186 80.409 12.392 A 1.087 1.087 0 0 0 80.55 12.53 A 1.502 1.502 0 0 0 81.156 12.822 Q 81.396 12.88 81.68 12.88 Q 82.64 12.88 83.39 12.55 Q 84.14 12.22 84.86 11.68 Z M 99.46 11.68 L 99.46 9.4 Q 99.06 9.42 98.7 9.44 Q 98.34 9.46 97.99 9.49 A 13.342 13.342 0 0 0 97.662 9.522 Q 97.507 9.539 97.369 9.559 A 7.702 7.702 0 0 0 97.36 9.56 A 9.019 9.019 0 0 0 96.654 9.675 Q 95.97 9.816 95.551 10.043 A 1.871 1.871 0 0 0 95.32 10.19 A 1.462 1.462 0 0 0 94.732 11.252 A 2.139 2.139 0 0 0 94.72 11.48 A 1.808 1.808 0 0 0 94.764 11.893 Q 94.833 12.186 95.009 12.392 A 1.087 1.087 0 0 0 95.15 12.53 A 1.502 1.502 0 0 0 95.756 12.822 Q 95.996 12.88 96.28 12.88 Q 97.24 12.88 97.99 12.55 Q 98.74 12.22 99.46 11.68 Z M 155.22 11.68 L 155.22 9.4 Q 154.82 9.42 154.46 9.44 Q 154.1 9.46 153.75 9.49 A 13.342 13.342 0 0 0 153.422 9.522 Q 153.267 9.539 153.129 9.559 A 7.702 7.702 0 0 0 153.12 9.56 A 9.019 9.019 0 0 0 152.414 9.675 Q 151.73 9.816 151.311 10.043 A 1.871 1.871 0 0 0 151.08 10.19 A 1.462 1.462 0 0 0 150.492 11.252 A 2.139 2.139 0 0 0 150.48 11.48 A 1.808 1.808 0 0 0 150.524 11.893 Q 150.593 12.186 150.769 12.392 A 1.087 1.087 0 0 0 150.91 12.53 A 1.502 1.502 0 0 0 151.516 12.822 Q 151.756 12.88 152.04 12.88 Q 153 12.88 153.75 12.55 Q 154.5 12.22 155.22 11.68 Z M 257 8.12 L 262.04 8.12 A 1.313 1.313 0 0 0 262.037 8.043 Q 262.027 7.875 261.98 7.5 A 3.448 3.448 0 0 0 261.847 6.9 A 4.374 4.374 0 0 0 261.7 6.5 A 2.537 2.537 0 0 0 261.16 5.703 A 3.019 3.019 0 0 0 261.02 5.57 A 1.57 1.57 0 0 0 260.308 5.213 A 2.301 2.301 0 0 0 259.8 5.16 A 3.313 3.313 0 0 0 259.212 5.209 Q 258.758 5.291 258.42 5.51 Q 257.88 5.86 257.56 6.34 A 3.271 3.271 0 0 0 257.244 6.932 A 2.765 2.765 0 0 0 257.12 7.32 A 6.12 6.12 0 0 0 257.057 7.613 Q 257 7.914 257 8.12 Z M 199.64 8.12 L 204.68 8.12 A 1.313 1.313 0 0 0 204.677 8.043 Q 204.667 7.875 204.62 7.5 A 3.448 3.448 0 0 0 204.487 6.9 A 4.374 4.374 0 0 0 204.34 6.5 A 2.537 2.537 0 0 0 203.8 5.703 A 3.019 3.019 0 0 0 203.66 5.57 A 1.57 1.57 0 0 0 202.948 5.213 A 2.301 2.301 0 0 0 202.44 5.16 A 3.313 3.313 0 0 0 201.852 5.209 Q 201.398 5.291 201.06 5.51 Q 200.52 5.86 200.2 6.34 A 3.271 3.271 0 0 0 199.884 6.932 A 2.765 2.765 0 0 0 199.76 7.32 A 6.12 6.12 0 0 0 199.697 7.613 Q 199.64 7.914 199.64 8.12 Z M 246.88 8.12 L 251.92 8.12 A 1.313 1.313 0 0 0 251.917 8.043 Q 251.907 7.875 251.86 7.5 A 3.448 3.448 0 0 0 251.727 6.9 A 4.374 4.374 0 0 0 251.58 6.5 A 2.537 2.537 0 0 0 251.04 5.703 A 3.019 3.019 0 0 0 250.9 5.57 A 1.57 1.57 0 0 0 250.188 5.213 A 2.301 2.301 0 0 0 249.68 5.16 A 3.313 3.313 0 0 0 249.092 5.209 Q 248.638 5.291 248.3 5.51 Q 247.76 5.86 247.44 6.34 A 3.271 3.271 0 0 0 247.124 6.932 A 2.765 2.765 0 0 0 247 7.32 A 6.12 6.12 0 0 0 246.937 7.613 Q 246.88 7.914 246.88 8.12 Z M 1.62 1.08 Q 1.62 0.62 1.93 0.31 A 1.043 1.043 0 0 1 2.686 0 A 1.356 1.356 0 0 1 2.7 0 Q 3.18 0 3.51 0.31 A 1.009 1.009 0 0 1 3.839 1.044 A 1.258 1.258 0 0 1 3.84 1.08 A 1.05 1.05 0 0 1 3.742 1.537 A 1.044 1.044 0 0 1 3.51 1.85 A 1.133 1.133 0 0 1 2.73 2.16 A 1.465 1.465 0 0 1 2.7 2.16 Q 2.24 2.16 1.93 1.85 A 1.043 1.043 0 0 1 1.62 1.094 A 1.356 1.356 0 0 1 1.62 1.08 Z M 54.84 1.08 Q 54.84 0.62 55.15 0.31 A 1.043 1.043 0 0 1 55.906 0 A 1.356 1.356 0 0 1 55.92 0 Q 56.4 0 56.73 0.31 A 1.009 1.009 0 0 1 57.059 1.044 A 1.258 1.258 0 0 1 57.06 1.08 A 1.05 1.05 0 0 1 56.962 1.537 A 1.044 1.044 0 0 1 56.73 1.85 A 1.133 1.133 0 0 1 55.95 2.16 A 1.465 1.465 0 0 1 55.92 2.16 Q 55.46 2.16 55.15 1.85 A 1.043 1.043 0 0 1 54.84 1.094 A 1.356 1.356 0 0 1 54.84 1.08 Z M 27.62 1.08 Q 27.62 0.62 27.93 0.31 A 1.043 1.043 0 0 1 28.686 0 A 1.356 1.356 0 0 1 28.7 0 Q 29.18 0 29.51 0.31 A 1.009 1.009 0 0 1 29.839 1.044 A 1.258 1.258 0 0 1 29.84 1.08 A 1.05 1.05 0 0 1 29.742 1.537 A 1.044 1.044 0 0 1 29.51 1.85 A 1.133 1.133 0 0 1 28.73 2.16 A 1.465 1.465 0 0 1 28.7 2.16 Q 28.24 2.16 27.93 1.85 A 1.043 1.043 0 0 1 27.62 1.094 A 1.356 1.356 0 0 1 27.62 1.08 Z M 166.66 1.08 Q 166.66 0.62 166.97 0.31 A 1.043 1.043 0 0 1 167.726 0 A 1.356 1.356 0 0 1 167.74 0 Q 168.22 0 168.55 0.31 A 1.009 1.009 0 0 1 168.879 1.044 A 1.258 1.258 0 0 1 168.88 1.08 A 1.05 1.05 0 0 1 168.782 1.537 A 1.044 1.044 0 0 1 168.55 1.85 A 1.133 1.133 0 0 1 167.77 2.16 A 1.465 1.465 0 0 1 167.74 2.16 Q 167.28 2.16 166.97 1.85 A 1.043 1.043 0 0 1 166.66 1.094 A 1.356 1.356 0 0 1 166.66 1.08 Z M 229.96 1.08 Q 229.96 0.62 230.27 0.31 A 1.043 1.043 0 0 1 231.026 0 A 1.356 1.356 0 0 1 231.04 0 Q 231.52 0 231.85 0.31 A 1.009 1.009 0 0 1 232.179 1.044 A 1.258 1.258 0 0 1 232.18 1.08 A 1.05 1.05 0 0 1 232.082 1.537 A 1.044 1.044 0 0 1 231.85 1.85 A 1.133 1.133 0 0 1 231.07 2.16 A 1.465 1.465 0 0 1 231.04 2.16 Q 230.58 2.16 230.27 1.85 A 1.043 1.043 0 0 1 229.96 1.094 A 1.356 1.356 0 0 1 229.96 1.08 Z"    <path
       id="path12"
       fill="white"
       d="M1285.11 267.821H1288.68V278.535H1285.1L1285.11 267.821ZM1294.93 267.821H1298.5V278.535H1294.93V267.821ZM1273.5 258L1264.57 266.929V299.071H1275.29V308L1284.21 299.071H1291.36L1307.43 283V258H1273.5ZM1303.86 281.215L1296.71 288.356H1289.57L1283.32 294.606V288.356H1275.29V261.571H1303.86V281.215Z" />
    <path
       id="path14"
       fill="white"
       d="M1328.99 301.62V297.444H1334.17C1335.32 297.444 1336.25 297.084 1336.94 296.364C1337.66 295.668 1338.02 294.744 1338.02 293.592V279.876H1330.07V275.7H1342.52V293.592C1342.52 294.792 1342.32 295.884 1341.91 296.868C1341.53 297.876 1340.98 298.728 1340.26 299.424C1339.56 300.12 1338.71 300.66 1337.7 301.044C1336.72 301.428 1335.61 301.62 1334.39 301.62H1328.99ZM1337.23 270.372C1337.23 269.652 1337.46 269.076 1337.92 268.644C1338.37 268.188 1338.98 267.96 1339.75 267.96H1340.47C1341.24 267.96 1341.86 268.188 1342.34 268.644C1342.82 269.076 1343.06 269.652 1343.06 270.372C1343.06 271.092 1342.82 271.668 1342.34 272.1C1341.86 272.508 1341.24 272.712 1340.47 272.712H1339.75C1338.98 272.712 1338.37 272.496 1337.92 272.064C1337.46 271.632 1337.23 271.068 1337.23 270.372ZM1350.21 269.58H1354.71V275.7C1354.71 276.06 1354.7 276.444 1354.68 276.852C1354.65 277.236 1354.62 277.596 1354.57 277.932C1354.55 278.268 1354.52 278.556 1354.5 278.796C1354.47 279.012 1354.46 279.12 1354.46 279.12H1354.79C1355.03 277.92 1355.6 276.996 1356.51 276.348C1357.43 275.676 1358.6 275.34 1360.04 275.34C1362.03 275.34 1363.62 275.988 1364.79 277.284C1365.97 278.58 1366.56 280.344 1366.56 282.576V295.5H1362.06V283.116C1362.06 281.892 1361.73 280.944 1361.09 280.272C1360.44 279.576 1359.55 279.228 1358.42 279.228C1357.27 279.228 1356.36 279.588 1355.69 280.308C1355.04 281.004 1354.71 281.964 1354.71 283.188V295.5H1350.21V269.58ZM1379.94 295.86C1378.71 295.86 1377.58 295.704 1376.55 295.392C1375.52 295.056 1374.62 294.588 1373.85 293.988C1373.08 293.364 1372.47 292.62 1372.02 291.756C1371.56 290.892 1371.28 289.92 1371.19 288.84H1375.69C1375.83 289.8 1376.29 290.58 1377.06 291.18C1377.85 291.756 1378.81 292.044 1379.94 292.044C1381.23 292.044 1382.26 291.648 1383.03 290.856C1383.82 290.064 1384.22 289.02 1384.22 287.724C1384.22 286.428 1383.81 285.396 1383 284.628C1382.2 283.836 1381.12 283.44 1379.76 283.44H1376.62V279.156L1380.76 275.232C1381.39 274.704 1381.98 274.248 1382.53 273.864C1382.82 273.672 1383.12 273.48 1383.43 273.288V273.072C1383.12 273.144 1382.77 273.192 1382.38 273.216C1381.71 273.336 1380.91 273.396 1379.97 273.396H1372.27V269.58H1387.6V273.9L1382.35 278.508C1382.16 278.676 1381.96 278.832 1381.77 278.976C1381.58 279.12 1381.4 279.252 1381.23 279.372C1381.04 279.492 1380.86 279.6 1380.69 279.696C1381.92 279.744 1383.02 279.972 1384 280.38C1385.01 280.788 1385.86 281.34 1386.56 282.036C1387.28 282.732 1387.82 283.56 1388.18 284.52C1388.56 285.48 1388.76 286.548 1388.76 287.724C1388.76 288.948 1388.54 290.064 1388.11 291.072C1387.7 292.08 1387.11 292.944 1386.34 293.664C1385.58 294.36 1384.65 294.9 1383.57 295.284C1382.49 295.668 1381.28 295.86 1379.94 295.86ZM1392.02 275.7H1396.91L1400.87 286.32C1401.04 286.776 1401.17 287.232 1401.27 287.688C1401.36 288.144 1401.44 288.576 1401.48 288.984C1401.53 289.416 1401.57 289.848 1401.59 290.28H1402.02C1402.05 289.872 1402.08 289.44 1402.13 288.984C1402.18 288.6 1402.24 288.18 1402.31 287.724C1402.41 287.244 1402.54 286.776 1402.71 286.32L1406.42 275.7H1411.2L1401.66 301.62H1396.91L1399.65 294.384L1392.02 275.7ZM1413.6 275.7H1418.5L1422.46 286.32C1422.63 286.776 1422.76 287.232 1422.85 287.688C1422.95 288.144 1423.02 288.576 1423.07 288.984C1423.12 289.416 1423.15 289.848 1423.18 290.28H1423.61C1423.63 289.872 1423.67 289.44 1423.72 288.984C1423.77 288.6 1423.83 288.18 1423.9 287.724C1423.99 287.244 1424.13 286.776 1424.29 286.32L1428 275.7H1432.79L1423.25 301.62H1418.5L1421.23 294.384L1413.6 275.7Z" />
    <path
       id="path16"
       fill="white"
       d="M1286 328C1279.21 328 1278.36 328.031 1275.69 328.15C1273.03 328.275 1271.22 328.694 1269.62 329.312C1267.98 329.95 1266.59 330.806 1265.2 332.196C1263.81 333.585 1262.95 334.979 1262.31 336.625C1261.69 338.219 1261.27 340.031 1261.15 342.694C1261.02 345.36 1261 346.208 1261 353C1261 359.792 1261.03 360.64 1261.15 363.306C1261.27 365.967 1261.69 367.781 1262.31 369.375C1262.95 371.017 1263.81 372.415 1265.2 373.804C1266.59 375.192 1267.98 376.052 1269.62 376.688C1271.22 377.304 1273.03 377.727 1275.69 377.85C1278.36 377.975 1279.21 378 1286 378C1292.79 378 1293.64 377.969 1296.31 377.85C1298.97 377.725 1300.78 377.304 1302.38 376.688C1304.02 376.05 1305.41 375.192 1306.8 373.804C1308.19 372.415 1309.05 371.023 1309.69 369.375C1310.3 367.781 1310.73 365.967 1310.85 363.306C1310.97 360.64 1311 359.792 1311 353C1311 346.208 1310.97 345.36 1310.85 342.694C1310.72 340.033 1310.3 338.217 1309.69 336.625C1309.05 334.981 1308.19 333.585 1306.8 332.196C1305.41 330.806 1304.02 329.948 1302.38 329.312C1300.78 328.694 1298.97 328.273 1296.31 328.15C1293.64 328.025 1292.79 328 1286 328ZM1286 332.5C1292.67 332.5 1293.47 332.533 1296.1 332.648C1298.54 332.762 1299.86 333.167 1300.74 333.512C1301.91 333.965 1302.74 334.506 1303.62 335.379C1304.5 336.254 1305.04 337.085 1305.49 338.256C1305.83 339.135 1306.24 340.458 1306.35 342.896C1306.47 345.533 1306.5 346.325 1306.5 353C1306.5 359.675 1306.46 360.469 1306.34 363.104C1306.21 365.542 1305.81 366.865 1305.46 367.744C1305 368.915 1304.47 369.744 1303.59 370.623C1302.72 371.496 1301.87 372.037 1300.72 372.49C1299.84 372.831 1298.5 373.24 1296.06 373.35C1293.41 373.469 1292.62 373.496 1285.94 373.496C1279.25 373.496 1278.47 373.465 1275.81 373.342C1273.38 373.215 1272.03 372.808 1271.16 372.465C1269.97 371.998 1269.16 371.467 1268.28 370.592C1267.41 369.719 1266.85 368.875 1266.41 367.717C1266.06 366.842 1265.66 365.498 1265.53 363.06C1265.44 360.435 1265.41 359.625 1265.41 352.969C1265.41 346.31 1265.44 345.498 1265.53 342.842C1265.66 340.404 1266.06 339.062 1266.41 338.187C1266.85 337 1267.41 336.188 1268.28 335.31C1269.16 334.438 1269.97 333.875 1271.16 333.44C1272.03 333.094 1273.35 332.688 1275.78 332.562C1278.44 332.469 1279.22 332.438 1285.91 332.438L1286 332.5ZM1286 340.162C1278.91 340.162 1273.16 345.912 1273.16 353C1273.16 360.094 1278.91 365.838 1286 365.838C1293.09 365.838 1298.84 360.087 1298.84 353C1298.84 345.906 1293.09 340.162 1286 340.162ZM1286 361.333C1281.4 361.333 1277.67 357.604 1277.67 353C1277.67 348.396 1281.4 344.667 1286 344.667C1290.6 344.667 1294.33 348.396 1294.33 353C1294.33 357.604 1290.6 361.333 1286 361.333ZM1302.35 339.656C1302.35 341.312 1301 342.656 1299.35 342.656C1297.69 342.656 1296.35 341.31 1296.35 339.656C1296.35 338.002 1297.69 336.658 1299.35 336.658C1301 336.656 1302.35 338.002 1302.35 339.656Z" />
    <path
       id="path18"
       fill="white"
       d="M1329.4 371.62V367.444H1334.59C1335.74 367.444 1336.66 367.084 1337.36 366.364C1338.08 365.668 1338.44 364.744 1338.44 363.592V349.876H1330.48V345.7H1342.94V363.592C1342.94 364.792 1342.73 365.884 1342.33 366.868C1341.94 367.876 1341.39 368.728 1340.67 369.424C1339.97 370.12 1339.12 370.66 1338.11 371.044C1337.13 371.428 1336.03 371.62 1334.8 371.62H1329.4ZM1337.65 340.372C1337.65 339.652 1337.87 339.076 1338.33 338.644C1338.79 338.188 1339.4 337.96 1340.17 337.96H1340.89C1341.65 337.96 1342.28 338.188 1342.76 338.644C1343.24 339.076 1343.48 339.652 1343.48 340.372C1343.48 341.092 1343.24 341.668 1342.76 342.1C1342.28 342.508 1341.65 342.712 1340.89 342.712H1340.17C1339.4 342.712 1338.79 342.496 1338.33 342.064C1337.87 341.632 1337.65 341.068 1337.65 340.372ZM1350.63 339.58H1355.13V345.7C1355.13 346.06 1355.12 346.444 1355.09 346.852C1355.07 347.236 1355.03 347.596 1354.98 347.932C1354.96 348.268 1354.94 348.556 1354.91 348.796C1354.89 349.012 1354.88 349.12 1354.88 349.12H1355.2C1355.44 347.92 1356.02 346.996 1356.93 346.348C1357.84 345.676 1359.02 345.34 1360.46 345.34C1362.45 345.34 1364.03 345.988 1365.21 347.284C1366.38 348.58 1366.97 350.344 1366.97 352.576V365.5H1362.47V353.116C1362.47 351.892 1362.15 350.944 1361.5 350.272C1360.85 349.576 1359.96 349.228 1358.84 349.228C1357.68 349.228 1356.77 349.588 1356.1 350.308C1355.45 351.004 1355.13 351.964 1355.13 353.188V365.5H1350.63V339.58ZM1380.35 365.86C1379.13 365.86 1378 365.704 1376.97 365.392C1375.93 365.056 1375.03 364.588 1374.27 363.988C1373.5 363.364 1372.89 362.62 1372.43 361.756C1371.97 360.892 1371.7 359.92 1371.6 358.84H1376.1C1376.25 359.8 1376.7 360.58 1377.47 361.18C1378.26 361.756 1379.22 362.044 1380.35 362.044C1381.65 362.044 1382.68 361.648 1383.45 360.856C1384.24 360.064 1384.63 359.02 1384.63 357.724C1384.63 356.428 1384.23 355.396 1383.41 354.628C1382.62 353.836 1381.54 353.44 1380.17 353.44H1377.04V349.156L1381.18 345.232C1381.8 344.704 1382.39 344.248 1382.94 343.864C1383.23 343.672 1383.53 343.48 1383.84 343.288V343.072C1383.53 343.144 1383.18 343.192 1382.8 343.216C1382.13 343.336 1381.32 343.396 1380.39 343.396H1372.68V339.58H1388.02V343.9L1382.76 348.508C1382.57 348.676 1382.38 348.832 1382.19 348.976C1381.99 349.12 1381.81 349.252 1381.65 349.372C1381.45 349.492 1381.27 349.6 1381.11 349.696C1382.33 349.744 1383.43 349.972 1384.42 350.38C1385.43 350.788 1386.28 351.34 1386.97 352.036C1387.69 352.732 1388.23 353.56 1388.59 354.52C1388.98 355.48 1389.17 356.548 1389.17 357.724C1389.17 358.948 1388.95 360.064 1388.52 361.072C1388.11 362.08 1387.53 362.944 1386.76 363.664C1385.99 364.36 1385.07 364.9 1383.99 365.284C1382.91 365.668 1381.69 365.86 1380.35 365.86ZM1392.43 345.7H1397.33L1401.29 356.32C1401.46 356.776 1401.59 357.232 1401.68 357.688C1401.78 358.144 1401.85 358.576 1401.9 358.984C1401.95 359.416 1401.98 359.848 1402.01 360.28H1402.44C1402.46 359.872 1402.5 359.44 1402.55 358.984C1402.6 358.6 1402.66 358.18 1402.73 357.724C1402.82 357.244 1402.96 356.776 1403.12 356.32L1406.83 345.7H1411.62L1402.08 371.62H1397.33L1400.06 364.384L1392.43 345.7ZM1414.02 345.7H1418.91L1422.87 356.32C1423.04 356.776 1423.17 357.232 1423.27 357.688C1423.36 358.144 1423.44 358.576 1423.48 358.984C1423.53 359.416 1423.57 359.848 1423.59 360.28H1424.02C1424.05 359.872 1424.08 359.44 1424.13 358.984C1424.18 358.6 1424.24 358.18 1424.31 357.724C1424.41 357.244 1424.54 356.776 1424.71 356.32L1428.42 345.7H1433.2L1423.66 371.62H1418.91L1421.65 364.384L1414.02 345.7ZM1435.6 345.7H1440.5L1444.46 356.32C1444.63 356.776 1444.76 357.232 1444.85 357.688C1444.95 358.144 1445.02 358.576 1445.07 358.984C1445.12 359.416 1445.15 359.848 1445.18 360.28H1445.61C1445.63 359.872 1445.67 359.44 1445.72 358.984C1445.77 358.6 1445.83 358.18 1445.9 357.724C1445.99 357.244 1446.13 356.776 1446.29 356.32L1450 345.7H1454.79L1445.25 371.62H1440.5L1443.23 364.384L1435.6 345.7ZM1457.19 345.7H1462.08L1466.04 356.32C1466.21 356.776 1466.34 357.232 1466.44 357.688C1466.54 358.144 1466.61 358.576 1466.66 358.984C1466.7 359.416 1466.74 359.848 1466.76 360.28H1467.2C1467.22 359.872 1467.26 359.44 1467.3 358.984C1467.35 358.6 1467.41 358.18 1467.48 357.724C1467.58 357.244 1467.71 356.776 1467.88 356.32L1471.59 345.7H1476.38L1466.84 371.62H1462.08L1464.82 364.384L1457.19 345.7Z" />
    <path
       id="path20"
       fill="white"
       d="M1276.46 138.938C1276.08 138.604 1275.5 138.458 1274.71 138.458H1273.5L1273.54 143.542L1273.62 148.646L1274.79 148.604C1275.65 148.604 1276.1 148.458 1276.52 148.063C1277.02 147.563 1277.06 147.313 1277.06 143.479C1277.06 139.5 1277.02 139.396 1276.46 138.938ZM1261 128.292V157.708H1311V128.292H1261ZM1278.83 149.875C1277.92 151.083 1276.62 151.479 1273.56 151.479H1270.81V135.771H1273.73C1277.21 135.771 1278.23 136.146 1279.15 137.646C1279.71 138.542 1279.75 138.896 1279.81 143C1279.92 147.646 1279.77 148.688 1278.83 149.875ZM1289.44 138.479H1284.29V142.167H1287.46V144.833L1285.96 144.917L1284.4 144.979V148.667L1286.94 148.729L1289.44 148.813V151.479H1286.1C1282.92 151.479 1282.77 151.458 1282.21 150.854L1281.58 150.271V143.688C1281.58 137.396 1281.6 137.063 1282.1 136.438C1282.58 135.792 1282.62 135.792 1286.02 135.792H1289.44V138.5V138.479ZM1299.19 149.833C1298.83 150.729 1297.85 151.479 1297.1 151.479C1296.73 151.479 1296.17 151.167 1295.71 150.667C1295.04 150 1294.77 149.354 1294 146.333L1292.12 139.271L1291.19 135.792H1292.77C1293.6 135.792 1294.33 135.833 1294.33 135.896C1294.33 136.021 1296.75 145.354 1296.96 145.958C1297.04 146.271 1297.62 144.5 1298.48 141.167L1299.85 135.917L1301.4 135.833C1302.23 135.792 1302.92 135.833 1302.92 135.917C1302.92 136.208 1299.44 149.208 1299.17 149.833H1299.19Z" />
    <path
       id="path22"
       fill="white"
       d="M1329.28 161.62V157.444H1334.46C1335.62 157.444 1336.54 157.084 1337.24 156.364C1337.96 155.668 1338.32 154.744 1338.32 153.592V139.876H1330.36V135.7H1342.82V153.592C1342.82 154.792 1342.61 155.884 1342.2 156.868C1341.82 157.876 1341.27 158.728 1340.55 159.424C1339.85 160.12 1339 160.66 1337.99 161.044C1337.01 161.428 1335.9 161.62 1334.68 161.62H1329.28ZM1337.52 130.372C1337.52 129.652 1337.75 129.076 1338.21 128.644C1338.66 128.188 1339.28 127.96 1340.04 127.96H1340.76C1341.53 127.96 1342.16 128.188 1342.64 128.644C1343.12 129.076 1343.36 129.652 1343.36 130.372C1343.36 131.092 1343.12 131.668 1342.64 132.1C1342.16 132.508 1341.53 132.712 1340.76 132.712H1340.04C1339.28 132.712 1338.66 132.496 1338.21 132.064C1337.75 131.632 1337.52 131.068 1337.52 130.372ZM1350.51 129.58H1355.01V135.7C1355.01 136.06 1354.99 136.444 1354.97 136.852C1354.95 137.236 1354.91 137.596 1354.86 137.932C1354.84 138.268 1354.81 138.556 1354.79 138.796C1354.77 139.012 1354.75 139.12 1354.75 139.12H1355.08C1355.32 137.92 1355.89 136.996 1356.81 136.348C1357.72 135.676 1358.89 135.34 1360.33 135.34C1362.33 135.34 1363.91 135.988 1365.09 137.284C1366.26 138.58 1366.85 140.344 1366.85 142.576V155.5H1362.35V143.116C1362.35 141.892 1362.03 140.944 1361.38 140.272C1360.73 139.576 1359.84 139.228 1358.71 139.228C1357.56 139.228 1356.65 139.588 1355.98 140.308C1355.33 141.004 1355.01 141.964 1355.01 143.188V155.5H1350.51V129.58ZM1380.23 155.86C1379 155.86 1377.88 155.704 1376.84 155.392C1375.81 155.056 1374.91 154.588 1374.14 153.988C1373.38 153.364 1372.76 152.62 1372.31 151.756C1371.85 150.892 1371.58 149.92 1371.48 148.84H1375.98C1376.12 149.8 1376.58 150.58 1377.35 151.18C1378.14 151.756 1379.1 152.044 1380.23 152.044C1381.52 152.044 1382.56 151.648 1383.32 150.856C1384.12 150.064 1384.51 149.02 1384.51 147.724C1384.51 146.428 1384.1 145.396 1383.29 144.628C1382.5 143.836 1381.42 143.44 1380.05 143.44H1376.92V139.156L1381.06 135.232C1381.68 134.704 1382.27 134.248 1382.82 133.864C1383.11 133.672 1383.41 133.48 1383.72 133.288V133.072C1383.41 133.144 1383.06 133.192 1382.68 133.216C1382 133.336 1381.2 133.396 1380.26 133.396H1372.56V129.58H1387.9V133.9L1382.64 138.508C1382.45 138.676 1382.26 138.832 1382.06 138.976C1381.87 139.12 1381.69 139.252 1381.52 139.372C1381.33 139.492 1381.15 139.6 1380.98 139.696C1382.21 139.744 1383.31 139.972 1384.3 140.38C1385.3 140.788 1386.16 141.34 1386.85 142.036C1387.57 142.732 1388.11 143.56 1388.47 144.52C1388.86 145.48 1389.05 146.548 1389.05 147.724C1389.05 148.948 1388.83 150.064 1388.4 151.072C1387.99 152.08 1387.4 152.944 1386.64 153.664C1385.87 154.36 1384.94 154.9 1383.86 155.284C1382.78 155.668 1381.57 155.86 1380.23 155.86ZM1392.31 135.7H1397.21L1401.17 146.32C1401.33 146.776 1401.47 147.232 1401.56 147.688C1401.66 148.144 1401.73 148.576 1401.78 148.984C1401.83 149.416 1401.86 149.848 1401.89 150.28H1402.32C1402.34 149.872 1402.38 149.44 1402.43 148.984C1402.47 148.6 1402.53 148.18 1402.61 147.724C1402.7 147.244 1402.83 146.776 1403 146.32L1406.71 135.7H1411.5L1401.96 161.62H1397.21L1399.94 154.384L1392.31 135.7Z" />
    <path
       id="path24"
       fill="white"
       d="M1298.8 75.2229V70.7771L1295.48 73L1298.8 75.2229ZM1301.46 77.7104C1301.46 77.7683 1301.45 77.826 1301.45 77.8833L1301.44 77.9417L1301.41 78.0521L1301.39 78.1167C1301.38 78.15 1301.37 78.1812 1301.36 78.2146L1301.33 78.2771C1301.31 78.3074 1301.3 78.3373 1301.28 78.3667L1301.24 78.4292C1301.2 78.5047 1301.14 78.5745 1301.08 78.6375L1301.02 78.6896C1301 78.7114 1300.97 78.7322 1300.95 78.7521L1300.89 78.7979L1300.87 78.8146L1286.74 88.2354C1286.52 88.3813 1286.26 88.4592 1286 88.4592C1285.74 88.4592 1285.48 88.3813 1285.26 88.2354L1271.13 78.8125L1271.11 78.7958C1271.06 78.7629 1271.02 78.7267 1270.98 78.6875L1270.92 78.6354L1270.86 78.5646L1270.81 78.5062C1270.76 78.4352 1270.71 78.3584 1270.67 78.2771L1270.64 78.2125C1270.63 78.1803 1270.62 78.1477 1270.61 78.1146L1270.59 78.0521C1270.58 78.0146 1270.57 77.9771 1270.57 77.9396L1270.55 77.8813C1270.55 77.8239 1270.54 77.7662 1270.54 77.7083V68.2896C1270.54 68.2313 1270.55 68.175 1270.55 68.1167L1270.56 68.0604L1270.59 67.9479L1270.61 67.8854C1270.66 67.7183 1270.74 67.564 1270.86 67.4333L1270.92 67.3625L1270.98 67.3104C1271.02 67.2713 1271.06 67.2351 1271.11 67.2021L1271.13 67.1854L1285.26 57.7667C1285.48 57.621 1285.74 57.5433 1286 57.5433C1286.26 57.5433 1286.52 57.621 1286.74 57.7667L1300.87 67.1854L1300.89 67.2021L1300.95 67.2479L1301.02 67.3104C1301.04 67.3271 1301.06 67.3437 1301.08 67.3625C1301.14 67.4252 1301.2 67.4951 1301.24 67.5708L1301.28 67.6333C1301.3 67.6626 1301.31 67.6925 1301.33 67.7229L1301.36 67.7854C1301.37 67.8187 1301.38 67.8521 1301.39 67.8833L1301.41 67.9479C1301.42 67.9854 1301.43 68.0229 1301.43 68.0604L1301.45 68.1167C1301.45 68.174 1301.46 68.2317 1301.46 68.2896V77.7104ZM1286 48C1272.19 48 1261 59.1917 1261 73C1261 86.8062 1272.19 98 1286 98C1299.81 98 1311 86.8083 1311 73C1311 59.1937 1299.81 48 1286 48ZM1286 69.8583L1281.3 73L1286 76.1458L1290.7 73L1286 69.8583ZM1287.33 78.45V84.6479L1297.74 77.7104L1293.09 74.6L1287.33 78.45ZM1274.26 77.7083L1284.67 84.6458V78.45L1278.91 74.5979L1274.26 77.7083ZM1297.74 68.2917L1287.33 61.3542V67.55L1293.09 71.4042L1297.74 68.2917ZM1284.67 67.55V61.3542L1274.26 68.2917L1278.91 71.4021L1284.67 67.55ZM1273.2 70.7771V75.2229L1276.52 73L1273.2 70.7771Z" />
    <path
       id="path26"
       fill="white"
       d="M1329.28 91.62V87.444H1334.46C1335.62 87.444 1336.54 87.084 1337.24 86.364C1337.96 85.668 1338.32 84.744 1338.32 83.592V69.876H1330.36V65.7H1342.82V83.592C1342.82 84.792 1342.61 85.884 1342.2 86.868C1341.82 87.876 1341.27 88.728 1340.55 89.424C1339.85 90.12 1339 90.66 1337.99 91.044C1337.01 91.428 1335.9 91.62 1334.68 91.62H1329.28ZM1337.52 60.372C1337.52 59.652 1337.75 59.076 1338.21 58.644C1338.66 58.188 1339.28 57.96 1340.04 57.96H1340.76C1341.53 57.96 1342.16 58.188 1342.64 58.644C1343.12 59.076 1343.36 59.652 1343.36 60.372C1343.36 61.092 1343.12 61.668 1342.64 62.1C1342.16 62.508 1341.53 62.712 1340.76 62.712H1340.04C1339.28 62.712 1338.66 62.496 1338.21 62.064C1337.75 61.632 1337.52 61.068 1337.52 60.372ZM1350.51 59.58H1355.01V65.7C1355.01 66.06 1354.99 66.444 1354.97 66.852C1354.95 67.236 1354.91 67.596 1354.86 67.932C1354.84 68.268 1354.81 68.556 1354.79 68.796C1354.77 69.012 1354.75 69.12 1354.75 69.12H1355.08C1355.32 67.92 1355.89 66.996 1356.81 66.348C1357.72 65.676 1358.89 65.34 1360.33 65.34C1362.33 65.34 1363.91 65.988 1365.09 67.284C1366.26 68.58 1366.85 70.344 1366.85 72.576V85.5H1362.35V73.116C1362.35 71.892 1362.03 70.944 1361.38 70.272C1360.73 69.576 1359.84 69.228 1358.71 69.228C1357.56 69.228 1356.65 69.588 1355.98 70.308C1355.33 71.004 1355.01 71.964 1355.01 73.188V85.5H1350.51V59.58ZM1380.23 85.86C1379 85.86 1377.88 85.704 1376.84 85.392C1375.81 85.056 1374.91 84.588 1374.14 83.988C1373.38 83.364 1372.76 82.62 1372.31 81.756C1371.85 80.892 1371.58 79.92 1371.48 78.84H1375.98C1376.12 79.8 1376.58 80.58 1377.35 81.18C1378.14 81.756 1379.1 82.044 1380.23 82.044C1381.52 82.044 1382.56 81.648 1383.32 80.856C1384.12 80.064 1384.51 79.02 1384.51 77.724C1384.51 76.428 1384.1 75.396 1383.29 74.628C1382.5 73.836 1381.42 73.44 1380.05 73.44H1376.92V69.156L1381.06 65.232C1381.68 64.704 1382.27 64.248 1382.82 63.864C1383.11 63.672 1383.41 63.48 1383.72 63.288V63.072C1383.41 63.144 1383.06 63.192 1382.68 63.216C1382 63.336 1381.2 63.396 1380.26 63.396H1372.56V59.58H1387.9V63.9L1382.64 68.508C1382.45 68.676 1382.26 68.832 1382.06 68.976C1381.87 69.12 1381.69 69.252 1381.52 69.372C1381.33 69.492 1381.15 69.6 1380.98 69.696C1382.21 69.744 1383.31 69.972 1384.3 70.38C1385.3 70.788 1386.16 71.34 1386.85 72.036C1387.57 72.732 1388.11 73.56 1388.47 74.52C1388.86 75.48 1389.05 76.548 1389.05 77.724C1389.05 78.948 1388.83 80.064 1388.4 81.072C1387.99 82.08 1387.4 82.944 1386.64 83.664C1385.87 84.36 1384.94 84.9 1383.86 85.284C1382.78 85.668 1381.57 85.86 1380.23 85.86ZM1392.31 65.7H1397.21L1401.17 76.32C1401.33 76.776 1401.47 77.232 1401.56 77.688C1401.66 78.144 1401.73 78.576 1401.78 78.984C1401.83 79.416 1401.86 79.848 1401.89 80.28H1402.32C1402.34 79.872 1402.38 79.44 1402.43 78.984C1402.47 78.6 1402.53 78.18 1402.61 77.724C1402.7 77.244 1402.83 76.776 1403 76.32L1406.71 65.7H1411.5L1401.96 91.62H1397.21L1399.94 84.384L1392.31 65.7Z" />
    <g
       id="g32"
       clip-path="url(#clip1)">
      <path
         id="path30"
         fill="white"
         d="M1310.9 197.519C1309.06 198.329 1307.09 198.881 1305.02 199.133C1307.13 197.86 1308.76 195.854 1309.52 193.46C1307.54 194.617 1305.35 195.458 1303.01 195.927C1301.14 193.929 1298.48 192.679 1295.53 192.679C1289.87 192.679 1285.28 197.269 1285.28 202.923C1285.28 203.735 1285.37 204.517 1285.54 205.265C1277.02 204.862 1269.47 200.771 1264.42 194.585C1263.53 196.09 1263.03 197.837 1263.03 199.742C1263.03 203.304 1264.84 206.435 1267.59 208.275C1265.91 208.221 1264.32 207.758 1262.95 206.992V207.119C1262.95 212.087 1266.47 216.231 1271.17 217.175C1270.31 217.406 1269.4 217.531 1268.47 217.531C1267.81 217.531 1267.19 217.469 1266.56 217.352C1267.87 221.421 1271.65 224.387 1276.15 224.471C1272.65 227.219 1268.21 228.856 1263.44 228.856C1262.62 228.856 1261.81 228.808 1261 228.717C1265.56 231.621 1270.93 233.319 1276.74 233.319C1295.61 233.319 1305.91 217.702 1305.91 204.181C1305.91 203.746 1305.91 203.306 1305.88 202.869C1307.88 201.433 1309.63 199.619 1311 197.56L1310.9 197.519Z" />
    </g>
    <path
       id="path34"
       fill="white"
       d="M1328.99 231.62V227.444H1334.17C1335.32 227.444 1336.25 227.084 1336.94 226.364C1337.66 225.668 1338.02 224.744 1338.02 223.592V209.876H1330.07V205.7H1342.52V223.592C1342.52 224.792 1342.32 225.884 1341.91 226.868C1341.53 227.876 1340.98 228.728 1340.26 229.424C1339.56 230.12 1338.71 230.66 1337.7 231.044C1336.72 231.428 1335.61 231.62 1334.39 231.62H1328.99ZM1337.23 200.372C1337.23 199.652 1337.46 199.076 1337.92 198.644C1338.37 198.188 1338.98 197.96 1339.75 197.96H1340.47C1341.24 197.96 1341.86 198.188 1342.34 198.644C1342.82 199.076 1343.06 199.652 1343.06 200.372C1343.06 201.092 1342.82 201.668 1342.34 202.1C1341.86 202.508 1341.24 202.712 1340.47 202.712H1339.75C1338.98 202.712 1338.37 202.496 1337.92 202.064C1337.46 201.632 1337.23 201.068 1337.23 200.372ZM1350.21 199.58H1354.71V205.7C1354.71 206.06 1354.7 206.444 1354.68 206.852C1354.65 207.236 1354.62 207.596 1354.57 207.932C1354.55 208.268 1354.52 208.556 1354.5 208.796C1354.47 209.012 1354.46 209.12 1354.46 209.12H1354.79C1355.03 207.92 1355.6 206.996 1356.51 206.348C1357.43 205.676 1358.6 205.34 1360.04 205.34C1362.03 205.34 1363.62 205.988 1364.79 207.284C1365.97 208.58 1366.56 210.344 1366.56 212.576V225.5H1362.06V213.116C1362.06 211.892 1361.73 210.944 1361.09 210.272C1360.44 209.576 1359.55 209.228 1358.42 209.228C1357.27 209.228 1356.36 209.588 1355.69 210.308C1355.04 211.004 1354.71 211.964 1354.71 213.188V225.5H1350.21V199.58ZM1379.94 225.86C1378.71 225.86 1377.58 225.704 1376.55 225.392C1375.52 225.056 1374.62 224.588 1373.85 223.988C1373.08 223.364 1372.47 222.62 1372.02 221.756C1371.56 220.892 1371.28 219.92 1371.19 218.84H1375.69C1375.83 219.8 1376.29 220.58 1377.06 221.18C1377.85 221.756 1378.81 222.044 1379.94 222.044C1381.23 222.044 1382.26 221.648 1383.03 220.856C1383.82 220.064 1384.22 219.02 1384.22 217.724C1384.22 216.428 1383.81 215.396 1383 214.628C1382.2 213.836 1381.12 213.44 1379.76 213.44H1376.62V209.156L1380.76 205.232C1381.39 204.704 1381.98 204.248 1382.53 203.864C1382.82 203.672 1383.12 203.48 1383.43 203.288V203.072C1383.12 203.144 1382.77 203.192 1382.38 203.216C1381.71 203.336 1380.91 203.396 1379.97 203.396H1372.27V199.58H1387.6V203.9L1382.35 208.508C1382.16 208.676 1381.96 208.832 1381.77 208.976C1381.58 209.12 1381.4 209.252 1381.23 209.372C1381.04 209.492 1380.86 209.6 1380.69 209.696C1381.92 209.744 1383.02 209.972 1384 210.38C1385.01 210.788 1385.86 211.34 1386.56 212.036C1387.28 212.732 1387.82 213.56 1388.18 214.52C1388.56 215.48 1388.76 216.548 1388.76 217.724C1388.76 218.948 1388.54 220.064 1388.11 221.072C1387.7 222.08 1387.11 222.944 1386.34 223.664C1385.58 224.36 1384.65 224.9 1383.57 225.284C1382.49 225.668 1381.28 225.86 1379.94 225.86ZM1392.02 205.7H1396.91L1400.87 216.32C1401.04 216.776 1401.17 217.232 1401.27 217.688C1401.36 218.144 1401.44 218.576 1401.48 218.984C1401.53 219.416 1401.57 219.848 1401.59 220.28H1402.02C1402.05 219.872 1402.08 219.44 1402.13 218.984C1402.18 218.6 1402.24 218.18 1402.31 217.724C1402.41 217.244 1402.54 216.776 1402.71 216.32L1406.42 205.7H1411.2L1401.66 231.62H1396.91L1399.65 224.384L1392.02 205.7ZM1413.6 205.7H1418.5L1422.46 216.32C1422.63 216.776 1422.76 217.232 1422.85 217.688C1422.95 218.144 1423.02 218.576 1423.07 218.984C1423.12 219.416 1423.15 219.848 1423.18 220.28H1423.61C1423.63 219.872 1423.67 219.44 1423.72 218.984C1423.77 218.6 1423.83 218.18 1423.9 217.724C1423.99 217.244 1424.13 216.776 1424.29 216.32L1428 205.7H1432.79L1423.25 231.62H1418.5L1421.23 224.384L1413.6 205.7Z" />
    <g
       transform="matrix(1.34105,0,0,1.34105,548.8425,-974.56922)"
       id="g5612">
      <path
         class="bear__fur"
         d="m 243,894 c 0,61 -36,106 -94,106 -55,0 -92,-45 -92,-106 0,-61 38,-86 91,-86 53,0 95,25 95,86 z"
         id="path5562" />
      <path
         class="bear__muzzle"
         d="m 212,958 c 0,20 -29,39 -63,39 -35,0 -61,-19 -61,-39 0,-20 26,-33 61,-33 35,0 63,13 63,33 z"
         id="path5564" />
      <path
         class="bear__nose"
         d="m 181,932 c 0,7 -19,24 -30,24 -11,0 -32,-17 -32,-24 0,-8 20,-13 31,-13 12,0 31,5 31,13 z"
         id="path5566" />
      <ellipse
         class="bear__outer-ear"
         cx="68.300003"
         cy="827.70001"
         rx="23.799999"
         ry="23.1"
         id="ellipse5568" />
      <path
         class="bear__inner-ear"
         d="m 85,826 a 17,16 0 0 0 -17,-14 17,16 0 0 0 -16,16 17,16 0 0 0 16,16 17,16 0 0 0 1,0 l 3,-4 a 66,66 0 0 1 11,-12 z"
         id="path5570" />
      <ellipse
         class="bear__outer-ear"
         ry="23.1"
         rx="23.799999"
         cy="827.70001"
         cx="-231.2"
         transform="scale(-1,1)"
         id="ellipse5572" />
      <path
         class="bear__inner-ear"
         d="m 215,826 a 17,16 0 0 1 16,-14 17,16 0 0 1 17,16 17,16 0 0 1 -17,16 17,16 0 0 1 -1,0 l -2,-4 a 66,66 0 0 0 -11,-12 z"
         id="path5574" />
      <path
         class="bear__cap-strap"
         d="m 148,815 c -14,0 -26,1 -38,4 v 11 a 199,199 0 0 1 80,1 v -11 c -13,-3 -27,-5 -42,-5 z"
         id="path5576" />
      <path
         class="bear__small-cap-strap"
         d="m 165,816 a 16,8 0 0 1 5,5 16,8 0 0 1 -6,6 l 26,4 v -11 z"
         id="path5578" />
      <path
         class="bear__cap"
         d="m 148,789 c -43,0 -76,20 -83,64 12,-11 28,-19 45,-23 0,0 -2,-12 10,-16 15,-4 19,-4 28,-4 10,0 15,0 30,4 15,4 12,17 12,17 18,5 32,11 45,22 -8,-46 -43,-64 -87,-64 z"
         id="path5580" />
      <circle
         class="bear__eye"
         cx="97.199997"
         cy="894.09998"
         r="11.2"
         id="circle5582" />
      <circle
         class="bear__eye"
         cy="894.09998"
         cx="201.89999"
         r="11.2"
         id="circle5584" />
      <path
         style="fill:none;stroke:#e9afaf;stroke-width:3;stroke-linecap:round;stroke-linejoin:round"
         class="bear__eyebrows"
         d="m 97,864 a 21,21 0 0 1 -7,16 21,21 0 0 1 -16,5 m 130,-21 a 21,21 0 0 0 6,16 21,21 0 0 0 16,5"
         id="path5586" />
      <path
         class="shades-frame"
         d="m 77,855 c -6,0 -13,0 -23,2 l -14,3 2,15 7,2 c 3,5 1,10 2,18 3,28 12,34 26,35 8,1 23,3 33,-1 10,-4 19,-10 25,-18 6,-9 6,-18 10,-26 3,-5 8,-4 10,0 3,8 4,17 10,26 6,8 15,14 24,18 11,4 26,2 34,1 14,-1 23,-7 26,-35 1,-8 -2,-13 2,-18 l 7,-2 2,-15 -15,-3 c -15,-3 -23,-2 -34,-2 h -13 l -25,4 c -8,2 -15,7 -23,6 -8,0 -15,-5 -23,-6 l -25,-4 z"
         id="path5588" />
      <path
         style="fill:#333333"
         class="lens"
         d="m 85,860 c -10,1 -25,1 -28,13 -3,15 -3,32 6,45 7,11 23,9 35,9 19,-1 35,-16 40,-34 2,-8 4,-14 1,-19 -6,-10 -20,-12 -31,-13 z"
         id="path5590" />
      <path
         class="shades-dot"
         d="m 56,864 a 4,2 0 0 1 -4,2 4,2 0 0 1 -4,-2 4,2 0 0 1 4,-1 4,2 0 0 1 4,1"
         id="path5592" />
      <path
         style="fill:#333333"
         class="lens"
         d="m 215,860 c 10,1 24,1 28,13 3,15 3,32 -6,45 -7,11 -23,9 -35,9 -19,-1 -35,-16 -40,-34 -2,-8 -4,-14 -1,-19 6,-10 20,-12 31,-13 z"
         id="path5594" />
      <path
         class="shades-dot"
         d="m 244,864 a 4,2 0 0 0 4,2 4,2 0 0 0 4,-2 4,2 0 0 0 -4,-1 4,2 0 0 0 -4,1"
         id="path5596" />
      <g
         clip-path="url(#spec-left)"
         id="g5602">
        <use
           height="100%"
           width="100%"
           y="0"
           x="0"
           xlink:href="#code-block"
           id="use5598" />
        <use
           height="100%"
           width="100%"
           x="0"
           xlink:href="#code-block"
           y="283.5"
           id="use5600" />
      </g>
      <g
         clip-path="url(#spec-right)"
         id="g5608">
        <use
           height="100%"
           width="100%"
           y="0"
           x="0"
           xlink:href="#code-block"
           transform="translate(104)"
           id="use5604" />
        <use
           height="100%"
           width="100%"
           x="0"
           xlink:href="#code-block"
           transform="translate(104)"
           y="283.5"
           id="use5606" />
      </g>
      <path
         class="lens__shine"
         d="m 101,861 -19,66 h 17 l 18,-65 z m -12,-1 h -4 l -3,1 -18,59 6,5 z"
         id="path5610" />
    </g>
  </g>
  <defs
     id="defs48">
    <pattern
       height="1"
       width="1"
       patternContentUnits="objectBoundingBox"
       id="pattern0">
      <use
         id="use38"
         transform="scale(0.005)"
         xlink:href="#image0" />
    </pattern>
    <clipPath
       id="clip0">
      <rect
         id="rect41"
         fill="white"
         height="500"
         width="1500" />
    </clipPath>
    <clipPath
       id="clip1">
      <rect
         id="rect44"
         transform="translate(1261 188)"
         fill="white"
         height="50"
         width="50" />
    </clipPath>
    <style
       type="text/css"
       id="style5503">
         svg {
  --fur: #662900;
  --ear: #e4b89b;
  --cap-strap--large: #f00;
  --cap-strap--small: #900;
  --cap: #0d0d0d;
  --dots: rgba(242,242,242,0.6);
  --frame: #000;
  --shine: rgba(242,242,242,0.35);
  --lens: #595959;
  --code-one: rgba(128,230,25,0.5);
  --code-two: rgba(229,230,25,0.5);
  --code-three: rgba(230,25,128,0.5);
  --code-four: rgba(25,195,230,0.5);
}
.code-block {
  -webkit-animation: read 1s infinite linear;
          animation: read 1s infinite linear;
}
.code-block rect {
  fill: var(--code-one);
}
.code-block rect:nth-of-type(5) {
  fill: var(--code-four);
}
.code-block rect:nth-of-type(8),
.code-block rect:nth-of-type(9) {
  fill: var(--code-two);
}
.code-block rect:nth-of-type(12) {
  fill: var(--code-three);
}
.bear__fur,
.bear__outer-ear {
  fill: var(--fur);
}
.bear__inner-ear,
.bear__muzzle {
  fill: var(--ear);
}
.bear__cap-strap {
  fill: var(--cap-strap--large);
}
.bear__small-cap-strap {
  fill: var(--cap-strap--small);
}
.bear__cap {
  fill: var(--cap);
}
.lens {
  fill: var(--lens);
}
.lens__shine {
  fill: var(--shine);
}
.shades-dot {
  fill: var(--dots);
}
.bear__nose,
.shades-frame {
  fill: var(--frame);
}
@-webkit-keyframes read {
  to {
    -webkit-transform: translate(0, -283.5px);
            transform: translate(0, -283.5px);
  }
}
@keyframes read {
  to {
    -webkit-transform: translate(0, -283.5px);
            transform: translate(0, -283.5px);
  }
}
   </style>
    <g
       class="code-block"
       id="code-block">
      <rect
         ry="0"
         y="862"
         x="60"
         height="7.5"
         width="74"
         id="rect5505" />
      <rect
         ry="0"
         y="874"
         x="96"
         height="7.5"
         width="28"
         id="rect5507" />
      <rect
         width="54"
         height="7.5"
         x="60"
         y="886"
         ry="0"
         id="rect5509" />
      <rect
         ry="0"
         y="897"
         x="60"
         height="7.5"
         width="74"
         id="rect5511" />
      <rect
         width="56"
         height="7.5"
         x="78"
         y="909"
         ry="0"
         id="rect5513" />
      <rect
         ry="0"
         y="921"
         x="83"
         height="7.5"
         width="51"
         id="rect5515" />
      <rect
         width="51"
         height="7.5"
         x="73"
         y="932"
         ry="0"
         id="rect5517" />
      <rect
         ry="0"
         y="944"
         x="72"
         height="7.5"
         width="62"
         id="rect5519" />
      <rect
         width="74"
         height="7.5"
         x="60"
         y="956"
         ry="0"
         id="rect5521" />
      <rect
         ry="0"
         y="967"
         x="50"
         height="7.5"
         width="84"
         id="rect5523" />
      <rect
         width="64"
         height="7.5"
         x="60"
         y="979"
         ry="0"
         id="rect5525" />
      <rect
         ry="0"
         y="991"
         x="60"
         height="7.5"
         width="74"
         id="rect5527" />
      <rect
         width="41"
         height="7.5"
         x="93"
         y="1003"
         ry="0"
         id="rect5529" />
      <rect
         ry="0"
         y="1014"
         x="66"
         height="7.5"
         width="58"
         id="rect5531" />
      <rect
         width="58"
         height="7.5"
         x="56"
         y="1026"
         ry="0"
         id="rect5533" />
      <rect
         ry="0"
         y="1038"
         x="50"
         height="7.5"
         width="74"
         id="rect5535" />
      <rect
         width="46"
         height="7.5"
         x="88"
         y="1049"
         ry="0"
         id="rect5537" />
      <rect
         ry="0"
         y="1061"
         x="105"
         height="7.5"
         width="19"
         id="rect5539" />
      <rect
         width="38"
         height="7.5"
         x="96"
         y="1073"
         ry="0"
         id="rect5541" />
      <rect
         ry="0"
         y="1084"
         x="73"
         height="7.5"
         width="51"
         id="rect5543" />
      <rect
         ry="0"
         y="1096"
         x="88"
         height="7.5"
         width="26"
         id="rect5545" />
      <rect
         width="56"
         height="7.5"
         x="68"
         y="1108"
         ry="0"
         id="rect5547" />
      <rect
         ry="0"
         y="1120"
         x="100"
         height="7.5"
         width="24"
         id="rect5549" />
      <rect
         width="74"
         height="7.5"
         x="50"
         y="1131"
         ry="0"
         id="rect5551" />
    </g>
    <clipPath
       id="spec-left">
      <path
         d="M85 860c-10 1-25 1-28 13-3 15-3 32 6 45 7 11 23 9 35 9 19-1 35-16 40-34 2-8 4-14 1-19-6-10-20-12-31-13l-23-1z"
         fill="#333"
         id="path5554" />
    </clipPath>
    <clipPath
       id="spec-right">
      <path
         d="M215 860c10 1 24 1 28 13 3 15 3 32-6 45-7 11-23 9-35 9-19-1-35-16-40-34-2-8-4-14-1-19 6-10 20-12 31-13l23-1z"
         fill="#333"
         id="path5557" />
    </clipPath>
  </defs>
</svg>
