<?xml version="1.0" encoding="UTF-8" standalone="no"?>
<svg
   xmlns:dc="http://purl.org/dc/elements/1.1/"
   xmlns:cc="http://creativecommons.org/ns#"
   xmlns:rdf="http://www.w3.org/1999/02/22-rdf-syntax-ns#"
   xmlns:svg="http://www.w3.org/2000/svg"
   xmlns="http://www.w3.org/2000/svg"
   xmlns:xlink="http://www.w3.org/1999/xlink"
   id="svg50"
   version="1.1"
   fill="none"
   viewBox="0 0 1500 500"
   height="500"
   width="1500">
  <metadata
     id="metadata54">
    <rdf:RDF>
      <cc:Work
         rdf:about="">
        <dc:format>image/svg+xml</dc:format>
        <dc:type
           rdf:resource="http://purl.org/dc/dcmitype/StillImage" />
        <dc:title></dc:title>
      </cc:Work>
    </rdf:RDF>
  </metadata>
  <g
     id="g36"
     clip-path="url(#clip0)">
    <rect
       id="rect2"
       fill="#1E1E1E"
       height="500"
       width="1500" />
    <rect
       id="rect4"
       fill="#1E1E1E"
       height="500"
       width="1500" />
    <rect
       id="rect6"
       fill="#DF2525"
       transform="rotate(-37.4908 286 621.501)"
       height="759.948"
       width="1614.27"
       y="621.501"
       x="286" />
    <circle
       fill="white"
       id="circle8"
       r="183"
       cy="225"
       cx="750" />
    <path
       id="path10"
       fill="white"
       d="M 1406 73.501 L 1397 73.501 L 1397 21.501 L 1405.7 21.501 L 1405.7 30.201 Q 1408.5 26.001 1412.8 23.151 A 17.205 17.205 0 0 1 1422.002 20.309 A 20.858 20.858 0 0 1 1422.6 20.301 A 20.994 20.994 0 0 1 1427.017 20.74 Q 1430.003 21.383 1432.285 22.964 A 13.128 13.128 0 0 1 1432.75 23.301 A 15.751 15.751 0 0 1 1438.198 30.99 A 19.154 19.154 0 0 1 1438.3 31.301 Q 1441.4 26.701 1445.65 23.501 A 15.669 15.669 0 0 1 1452.441 20.617 A 21.446 21.446 0 0 1 1456.2 20.301 A 21.437 21.437 0 0 1 1461.088 20.823 Q 1464.674 21.663 1467.163 23.852 A 12.994 12.994 0 0 1 1468.85 25.651 A 18.992 18.992 0 0 1 1472.261 32.923 Q 1473 35.973 1473 39.601 L 1473 73.501 L 1464 73.501 L 1464 40.301 A 19.042 19.042 0 0 0 1463.663 36.611 Q 1463.227 34.406 1462.228 32.662 A 10.982 10.982 0 0 0 1461.5 31.551 A 7.974 7.974 0 0 0 1455.687 28.255 A 10.678 10.678 0 0 0 1454.6 28.201 A 11.926 11.926 0 0 0 1447.841 30.328 A 15.996 15.996 0 0 0 1446.25 31.551 Q 1442.4 34.901 1439.5 39.401 L 1439.5 73.501 L 1430.5 73.501 L 1430.5 40.301 A 19.042 19.042 0 0 0 1430.163 36.611 Q 1429.727 34.406 1428.728 32.662 A 10.982 10.982 0 0 0 1428 31.551 A 7.974 7.974 0 0 0 1422.187 28.255 A 10.678 10.678 0 0 0 1421.1 28.201 A 12.02 12.02 0 0 0 1414.781 30.029 A 16.244 16.244 0 0 0 1412.8 31.451 Q 1408.9 34.701 1406 39.101 L 1406 73.501 Z M 1879.9 92.301 L 1883.2 84.501 A 20.562 20.562 0 0 0 1887.017 86.874 A 24.737 24.737 0 0 0 1888.8 87.651 Q 1891.559 88.728 1895.359 88.877 A 31.788 31.788 0 0 0 1896.6 88.901 A 21.701 21.701 0 0 0 1901.121 88.458 Q 1904.022 87.84 1906.222 86.36 A 12.576 12.576 0 0 0 1907.75 85.151 A 11.352 11.352 0 0 0 1910.657 80.657 Q 1911.8 77.557 1911.8 73.201 L 1911.8 66.801 Q 1909.8 69.201 1906.05 71.351 Q 1902.3 73.501 1897.1 73.501 Q 1891.2 73.501 1885.9 70.451 A 22.236 22.236 0 0 1 1878.608 63.613 A 27.437 27.437 0 0 1 1877.3 61.501 A 25.181 25.181 0 0 1 1874.587 53.877 A 35.033 35.033 0 0 1 1874 47.301 A 32.06 32.06 0 0 1 1874.917 39.493 A 26.682 26.682 0 0 1 1877.25 33.401 A 25.706 25.706 0 0 1 1883.314 25.778 A 24.448 24.448 0 0 1 1886 23.801 Q 1891.5 20.301 1898.1 20.301 A 22.366 22.366 0 0 1 1902.92 20.802 A 18.715 18.715 0 0 1 1906.1 21.801 A 25.705 25.705 0 0 1 1909.928 23.769 A 20.998 20.998 0 0 1 1912.3 25.501 L 1912.3 21.501 L 1920.5 21.501 L 1920.5 72.301 Q 1920.5 80.901 1917.5 86.301 Q 1914.5 91.701 1909.15 94.201 A 25.811 25.811 0 0 1 1902.546 96.222 A 35.243 35.243 0 0 1 1896.6 96.701 Q 1892 96.701 1887.65 95.601 A 27.232 27.232 0 0 1 1882.35 93.683 A 23.518 23.518 0 0 1 1879.9 92.301 Z M 673.8 55.301 L 673.8 21.501 L 682.8 21.501 L 682.8 54.101 A 22.981 22.981 0 0 0 683.054 57.635 Q 683.342 59.482 683.957 60.97 A 10.136 10.136 0 0 0 685.4 63.451 A 8.404 8.404 0 0 0 690.513 66.471 A 12.807 12.807 0 0 0 693 66.701 Q 697.1 66.701 700.95 65.051 Q 704.8 63.401 707.8 60.601 L 707.8 21.501 L 716.8 21.501 L 716.8 60.001 A 15.602 15.602 0 0 0 716.902 61.854 Q 717.234 64.617 718.65 65.651 Q 720.5 67.001 722.7 67.001 L 720.8 74.001 Q 711.5 74.001 709.3 66.601 Q 705.8 70.201 701.2 72.451 Q 696.6 74.701 691.3 74.701 Q 686.8 74.701 682.8 72.801 A 14.441 14.441 0 0 1 677.29 68.162 A 18.266 18.266 0 0 1 676.3 66.651 A 16.24 16.24 0 0 1 674.636 62.557 Q 673.8 59.405 673.8 55.301 Z M 1238.6 55.301 L 1238.6 21.501 L 1247.6 21.501 L 1247.6 54.101 A 22.981 22.981 0 0 0 1247.854 57.635 Q 1248.142 59.482 1248.757 60.97 A 10.136 10.136 0 0 0 1250.2 63.451 A 8.404 8.404 0 0 0 1255.313 66.471 A 12.807 12.807 0 0 0 1257.8 66.701 Q 1261.9 66.701 1265.75 65.051 Q 1269.6 63.401 1272.6 60.601 L 1272.6 21.501 L 1281.6 21.501 L 1281.6 60.001 A 15.602 15.602 0 0 0 1281.702 61.854 Q 1282.034 64.617 1283.45 65.651 Q 1285.3 67.001 1287.5 67.001 L 1285.6 74.001 Q 1276.3 74.001 1274.1 66.601 Q 1270.6 70.201 1266 72.451 Q 1261.4 74.701 1256.1 74.701 Q 1251.6 74.701 1247.6 72.801 A 14.441 14.441 0 0 1 1242.09 68.162 A 18.266 18.266 0 0 1 1241.1 66.651 A 16.24 16.24 0 0 1 1239.436 62.557 Q 1238.6 59.405 1238.6 55.301 Z M 414.2 73.501 L 405.2 73.501 L 405.2 21.501 L 413.9 21.501 L 413.9 30.201 Q 416.7 26.001 421.05 23.151 A 17.316 17.316 0 0 1 428.156 20.526 A 22.629 22.629 0 0 1 431.4 20.301 A 23.225 23.225 0 0 1 436.465 20.818 Q 441.559 21.957 444.55 25.601 Q 448.675 30.626 448.888 38.709 A 33.764 33.764 0 0 1 448.9 39.601 L 448.9 73.501 L 439.9 73.501 L 439.9 40.601 A 19.265 19.265 0 0 0 439.558 36.86 Q 439.119 34.645 438.119 32.897 A 10.966 10.966 0 0 0 437.25 31.601 A 8.579 8.579 0 0 0 430.973 28.247 A 12.061 12.061 0 0 0 429.9 28.201 A 13.122 13.122 0 0 0 423.051 30.165 A 17.353 17.353 0 0 0 421.2 31.451 Q 417.1 34.701 414.2 39.101 L 414.2 73.501 Z M 743.7 73.501 L 734.7 73.501 L 734.7 21.501 L 743.4 21.501 L 743.4 30.201 Q 746.2 26.001 750.55 23.151 A 17.316 17.316 0 0 1 757.656 20.526 A 22.629 22.629 0 0 1 760.9 20.301 A 23.225 23.225 0 0 1 765.965 20.818 Q 771.059 21.957 774.05 25.601 Q 778.175 30.626 778.388 38.709 A 33.764 33.764 0 0 1 778.4 39.601 L 778.4 73.501 L 769.4 73.501 L 769.4 40.601 A 19.265 19.265 0 0 0 769.058 36.86 Q 768.619 34.645 767.619 32.897 A 10.966 10.966 0 0 0 766.75 31.601 A 8.579 8.579 0 0 0 760.473 28.247 A 12.061 12.061 0 0 0 759.4 28.201 A 13.122 13.122 0 0 0 752.551 30.165 A 17.353 17.353 0 0 0 750.7 31.451 Q 746.6 34.701 743.7 39.101 L 743.7 73.501 Z M 1683.7 73.501 L 1674.7 73.501 L 1674.7 21.501 L 1683.4 21.501 L 1683.4 30.201 Q 1686.2 26.001 1690.55 23.151 A 17.316 17.316 0 0 1 1697.656 20.526 A 22.629 22.629 0 0 1 1700.9 20.301 A 23.225 23.225 0 0 1 1705.965 20.818 Q 1711.059 21.957 1714.05 25.601 Q 1718.175 30.626 1718.388 38.709 A 33.764 33.764 0 0 1 1718.4 39.601 L 1718.4 73.501 L 1709.4 73.501 L 1709.4 40.601 A 19.265 19.265 0 0 0 1709.058 36.86 Q 1708.619 34.645 1707.619 32.897 A 10.966 10.966 0 0 0 1706.75 31.601 A 8.579 8.579 0 0 0 1700.473 28.247 A 12.061 12.061 0 0 0 1699.4 28.201 A 13.122 13.122 0 0 0 1692.551 30.165 A 17.353 17.353 0 0 0 1690.7 31.451 Q 1686.6 34.701 1683.7 39.101 L 1683.7 73.501 Z M 1827.3 73.501 L 1818.3 73.501 L 1818.3 21.501 L 1827 21.501 L 1827 30.201 Q 1829.8 26.001 1834.15 23.151 A 17.316 17.316 0 0 1 1841.256 20.526 A 22.629 22.629 0 0 1 1844.5 20.301 A 23.225 23.225 0 0 1 1849.565 20.818 Q 1854.659 21.957 1857.65 25.601 Q 1861.775 30.626 1861.988 38.709 A 33.764 33.764 0 0 1 1862 39.601 L 1862 73.501 L 1853 73.501 L 1853 40.601 A 19.265 19.265 0 0 0 1852.658 36.86 Q 1852.219 34.645 1851.219 32.897 A 10.966 10.966 0 0 0 1850.35 31.601 A 8.579 8.579 0 0 0 1844.073 28.247 A 12.061 12.061 0 0 0 1843 28.201 A 13.122 13.122 0 0 0 1836.151 30.165 A 17.353 17.353 0 0 0 1834.3 31.451 Q 1830.2 34.701 1827.3 39.101 L 1827.3 73.501 Z M 1970 73.501 L 1961 73.501 L 1961 21.501 L 1969.7 21.501 L 1969.7 30.201 Q 1972.5 26.001 1976.85 23.151 A 17.316 17.316 0 0 1 1983.956 20.526 A 22.629 22.629 0 0 1 1987.2 20.301 A 23.225 23.225 0 0 1 1992.265 20.818 Q 1997.359 21.957 2000.35 25.601 Q 2004.475 30.626 2004.688 38.709 A 33.764 33.764 0 0 1 2004.7 39.601 L 2004.7 73.501 L 1995.7 73.501 L 1995.7 40.601 A 19.265 19.265 0 0 0 1995.358 36.86 Q 1994.919 34.645 1993.919 32.897 A 10.966 10.966 0 0 0 1993.05 31.601 A 8.579 8.579 0 0 0 1986.773 28.247 A 12.061 12.061 0 0 0 1985.7 28.201 A 13.122 13.122 0 0 0 1978.851 30.165 A 17.353 17.353 0 0 0 1977 31.451 Q 1972.9 34.701 1970 39.101 L 1970 73.501 Z M 64.8 71.001 L 56.1 74.501 L 48.3 54.501 L 15.9 54.501 L 8.1 74.301 L 0 71.001 L 27.4 3.501 L 37.8 3.501 L 64.8 71.001 Z M 222.3 69.301 L 226.1 61.801 A 18.557 18.557 0 0 0 229.244 63.926 Q 230.798 64.771 232.65 65.451 A 24.073 24.073 0 0 0 240.261 66.888 A 27.464 27.464 0 0 0 241.1 66.901 Q 246.492 66.901 249.335 65.185 A 7.738 7.738 0 0 0 249.55 65.051 Q 252.4 63.201 252.4 60.301 A 7.123 7.123 0 0 0 252.086 58.153 A 6.212 6.212 0 0 0 251.35 56.601 A 6.384 6.384 0 0 0 250.421 55.507 Q 249.407 54.535 247.734 53.582 A 22.3 22.3 0 0 0 247.5 53.451 A 28.462 28.462 0 0 0 245.506 52.457 Q 243.39 51.496 240.401 50.446 A 103.602 103.602 0 0 0 239.4 50.101 A 46.616 46.616 0 0 1 235.002 48.358 Q 232.888 47.384 231.212 46.296 A 19.335 19.335 0 0 1 228.45 44.151 A 11.324 11.324 0 0 1 225.156 38.154 A 16.794 16.794 0 0 1 224.8 34.601 Q 224.8 28.601 230.05 24.451 Q 234.454 20.969 241.708 20.408 A 37.527 37.527 0 0 1 244.6 20.301 A 40.794 40.794 0 0 1 249.046 20.531 Q 251.354 20.785 253.37 21.316 A 25.234 25.234 0 0 1 253.5 21.351 Q 257.4 22.401 260.5 24.001 L 258 31.401 Q 255.3 29.801 251.85 28.801 A 25.024 25.024 0 0 0 247.367 27.953 A 31.837 31.837 0 0 0 244.2 27.801 A 20.632 20.632 0 0 0 241.263 27.996 Q 238.177 28.441 236.3 29.901 A 9.322 9.322 0 0 0 234.942 31.174 Q 234.24 31.993 233.905 32.866 A 4.529 4.529 0 0 0 233.6 34.501 A 4.921 4.921 0 0 0 235.095 38.052 A 7.082 7.082 0 0 0 235.7 38.601 A 9.88 9.88 0 0 0 237 39.469 Q 239.273 40.771 243.698 42.234 A 84.459 84.459 0 0 0 243.9 42.301 A 67.753 67.753 0 0 1 248.962 44.199 Q 254.889 46.718 257.7 49.601 Q 261.6 53.601 261.6 59.601 Q 261.6 66.349 256.349 70.356 A 16.618 16.618 0 0 1 255.95 70.651 Q 251.21 74.048 243.762 74.596 A 40.423 40.423 0 0 1 240.8 74.701 Q 234.9 74.701 230.15 73.201 A 30.883 30.883 0 0 1 226.31 71.716 Q 224.329 70.785 222.748 69.636 A 18.229 18.229 0 0 1 222.3 69.301 Z M 269.1 69.301 L 272.9 61.801 A 18.557 18.557 0 0 0 276.044 63.926 Q 277.598 64.771 279.45 65.451 A 24.073 24.073 0 0 0 287.061 66.888 A 27.464 27.464 0 0 0 287.9 66.901 Q 293.292 66.901 296.135 65.185 A 7.738 7.738 0 0 0 296.35 65.051 Q 299.2 63.201 299.2 60.301 A 7.123 7.123 0 0 0 298.886 58.153 A 6.212 6.212 0 0 0 298.15 56.601 A 6.384 6.384 0 0 0 297.221 55.507 Q 296.207 54.535 294.534 53.582 A 22.3 22.3 0 0 0 294.3 53.451 A 28.462 28.462 0 0 0 292.306 52.457 Q 290.19 51.496 287.201 50.446 A 103.602 103.602 0 0 0 286.2 50.101 A 46.616 46.616 0 0 1 281.802 48.358 Q 279.688 47.384 278.012 46.296 A 19.335 19.335 0 0 1 275.25 44.151 A 11.324 11.324 0 0 1 271.956 38.154 A 16.794 16.794 0 0 1 271.6 34.601 Q 271.6 28.601 276.85 24.451 Q 281.254 20.969 288.508 20.408 A 37.527 37.527 0 0 1 291.4 20.301 A 40.794 40.794 0 0 1 295.846 20.531 Q 298.154 20.785 300.17 21.316 A 25.234 25.234 0 0 1 300.3 21.351 Q 304.2 22.401 307.3 24.001 L 304.8 31.401 Q 302.1 29.801 298.65 28.801 A 25.024 25.024 0 0 0 294.167 27.953 A 31.837 31.837 0 0 0 291 27.801 A 20.632 20.632 0 0 0 288.063 27.996 Q 284.977 28.441 283.1 29.901 A 9.322 9.322 0 0 0 281.742 31.174 Q 281.04 31.993 280.705 32.866 A 4.529 4.529 0 0 0 280.4 34.501 A 4.921 4.921 0 0 0 281.895 38.052 A 7.082 7.082 0 0 0 282.5 38.601 A 9.88 9.88 0 0 0 283.8 39.469 Q 286.073 40.771 290.498 42.234 A 84.459 84.459 0 0 0 290.7 42.301 A 67.753 67.753 0 0 1 295.762 44.199 Q 301.689 46.718 304.5 49.601 Q 308.4 53.601 308.4 59.601 Q 308.4 66.349 303.149 70.356 A 16.618 16.618 0 0 1 302.75 70.651 Q 298.01 74.048 290.562 74.596 A 40.423 40.423 0 0 1 287.6 74.701 Q 281.7 74.701 276.95 73.201 A 30.883 30.883 0 0 1 273.11 71.716 Q 271.129 70.785 269.548 69.636 A 18.229 18.229 0 0 1 269.1 69.301 Z M 114.7 95.501 L 105.7 95.501 L 105.7 34.801 A 11.015 11.015 0 0 0 105.573 33.065 Q 105.242 30.999 104.05 29.951 A 5.718 5.718 0 0 0 101.26 28.628 A 7.991 7.991 0 0 0 99.8 28.501 L 101.7 21.501 Q 107.562 21.501 110.622 24.464 A 10.15 10.15 0 0 1 113.2 28.801 Q 114.155 27.368 116.252 25.478 A 38.58 38.58 0 0 1 116.45 25.301 A 18.902 18.902 0 0 1 119.151 23.317 A 25.569 25.569 0 0 1 122.05 21.801 A 16.955 16.955 0 0 1 126.609 20.512 A 21.886 21.886 0 0 1 129.7 20.301 Q 135.7 20.301 140.95 23.451 A 22.329 22.329 0 0 1 148.128 30.418 A 27.464 27.464 0 0 1 149.4 32.551 Q 152.6 38.501 152.6 47.001 Q 152.6 55.301 149.4 61.551 A 27.846 27.846 0 0 1 145.466 67.382 A 23.029 23.029 0 0 1 141.05 71.251 Q 135.9 74.701 129.9 74.701 Q 125.3 74.701 121.3 72.851 A 30.352 30.352 0 0 1 117.884 71.012 Q 116.091 69.885 114.7 68.601 L 114.7 95.501 Z M 605.9 51.201 L 569.5 51.201 A 24.088 24.088 0 0 0 570.639 56.226 Q 571.975 60.038 574.6 62.601 Q 578.8 66.701 585.7 66.701 Q 590.2 66.701 593.8 65.751 Q 597.4 64.801 600.7 63.301 L 602.8 71.001 A 40.77 40.77 0 0 1 598.465 72.627 A 51.863 51.863 0 0 1 594.7 73.651 A 38.914 38.914 0 0 1 589.608 74.47 A 52.025 52.025 0 0 1 584.6 74.701 A 28.318 28.318 0 0 1 576.854 73.695 A 21.108 21.108 0 0 1 566.85 67.551 A 23.521 23.521 0 0 1 561.645 58.011 Q 560.3 53.346 560.3 47.501 A 35.359 35.359 0 0 1 561.133 39.679 A 28.84 28.84 0 0 1 563.25 33.551 A 24.642 24.642 0 0 1 568.266 26.469 A 22.887 22.887 0 0 1 571.5 23.851 A 21.048 21.048 0 0 1 581.759 20.379 A 26.205 26.205 0 0 1 583.8 20.301 Q 591.3 20.301 596.25 23.551 Q 601.2 26.801 603.7 32.301 A 28.185 28.185 0 0 1 606.126 42.164 A 33.434 33.434 0 0 1 606.2 44.401 A 75.204 75.204 0 0 1 605.909 51.097 A 69.426 69.426 0 0 1 605.9 51.201 Z M 1806 51.201 L 1769.6 51.201 A 24.088 24.088 0 0 0 1770.739 56.226 Q 1772.075 60.038 1774.7 62.601 Q 1778.9 66.701 1785.8 66.701 Q 1790.3 66.701 1793.9 65.751 Q 1797.5 64.801 1800.8 63.301 L 1802.9 71.001 A 40.77 40.77 0 0 1 1798.565 72.627 A 51.863 51.863 0 0 1 1794.8 73.651 A 38.914 38.914 0 0 1 1789.708 74.47 A 52.025 52.025 0 0 1 1784.7 74.701 A 28.318 28.318 0 0 1 1776.954 73.695 A 21.108 21.108 0 0 1 1766.95 67.551 A 23.521 23.521 0 0 1 1761.745 58.011 Q 1760.4 53.346 1760.4 47.501 A 35.359 35.359 0 0 1 1761.233 39.679 A 28.84 28.84 0 0 1 1763.35 33.551 A 24.642 24.642 0 0 1 1768.366 26.469 A 22.887 22.887 0 0 1 1771.6 23.851 A 21.048 21.048 0 0 1 1781.859 20.379 A 26.205 26.205 0 0 1 1783.9 20.301 Q 1791.4 20.301 1796.35 23.551 Q 1801.3 26.801 1803.8 32.301 A 28.185 28.185 0 0 1 1806.226 42.164 A 33.434 33.434 0 0 1 1806.3 44.401 A 75.204 75.204 0 0 1 1806.009 51.097 A 69.426 69.426 0 0 1 1806 51.201 Z M 2062.3 51.201 L 2025.9 51.201 A 24.088 24.088 0 0 0 2027.039 56.226 Q 2028.375 60.038 2031 62.601 Q 2035.2 66.701 2042.1 66.701 Q 2046.6 66.701 2050.2 65.751 Q 2053.8 64.801 2057.1 63.301 L 2059.2 71.001 A 40.77 40.77 0 0 1 2054.865 72.627 A 51.863 51.863 0 0 1 2051.1 73.651 A 38.914 38.914 0 0 1 2046.008 74.47 A 52.025 52.025 0 0 1 2041 74.701 A 28.318 28.318 0 0 1 2033.254 73.695 A 21.108 21.108 0 0 1 2023.25 67.551 A 23.521 23.521 0 0 1 2018.045 58.011 Q 2016.7 53.346 2016.7 47.501 A 35.359 35.359 0 0 1 2017.533 39.679 A 28.84 28.84 0 0 1 2019.65 33.551 A 24.642 24.642 0 0 1 2024.666 26.469 A 22.887 22.887 0 0 1 2027.9 23.851 A 21.048 21.048 0 0 1 2038.159 20.379 A 26.205 26.205 0 0 1 2040.2 20.301 Q 2047.7 20.301 2052.65 23.551 Q 2057.6 26.801 2060.1 32.301 A 28.185 28.185 0 0 1 2062.526 42.164 A 33.434 33.434 0 0 1 2062.6 44.401 A 75.204 75.204 0 0 1 2062.309 51.097 A 69.426 69.426 0 0 1 2062.3 51.201 Z M 2116.7 51.201 L 2080.3 51.201 A 24.088 24.088 0 0 0 2081.439 56.226 Q 2082.775 60.038 2085.4 62.601 Q 2089.6 66.701 2096.5 66.701 Q 2101 66.701 2104.6 65.751 Q 2108.2 64.801 2111.5 63.301 L 2113.6 71.001 A 40.77 40.77 0 0 1 2109.265 72.627 A 51.863 51.863 0 0 1 2105.5 73.651 A 38.914 38.914 0 0 1 2100.408 74.47 A 52.025 52.025 0 0 1 2095.4 74.701 A 28.318 28.318 0 0 1 2087.654 73.695 A 21.108 21.108 0 0 1 2077.65 67.551 A 23.521 23.521 0 0 1 2072.445 58.011 Q 2071.1 53.346 2071.1 47.501 A 35.359 35.359 0 0 1 2071.933 39.679 A 28.84 28.84 0 0 1 2074.05 33.551 A 24.642 24.642 0 0 1 2079.066 26.469 A 22.887 22.887 0 0 1 2082.3 23.851 A 21.048 21.048 0 0 1 2092.559 20.379 A 26.205 26.205 0 0 1 2094.6 20.301 Q 2102.1 20.301 2107.05 23.551 Q 2112 26.801 2114.5 32.301 A 28.185 28.185 0 0 1 2116.926 42.164 A 33.434 33.434 0 0 1 2117 44.401 A 75.204 75.204 0 0 1 2116.709 51.097 A 69.426 69.426 0 0 1 2116.7 51.201 Z M 1057.7 73.501 L 1048.3 73.501 L 1027.4 23.901 L 1035.6 20.501 L 1053.3 63.301 L 1071 20.501 L 1078.7 23.901 L 1057.7 73.501 Z M 528.1 55.601 L 528.1 31.201 L 519.1 31.201 L 519.1 23.401 L 528.3 23.401 L 530.2 7.001 L 537.1 7.001 L 537.1 23.401 L 551.5 23.401 L 551.5 31.201 L 537.1 31.201 L 537.1 56.301 A 21.559 21.559 0 0 0 537.268 59.097 Q 537.741 62.703 539.55 64.401 Q 542 66.701 545.4 66.701 Q 547.9 66.701 550.15 65.901 Q 552.4 65.101 554.3 64.001 L 556.8 71.201 A 18.546 18.546 0 0 1 555.182 72.057 Q 554.38 72.435 553.434 72.809 A 43.365 43.365 0 0 1 551.4 73.551 Q 548 74.701 544.3 74.701 Q 536.8 74.701 532.45 69.751 A 16.116 16.116 0 0 1 529.222 63.848 Q 528.459 61.418 528.215 58.481 A 34.777 34.777 0 0 1 528.1 55.601 Z M 1301.5 55.601 L 1301.5 31.201 L 1292.5 31.201 L 1292.5 23.401 L 1301.7 23.401 L 1303.6 7.001 L 1310.5 7.001 L 1310.5 23.401 L 1324.9 23.401 L 1324.9 31.201 L 1310.5 31.201 L 1310.5 56.301 A 21.559 21.559 0 0 0 1310.668 59.097 Q 1311.141 62.703 1312.95 64.401 Q 1315.4 66.701 1318.8 66.701 Q 1321.3 66.701 1323.55 65.901 Q 1325.8 65.101 1327.7 64.001 L 1330.2 71.201 A 18.546 18.546 0 0 1 1328.582 72.057 Q 1327.78 72.435 1326.834 72.809 A 43.365 43.365 0 0 1 1324.8 73.551 Q 1321.4 74.701 1317.7 74.701 Q 1310.2 74.701 1305.85 69.751 A 16.116 16.116 0 0 1 1302.622 63.848 Q 1301.859 61.418 1301.615 58.481 A 34.777 34.777 0 0 1 1301.5 55.601 Z M 1552.2 55.601 L 1552.2 31.201 L 1543.2 31.201 L 1543.2 23.401 L 1552.4 23.401 L 1554.3 7.001 L 1561.2 7.001 L 1561.2 23.401 L 1575.6 23.401 L 1575.6 31.201 L 1561.2 31.201 L 1561.2 56.301 A 21.559 21.559 0 0 0 1561.368 59.097 Q 1561.841 62.703 1563.65 64.401 Q 1566.1 66.701 1569.5 66.701 Q 1572 66.701 1574.25 65.901 Q 1576.5 65.101 1578.4 64.001 L 1580.9 71.201 A 18.546 18.546 0 0 1 1579.282 72.057 Q 1578.48 72.435 1577.534 72.809 A 43.365 43.365 0 0 1 1575.5 73.551 Q 1572.1 74.701 1568.4 74.701 Q 1560.9 74.701 1556.55 69.751 A 16.116 16.116 0 0 1 1553.322 63.848 Q 1552.559 61.418 1552.315 58.481 A 34.777 34.777 0 0 1 1552.2 55.601 Z M 200.7 25.701 L 200.7 21.501 L 208.9 21.501 L 208.9 60.901 A 12.15 12.15 0 0 0 209.002 62.536 Q 209.334 64.97 210.75 65.851 Q 212.6 67.001 214.8 67.001 L 212.9 74.001 A 17.722 17.722 0 0 1 208.635 73.528 Q 202.998 72.128 201.403 66.581 A 13.59 13.59 0 0 1 201.3 66.201 A 21.307 21.307 0 0 1 198.19 69.627 A 28.498 28.498 0 0 1 195.05 72.051 Q 191.1 74.701 185 74.701 Q 178.5 74.701 173.2 71.401 A 22.947 22.947 0 0 1 165.787 63.874 A 27.923 27.923 0 0 1 164.75 62.051 A 27.228 27.228 0 0 1 162.12 54.108 A 36.644 36.644 0 0 1 161.6 47.801 A 33.142 33.142 0 0 1 162.597 39.532 A 27.968 27.968 0 0 1 164.75 33.801 Q 167.9 27.601 173.45 23.951 A 22.297 22.297 0 0 1 184.645 20.344 A 27.388 27.388 0 0 1 186.2 20.301 A 22.584 22.584 0 0 1 190.994 20.791 A 18.703 18.703 0 0 1 194.35 21.851 A 26.002 26.002 0 0 1 198.637 24.144 A 22.103 22.103 0 0 1 200.7 25.701 Z M 500 25.701 L 500 21.501 L 508.2 21.501 L 508.2 60.901 A 12.15 12.15 0 0 0 508.302 62.536 Q 508.634 64.97 510.05 65.851 Q 511.9 67.001 514.1 67.001 L 512.2 74.001 A 17.722 17.722 0 0 1 507.935 73.528 Q 502.298 72.128 500.703 66.581 A 13.59 13.59 0 0 1 500.6 66.201 A 21.307 21.307 0 0 1 497.49 69.627 A 28.498 28.498 0 0 1 494.35 72.051 Q 490.4 74.701 484.3 74.701 Q 477.8 74.701 472.5 71.401 A 22.947 22.947 0 0 1 465.087 63.874 A 27.923 27.923 0 0 1 464.05 62.051 A 27.228 27.228 0 0 1 461.42 54.108 A 36.644 36.644 0 0 1 460.9 47.801 A 33.142 33.142 0 0 1 461.897 39.532 A 27.968 27.968 0 0 1 464.05 33.801 Q 467.2 27.601 472.75 23.951 A 22.297 22.297 0 0 1 483.945 20.344 A 27.388 27.388 0 0 1 485.5 20.301 A 22.584 22.584 0 0 1 490.294 20.791 A 18.703 18.703 0 0 1 493.65 21.851 A 26.002 26.002 0 0 1 497.937 24.144 A 22.103 22.103 0 0 1 500 25.701 Z M 1010.3 25.701 L 1010.3 21.501 L 1018.5 21.501 L 1018.5 60.901 A 12.15 12.15 0 0 0 1018.602 62.536 Q 1018.934 64.97 1020.35 65.851 Q 1022.2 67.001 1024.4 67.001 L 1022.5 74.001 A 17.722 17.722 0 0 1 1018.235 73.528 Q 1012.598 72.128 1011.003 66.581 A 13.59 13.59 0 0 1 1010.9 66.201 A 21.307 21.307 0 0 1 1007.79 69.627 A 28.498 28.498 0 0 1 1004.65 72.051 Q 1000.7 74.701 994.6 74.701 Q 988.1 74.701 982.8 71.401 A 22.947 22.947 0 0 1 975.387 63.874 A 27.923 27.923 0 0 1 974.35 62.051 A 27.228 27.228 0 0 1 971.72 54.108 A 36.644 36.644 0 0 1 971.2 47.801 A 33.142 33.142 0 0 1 972.197 39.532 A 27.968 27.968 0 0 1 974.35 33.801 Q 977.5 27.601 983.05 23.951 A 22.297 22.297 0 0 1 994.245 20.344 A 27.388 27.388 0 0 1 995.8 20.301 A 22.584 22.584 0 0 1 1000.594 20.791 A 18.703 18.703 0 0 1 1003.95 21.851 A 26.002 26.002 0 0 1 1008.237 24.144 A 22.103 22.103 0 0 1 1010.3 25.701 Z M 1121.3 25.701 L 1121.3 21.501 L 1129.5 21.501 L 1129.5 60.901 A 12.15 12.15 0 0 0 1129.602 62.536 Q 1129.934 64.97 1131.35 65.851 Q 1133.2 67.001 1135.4 67.001 L 1133.5 74.001 A 17.722 17.722 0 0 1 1129.235 73.528 Q 1123.598 72.128 1122.003 66.581 A 13.59 13.59 0 0 1 1121.9 66.201 A 21.307 21.307 0 0 1 1118.79 69.627 A 28.498 28.498 0 0 1 1115.65 72.051 Q 1111.7 74.701 1105.6 74.701 Q 1099.1 74.701 1093.8 71.401 A 22.947 22.947 0 0 1 1086.387 63.874 A 27.923 27.923 0 0 1 1085.35 62.051 A 27.228 27.228 0 0 1 1082.72 54.108 A 36.644 36.644 0 0 1 1082.2 47.801 A 33.142 33.142 0 0 1 1083.197 39.532 A 27.968 27.968 0 0 1 1085.35 33.801 Q 1088.5 27.601 1094.05 23.951 A 22.297 22.297 0 0 1 1105.245 20.344 A 27.388 27.388 0 0 1 1106.8 20.301 A 22.584 22.584 0 0 1 1111.594 20.791 A 18.703 18.703 0 0 1 1114.95 21.851 A 26.002 26.002 0 0 1 1119.237 24.144 A 22.103 22.103 0 0 1 1121.3 25.701 Z M 1213 25.701 L 1213 21.501 L 1221.2 21.501 L 1221.2 60.901 A 12.15 12.15 0 0 0 1221.302 62.536 Q 1221.634 64.97 1223.05 65.851 Q 1224.9 67.001 1227.1 67.001 L 1225.2 74.001 A 17.722 17.722 0 0 1 1220.935 73.528 Q 1215.298 72.128 1213.703 66.581 A 13.59 13.59 0 0 1 1213.6 66.201 A 21.307 21.307 0 0 1 1210.49 69.627 A 28.498 28.498 0 0 1 1207.35 72.051 Q 1203.4 74.701 1197.3 74.701 Q 1190.8 74.701 1185.5 71.401 A 22.947 22.947 0 0 1 1178.087 63.874 A 27.923 27.923 0 0 1 1177.05 62.051 A 27.228 27.228 0 0 1 1174.42 54.108 A 36.644 36.644 0 0 1 1173.9 47.801 A 33.142 33.142 0 0 1 1174.897 39.532 A 27.968 27.968 0 0 1 1177.05 33.801 Q 1180.2 27.601 1185.75 23.951 A 22.297 22.297 0 0 1 1196.945 20.344 A 27.388 27.388 0 0 1 1198.5 20.301 A 22.584 22.584 0 0 1 1203.294 20.791 A 18.703 18.703 0 0 1 1206.65 21.851 A 26.002 26.002 0 0 1 1210.937 24.144 A 22.103 22.103 0 0 1 1213 25.701 Z M 1524.1 25.701 L 1524.1 21.501 L 1532.3 21.501 L 1532.3 60.901 A 12.15 12.15 0 0 0 1532.402 62.536 Q 1532.734 64.97 1534.15 65.851 Q 1536 67.001 1538.2 67.001 L 1536.3 74.001 A 17.722 17.722 0 0 1 1532.035 73.528 Q 1526.398 72.128 1524.803 66.581 A 13.59 13.59 0 0 1 1524.7 66.201 A 21.307 21.307 0 0 1 1521.59 69.627 A 28.498 28.498 0 0 1 1518.45 72.051 Q 1514.5 74.701 1508.4 74.701 Q 1501.9 74.701 1496.6 71.401 A 22.947 22.947 0 0 1 1489.187 63.874 A 27.923 27.923 0 0 1 1488.15 62.051 A 27.228 27.228 0 0 1 1485.52 54.108 A 36.644 36.644 0 0 1 1485 47.801 A 33.142 33.142 0 0 1 1485.997 39.532 A 27.968 27.968 0 0 1 1488.15 33.801 Q 1491.3 27.601 1496.85 23.951 A 22.297 22.297 0 0 1 1508.045 20.344 A 27.388 27.388 0 0 1 1509.6 20.301 A 22.584 22.584 0 0 1 1514.394 20.791 A 18.703 18.703 0 0 1 1517.75 21.851 A 26.002 26.002 0 0 1 1522.037 24.144 A 22.103 22.103 0 0 1 1524.1 25.701 Z M 631.7 94.401 L 633.9 86.901 Q 635.103 87.641 636.777 88.21 A 20.464 20.464 0 0 0 637.05 88.301 Q 638.9 88.901 640.8 88.901 A 9.637 9.637 0 0 0 644.519 88.238 Q 648.68 86.508 649.22 80.263 A 22.819 22.819 0 0 0 649.3 78.301 L 649.3 21.501 L 658.3 21.501 L 658.3 79.201 A 27.744 27.744 0 0 1 658.016 83.294 Q 657.691 85.466 656.996 87.259 A 14.026 14.026 0 0 1 656.1 89.151 A 14.572 14.572 0 0 1 652.862 93.1 A 13.375 13.375 0 0 1 650.2 94.851 A 17.63 17.63 0 0 1 643.869 96.612 A 21.513 21.513 0 0 1 641.9 96.701 Q 635.8 96.701 631.7 94.401 Z M 932.1 94.401 L 934.3 86.901 Q 935.503 87.641 937.177 88.21 A 20.464 20.464 0 0 0 937.45 88.301 Q 939.3 88.901 941.2 88.901 A 9.637 9.637 0 0 0 944.919 88.238 Q 949.08 86.508 949.62 80.263 A 22.819 22.819 0 0 0 949.7 78.301 L 949.7 21.501 L 958.7 21.501 L 958.7 79.201 A 27.744 27.744 0 0 1 958.416 83.294 Q 958.091 85.466 957.396 87.259 A 14.026 14.026 0 0 1 956.5 89.151 A 14.572 14.572 0 0 1 953.262 93.1 A 13.375 13.375 0 0 1 950.6 94.851 A 17.63 17.63 0 0 1 944.269 96.612 A 21.513 21.513 0 0 1 942.3 96.701 Q 936.2 96.701 932.1 94.401 Z M 887.7 73.501 L 878.7 73.501 L 878.7 21.501 L 887.4 21.501 L 887.4 32.801 Q 888.7 29.501 890.9 26.651 Q 893.1 23.801 896.4 22.051 A 14.817 14.817 0 0 1 901.08 20.527 A 19.459 19.459 0 0 1 904.1 20.301 Q 905.6 20.301 907.1 20.451 A 18.972 18.972 0 0 1 908.155 20.584 Q 908.655 20.663 909.082 20.763 A 8.817 8.817 0 0 1 909.6 20.901 L 906.9 30.201 A 9.763 9.763 0 0 0 904.755 29.588 Q 903.659 29.401 902.4 29.401 A 12.958 12.958 0 0 0 895.77 31.246 A 15.609 15.609 0 0 0 895.35 31.501 Q 892.022 33.587 889.878 37.943 A 22.927 22.927 0 0 0 889.85 38.001 Q 888.087 41.608 887.77 46.828 A 39.09 39.09 0 0 0 887.7 49.201 L 887.7 73.501 Z M 2138 73.501 L 2129 73.501 L 2129 21.501 L 2137.7 21.501 L 2137.7 32.801 Q 2139 29.501 2141.2 26.651 Q 2143.4 23.801 2146.7 22.051 A 14.817 14.817 0 0 1 2151.38 20.527 A 19.459 19.459 0 0 1 2154.4 20.301 Q 2155.9 20.301 2157.4 20.451 A 18.972 18.972 0 0 1 2158.455 20.584 Q 2158.955 20.663 2159.382 20.763 A 8.817 8.817 0 0 1 2159.9 20.901 L 2157.2 30.201 A 9.763 9.763 0 0 0 2155.055 29.588 Q 2153.959 29.401 2152.7 29.401 A 12.958 12.958 0 0 0 2146.07 31.246 A 15.609 15.609 0 0 0 2145.65 31.501 Q 2142.322 33.587 2140.178 37.943 A 22.927 22.927 0 0 0 2140.15 38.001 Q 2138.387 41.608 2138.07 46.828 A 39.09 39.09 0 0 0 2138 49.201 L 2138 73.501 Z M 354 71.251 A 24.559 24.559 0 0 0 358.598 73.34 Q 362.653 74.701 367.3 74.701 Q 374.7 74.701 380.55 71.301 Q 386.4 67.901 389.8 61.751 A 26.255 26.255 0 0 0 392.453 54.609 A 34.184 34.184 0 0 0 393.2 47.301 A 34.542 34.542 0 0 0 392.715 41.392 A 25.795 25.795 0 0 0 389.75 32.951 Q 386.3 26.901 380.45 23.601 A 24.848 24.848 0 0 0 375.809 21.574 A 27.738 27.738 0 0 0 367.3 20.301 A 31.325 31.325 0 0 0 365.72 20.34 A 26.169 26.169 0 0 0 354.1 23.601 Q 348.2 26.901 344.8 33.001 A 26.023 26.023 0 0 0 342.051 40.591 A 35.006 35.006 0 0 0 341.4 47.501 A 34.82 34.82 0 0 0 341.665 51.854 A 27.451 27.451 0 0 0 344.75 61.651 Q 348.1 67.801 354 71.251 Z M 827.5 71.251 A 24.559 24.559 0 0 0 832.098 73.34 Q 836.153 74.701 840.8 74.701 Q 848.2 74.701 854.05 71.301 Q 859.9 67.901 863.3 61.751 A 26.255 26.255 0 0 0 865.953 54.609 A 34.184 34.184 0 0 0 866.7 47.301 A 34.542 34.542 0 0 0 866.215 41.392 A 25.795 25.795 0 0 0 863.25 32.951 Q 859.8 26.901 853.95 23.601 A 24.848 24.848 0 0 0 849.309 21.574 A 27.738 27.738 0 0 0 840.8 20.301 A 31.325 31.325 0 0 0 839.22 20.34 A 26.169 26.169 0 0 0 827.6 23.601 Q 821.7 26.901 818.3 33.001 A 26.023 26.023 0 0 0 815.551 40.591 A 35.006 35.006 0 0 0 814.9 47.501 A 34.82 34.82 0 0 0 815.165 51.854 A 27.451 27.451 0 0 0 818.25 61.651 Q 821.6 67.801 827.5 71.251 Z M 1345.8 71.251 A 24.559 24.559 0 0 0 1350.398 73.34 Q 1354.453 74.701 1359.1 74.701 Q 1366.5 74.701 1372.35 71.301 Q 1378.2 67.901 1381.6 61.751 A 26.255 26.255 0 0 0 1384.253 54.609 A 34.184 34.184 0 0 0 1385 47.301 A 34.542 34.542 0 0 0 1384.515 41.392 A 25.795 25.795 0 0 0 1381.55 32.951 Q 1378.1 26.901 1372.25 23.601 A 24.848 24.848 0 0 0 1367.609 21.574 A 27.738 27.738 0 0 0 1359.1 20.301 A 31.325 31.325 0 0 0 1357.52 20.34 A 26.169 26.169 0 0 0 1345.9 23.601 Q 1340 26.901 1336.6 33.001 A 26.023 26.023 0 0 0 1333.851 40.591 A 35.006 35.006 0 0 0 1333.2 47.501 A 34.82 34.82 0 0 0 1333.465 51.854 A 27.451 27.451 0 0 0 1336.55 61.651 Q 1339.9 67.801 1345.8 71.251 Z M 1623.5 71.251 A 24.559 24.559 0 0 0 1628.098 73.34 Q 1632.153 74.701 1636.8 74.701 Q 1644.2 74.701 1650.05 71.301 Q 1655.9 67.901 1659.3 61.751 A 26.255 26.255 0 0 0 1661.953 54.609 A 34.184 34.184 0 0 0 1662.7 47.301 A 34.542 34.542 0 0 0 1662.215 41.392 A 25.795 25.795 0 0 0 1659.25 32.951 Q 1655.8 26.901 1649.95 23.601 A 24.848 24.848 0 0 0 1645.309 21.574 A 27.738 27.738 0 0 0 1636.8 20.301 A 31.325 31.325 0 0 0 1635.22 20.34 A 26.169 26.169 0 0 0 1623.6 23.601 Q 1617.7 26.901 1614.3 33.001 A 26.023 26.023 0 0 0 1611.551 40.591 A 35.006 35.006 0 0 0 1610.9 47.501 A 34.82 34.82 0 0 0 1611.165 51.854 A 27.451 27.451 0 0 0 1614.25 61.651 Q 1617.6 67.801 1623.5 71.251 Z M 329.4 73.501 L 320.4 73.501 L 320.4 21.501 L 329.4 21.501 L 329.4 73.501 Z M 802.9 73.501 L 793.9 73.501 L 793.9 21.501 L 802.9 21.501 L 802.9 73.501 Z M 1598.9 73.501 L 1589.9 73.501 L 1589.9 21.501 L 1598.9 21.501 L 1598.9 73.501 Z M 1945 73.501 L 1936 73.501 L 1936 21.501 L 1945 21.501 L 1945 73.501 Z M 367.3 66.701 Q 375.2 66.701 379.6 61.351 A 18.802 18.802 0 0 0 383.419 53.261 A 27.105 27.105 0 0 0 384 47.501 Q 384 42.301 381.8 37.951 A 19.198 19.198 0 0 0 377.628 32.382 A 18.17 18.17 0 0 0 375.85 30.951 Q 372.1 28.301 367.3 28.301 A 19.249 19.249 0 0 0 362.074 28.972 A 14.037 14.037 0 0 0 355 33.501 A 17.878 17.878 0 0 0 351.326 40.874 Q 350.6 43.807 350.6 47.301 Q 350.6 52.501 352.8 56.951 A 19.437 19.437 0 0 0 356.33 61.991 A 17.627 17.627 0 0 0 358.75 64.051 Q 362.5 66.701 367.3 66.701 Z M 840.8 66.701 Q 848.7 66.701 853.1 61.351 A 18.802 18.802 0 0 0 856.919 53.261 A 27.105 27.105 0 0 0 857.5 47.501 Q 857.5 42.301 855.3 37.951 A 19.198 19.198 0 0 0 851.128 32.382 A 18.17 18.17 0 0 0 849.35 30.951 Q 845.6 28.301 840.8 28.301 A 19.249 19.249 0 0 0 835.574 28.972 A 14.037 14.037 0 0 0 828.5 33.501 A 17.878 17.878 0 0 0 824.826 40.874 Q 824.1 43.807 824.1 47.301 Q 824.1 52.501 826.3 56.951 A 19.437 19.437 0 0 0 829.83 61.991 A 17.627 17.627 0 0 0 832.25 64.051 Q 836 66.701 840.8 66.701 Z M 1359.1 66.701 Q 1367 66.701 1371.4 61.351 A 18.802 18.802 0 0 0 1375.219 53.261 A 27.105 27.105 0 0 0 1375.8 47.501 Q 1375.8 42.301 1373.6 37.951 A 19.198 19.198 0 0 0 1369.428 32.382 A 18.17 18.17 0 0 0 1367.65 30.951 Q 1363.9 28.301 1359.1 28.301 A 19.249 19.249 0 0 0 1353.874 28.972 A 14.037 14.037 0 0 0 1346.8 33.501 A 17.878 17.878 0 0 0 1343.126 40.874 Q 1342.4 43.807 1342.4 47.301 Q 1342.4 52.501 1344.6 56.951 A 19.437 19.437 0 0 0 1348.13 61.991 A 17.627 17.627 0 0 0 1350.55 64.051 Q 1354.3 66.701 1359.1 66.701 Z M 1636.8 66.701 Q 1644.7 66.701 1649.1 61.351 A 18.802 18.802 0 0 0 1652.919 53.261 A 27.105 27.105 0 0 0 1653.5 47.501 Q 1653.5 42.301 1651.3 37.951 A 19.198 19.198 0 0 0 1647.128 32.382 A 18.17 18.17 0 0 0 1645.35 30.951 Q 1641.6 28.301 1636.8 28.301 A 19.249 19.249 0 0 0 1631.574 28.972 A 14.037 14.037 0 0 0 1624.5 33.501 A 17.878 17.878 0 0 0 1620.826 40.874 Q 1620.1 43.807 1620.1 47.301 Q 1620.1 52.501 1622.3 56.951 A 19.437 19.437 0 0 0 1625.83 61.991 A 17.627 17.627 0 0 0 1628.25 64.051 Q 1632 66.701 1636.8 66.701 Z M 199.9 60.201 L 199.9 32.301 Q 197.2 30.401 193.95 29.251 Q 190.7 28.101 187.1 28.101 A 15.924 15.924 0 0 0 182.129 28.854 A 14.024 14.024 0 0 0 178.65 30.551 A 16.301 16.301 0 0 0 173.631 35.974 A 19.962 19.962 0 0 0 172.9 37.351 A 20.663 20.663 0 0 0 171.147 43.027 A 27.678 27.678 0 0 0 170.8 47.501 Q 170.8 53.101 172.9 57.451 A 17.602 17.602 0 0 0 176.006 61.997 A 15.697 15.697 0 0 0 178.7 64.251 Q 182.4 66.701 187 66.701 Q 190.8 66.701 194.2 64.851 Q 197.6 63.001 199.9 60.201 Z M 499.2 60.201 L 499.2 32.301 Q 496.5 30.401 493.25 29.251 Q 490 28.101 486.4 28.101 A 15.924 15.924 0 0 0 481.429 28.854 A 14.024 14.024 0 0 0 477.95 30.551 A 16.301 16.301 0 0 0 472.931 35.974 A 19.962 19.962 0 0 0 472.2 37.351 A 20.663 20.663 0 0 0 470.447 43.027 A 27.678 27.678 0 0 0 470.1 47.501 Q 470.1 53.101 472.2 57.451 A 17.602 17.602 0 0 0 475.306 61.997 A 15.697 15.697 0 0 0 478 64.251 Q 481.7 66.701 486.3 66.701 Q 490.1 66.701 493.5 64.851 Q 496.9 63.001 499.2 60.201 Z M 1009.5 60.201 L 1009.5 32.301 Q 1006.8 30.401 1003.55 29.251 Q 1000.3 28.101 996.7 28.101 A 15.924 15.924 0 0 0 991.729 28.854 A 14.024 14.024 0 0 0 988.25 30.551 A 16.301 16.301 0 0 0 983.231 35.974 A 19.962 19.962 0 0 0 982.5 37.351 A 20.663 20.663 0 0 0 980.747 43.027 A 27.678 27.678 0 0 0 980.4 47.501 Q 980.4 53.101 982.5 57.451 A 17.602 17.602 0 0 0 985.606 61.997 A 15.697 15.697 0 0 0 988.3 64.251 Q 992 66.701 996.6 66.701 Q 1000.4 66.701 1003.8 64.851 Q 1007.2 63.001 1009.5 60.201 Z M 1120.5 60.201 L 1120.5 32.301 Q 1117.8 30.401 1114.55 29.251 Q 1111.3 28.101 1107.7 28.101 A 15.924 15.924 0 0 0 1102.729 28.854 A 14.024 14.024 0 0 0 1099.25 30.551 A 16.301 16.301 0 0 0 1094.231 35.974 A 19.962 19.962 0 0 0 1093.5 37.351 A 20.663 20.663 0 0 0 1091.747 43.027 A 27.678 27.678 0 0 0 1091.4 47.501 Q 1091.4 53.101 1093.5 57.451 A 17.602 17.602 0 0 0 1096.606 61.997 A 15.697 15.697 0 0 0 1099.3 64.251 Q 1103 66.701 1107.6 66.701 Q 1111.4 66.701 1114.8 64.851 Q 1118.2 63.001 1120.5 60.201 Z M 1212.2 60.201 L 1212.2 32.301 Q 1209.5 30.401 1206.25 29.251 Q 1203 28.101 1199.4 28.101 A 15.924 15.924 0 0 0 1194.429 28.854 A 14.024 14.024 0 0 0 1190.95 30.551 A 16.301 16.301 0 0 0 1185.931 35.974 A 19.962 19.962 0 0 0 1185.2 37.351 A 20.663 20.663 0 0 0 1183.447 43.027 A 27.678 27.678 0 0 0 1183.1 47.501 Q 1183.1 53.101 1185.2 57.451 A 17.602 17.602 0 0 0 1188.306 61.997 A 15.697 15.697 0 0 0 1191 64.251 Q 1194.7 66.701 1199.3 66.701 Q 1203.1 66.701 1206.5 64.851 Q 1209.9 63.001 1212.2 60.201 Z M 1523.3 60.201 L 1523.3 32.301 Q 1520.6 30.401 1517.35 29.251 Q 1514.1 28.101 1510.5 28.101 A 15.924 15.924 0 0 0 1505.529 28.854 A 14.024 14.024 0 0 0 1502.05 30.551 A 16.301 16.301 0 0 0 1497.031 35.974 A 19.962 19.962 0 0 0 1496.3 37.351 A 20.663 20.663 0 0 0 1494.547 43.027 A 27.678 27.678 0 0 0 1494.2 47.501 Q 1494.2 53.101 1496.3 57.451 A 17.602 17.602 0 0 0 1499.406 61.997 A 15.697 15.697 0 0 0 1502.1 64.251 Q 1505.8 66.701 1510.4 66.701 Q 1514.2 66.701 1517.6 64.851 Q 1521 63.001 1523.3 60.201 Z M 114.7 34.901 L 114.7 60.501 Q 117.3 63.201 120.7 64.951 Q 124.1 66.701 128.1 66.701 Q 134.794 66.701 139.017 61.517 A 17.38 17.38 0 0 0 139.15 61.351 A 18.792 18.792 0 0 0 142.644 54.045 Q 143.305 51.355 143.388 48.209 A 34.555 34.555 0 0 0 143.4 47.301 Q 143.4 41.301 141.25 37.001 Q 139.1 32.701 135.55 30.401 Q 132 28.101 127.7 28.101 A 14.741 14.741 0 0 0 122.073 29.164 A 14.054 14.054 0 0 0 119.95 30.251 Q 116.5 32.401 114.7 34.901 Z M 1911.5 59.501 L 1911.5 32.301 Q 1909.334 30.726 1906.297 29.441 A 36.018 36.018 0 0 0 1906.2 29.401 A 16.249 16.249 0 0 0 1902.396 28.349 A 22.135 22.135 0 0 0 1899 28.101 Q 1894.9 28.101 1891.3 30.301 Q 1887.7 32.501 1885.45 36.651 Q 1883.2 40.801 1883.2 46.801 A 24.32 24.32 0 0 0 1883.678 51.737 A 18.311 18.311 0 0 0 1885.45 56.701 A 18.576 18.576 0 0 0 1888.361 60.775 A 15.802 15.802 0 0 0 1891.3 63.201 Q 1894.9 65.501 1899.1 65.501 A 15.276 15.276 0 0 0 1903.678 64.832 A 13.606 13.606 0 0 0 1906.3 63.701 A 20.855 20.855 0 0 0 1909.281 61.685 A 16.309 16.309 0 0 0 1911.5 59.501 Z M 32.1 12.901 L 18.9 46.501 L 45.2 46.501 L 32.1 12.901 Z M 569.4 43.901 L 597.9 43.901 A 24.355 24.355 0 0 0 597.496 39.315 Q 597 36.731 595.896 34.708 A 12.422 12.422 0 0 0 594.1 32.201 A 12.488 12.488 0 0 0 587.139 28.425 A 18.395 18.395 0 0 0 583.6 28.101 A 13.58 13.58 0 0 0 578.488 29.036 A 12.524 12.524 0 0 0 574 32.151 Q 570.2 36.201 569.4 43.901 Z M 1769.5 43.901 L 1798 43.901 A 24.355 24.355 0 0 0 1797.596 39.315 Q 1797.1 36.731 1795.996 34.708 A 12.422 12.422 0 0 0 1794.2 32.201 A 12.488 12.488 0 0 0 1787.239 28.425 A 18.395 18.395 0 0 0 1783.7 28.101 A 13.58 13.58 0 0 0 1778.588 29.036 A 12.524 12.524 0 0 0 1774.1 32.151 Q 1770.3 36.201 1769.5 43.901 Z M 2025.8 43.901 L 2054.3 43.901 A 24.355 24.355 0 0 0 2053.896 39.315 Q 2053.4 36.731 2052.296 34.708 A 12.422 12.422 0 0 0 2050.5 32.201 A 12.488 12.488 0 0 0 2043.539 28.425 A 18.395 18.395 0 0 0 2040 28.101 A 13.58 13.58 0 0 0 2034.888 29.036 A 12.524 12.524 0 0 0 2030.4 32.151 Q 2026.6 36.201 2025.8 43.901 Z M 2080.2 43.901 L 2108.7 43.901 A 24.355 24.355 0 0 0 2108.296 39.315 Q 2107.8 36.731 2106.696 34.708 A 12.422 12.422 0 0 0 2104.9 32.201 A 12.488 12.488 0 0 0 2097.939 28.425 A 18.395 18.395 0 0 0 2094.4 28.101 A 13.58 13.58 0 0 0 2089.288 29.036 A 12.524 12.524 0 0 0 2084.8 32.151 Q 2081 36.201 2080.2 43.901 Z M 649.237 10.789 A 5.973 5.973 0 0 0 653.6 12.601 A 8.175 8.175 0 0 0 655.096 12.47 A 5.647 5.647 0 0 0 658.2 10.851 Q 659.9 9.101 659.9 6.301 A 7.26 7.26 0 0 0 659.9 6.22 A 6.06 6.06 0 0 0 658.05 1.851 A 7.395 7.395 0 0 0 657.992 1.793 A 6.059 6.059 0 0 0 653.6 0.001 A 8.264 8.264 0 0 0 651.944 0.158 A 5.661 5.661 0 0 0 649 1.701 A 5.588 5.588 0 0 0 647.529 4.333 A 7.987 7.987 0 0 0 647.3 6.301 A 5.992 5.992 0 0 0 647.792 8.719 A 6.643 6.643 0 0 0 649.15 10.701 A 7.466 7.466 0 0 0 649.237 10.789 Z M 949.637 10.789 A 5.973 5.973 0 0 0 954 12.601 A 8.175 8.175 0 0 0 955.496 12.47 A 5.647 5.647 0 0 0 958.6 10.851 Q 960.3 9.101 960.3 6.301 A 7.26 7.26 0 0 0 960.3 6.22 A 6.06 6.06 0 0 0 958.45 1.851 A 7.395 7.395 0 0 0 958.392 1.793 A 6.059 6.059 0 0 0 954 0.001 A 8.264 8.264 0 0 0 952.344 0.158 A 5.661 5.661 0 0 0 949.4 1.701 A 5.588 5.588 0 0 0 947.929 4.333 A 7.987 7.987 0 0 0 947.7 6.301 A 5.992 5.992 0 0 0 948.192 8.719 A 6.643 6.643 0 0 0 949.55 10.701 A 7.466 7.466 0 0 0 949.637 10.789 Z M 320.537 10.789 A 5.973 5.973 0 0 0 324.9 12.601 A 8.175 8.175 0 0 0 326.396 12.47 A 5.647 5.647 0 0 0 329.5 10.851 Q 331.2 9.101 331.2 6.301 A 7.26 7.26 0 0 0 331.2 6.22 A 6.06 6.06 0 0 0 329.35 1.851 A 7.395 7.395 0 0 0 329.292 1.793 A 6.059 6.059 0 0 0 324.9 0.001 A 8.264 8.264 0 0 0 323.244 0.158 A 5.661 5.661 0 0 0 320.3 1.701 A 5.588 5.588 0 0 0 318.829 4.333 A 7.987 7.987 0 0 0 318.6 6.301 A 5.992 5.992 0 0 0 319.092 8.719 A 6.643 6.643 0 0 0 320.45 10.701 A 7.466 7.466 0 0 0 320.537 10.789 Z M 794.037 10.789 A 5.973 5.973 0 0 0 798.4 12.601 A 8.175 8.175 0 0 0 799.896 12.47 A 5.647 5.647 0 0 0 803 10.851 Q 804.7 9.101 804.7 6.301 A 7.26 7.26 0 0 0 804.7 6.22 A 6.06 6.06 0 0 0 802.85 1.851 A 7.395 7.395 0 0 0 802.792 1.793 A 6.059 6.059 0 0 0 798.4 0.001 A 8.264 8.264 0 0 0 796.744 0.158 A 5.661 5.661 0 0 0 793.8 1.701 A 5.588 5.588 0 0 0 792.329 4.333 A 7.987 7.987 0 0 0 792.1 6.301 A 5.992 5.992 0 0 0 792.592 8.719 A 6.643 6.643 0 0 0 793.95 10.701 A 7.466 7.466 0 0 0 794.037 10.789 Z M 1590.037 10.789 A 5.973 5.973 0 0 0 1594.4 12.601 A 8.175 8.175 0 0 0 1595.896 12.47 A 5.647 5.647 0 0 0 1599 10.851 Q 1600.7 9.101 1600.7 6.301 A 7.26 7.26 0 0 0 1600.7 6.22 A 6.06 6.06 0 0 0 1598.85 1.851 A 7.395 7.395 0 0 0 1598.792 1.793 A 6.059 6.059 0 0 0 1594.4 0.001 A 8.264 8.264 0 0 0 1592.744 0.158 A 5.661 5.661 0 0 0 1589.8 1.701 A 5.588 5.588 0 0 0 1588.329 4.333 A 7.987 7.987 0 0 0 1588.1 6.301 A 5.992 5.992 0 0 0 1588.592 8.719 A 6.643 6.643 0 0 0 1589.95 10.701 A 7.466 7.466 0 0 0 1590.037 10.789 Z M 1936.137 10.789 A 5.973 5.973 0 0 0 1940.5 12.601 A 8.175 8.175 0 0 0 1941.996 12.47 A 5.647 5.647 0 0 0 1945.1 10.851 Q 1946.8 9.101 1946.8 6.301 A 7.26 7.26 0 0 0 1946.8 6.22 A 6.06 6.06 0 0 0 1944.95 1.851 A 7.395 7.395 0 0 0 1944.892 1.793 A 6.059 6.059 0 0 0 1940.5 0.001 A 8.264 8.264 0 0 0 1938.844 0.158 A 5.661 5.661 0 0 0 1935.9 1.701 A 5.588 5.588 0 0 0 1934.429 4.333 A 7.987 7.987 0 0 0 1934.2 6.301 A 5.992 5.992 0 0 0 1934.692 8.719 A 6.643 6.643 0 0 0 1936.05 10.701 A 7.466 7.466 0 0 0 1936.137 10.789 Z"    
    <g
       clip-path="url(#clip1)">
    </g>
    <g
       transform="matrix(1.34105,0,0,1.34105,548.8425,-974.56922)"
       id="g5612">
      <path
         class="bear__fur"
         d="m 243,894 c 0,61 -36,106 -94,106 -55,0 -92,-45 -92,-106 0,-61 38,-86 91,-86 53,0 95,25 95,86 z"
         id="path5562" />
      <path
         class="bear__muzzle"
         d="m 212,958 c 0,20 -29,39 -63,39 -35,0 -61,-19 -61,-39 0,-20 26,-33 61,-33 35,0 63,13 63,33 z"
         id="path5564" />
      <path
         class="bear__nose"
         d="m 181,932 c 0,7 -19,24 -30,24 -11,0 -32,-17 -32,-24 0,-8 20,-13 31,-13 12,0 31,5 31,13 z"
         id="path5566" />
      <ellipse
         class="bear__outer-ear"
         cx="68.300003"
         cy="827.70001"
         rx="23.799999"
         ry="23.1"
         id="ellipse5568" />
      <path
         class="bear__inner-ear"
         d="m 85,826 a 17,16 0 0 0 -17,-14 17,16 0 0 0 -16,16 17,16 0 0 0 16,16 17,16 0 0 0 1,0 l 3,-4 a 66,66 0 0 1 11,-12 z"
         id="path5570" />
      <ellipse
         class="bear__outer-ear"
         ry="23.1"
         rx="23.799999"
         cy="827.70001"
         cx="-231.2"
         transform="scale(-1,1)"
         id="ellipse5572" />
      <path
         class="bear__inner-ear"
         d="m 215,826 a 17,16 0 0 1 16,-14 17,16 0 0 1 17,16 17,16 0 0 1 -17,16 17,16 0 0 1 -1,0 l -2,-4 a 66,66 0 0 0 -11,-12 z"
         id="path5574" />
      <path
         class="bear__cap-strap"
         d="m 148,815 c -14,0 -26,1 -38,4 v 11 a 199,199 0 0 1 80,1 v -11 c -13,-3 -27,-5 -42,-5 z"
         id="path5576" />
      <path
         class="bear__small-cap-strap"
         d="m 165,816 a 16,8 0 0 1 5,5 16,8 0 0 1 -6,6 l 26,4 v -11 z"
         id="path5578" />
      <path
         class="bear__cap"
         d="m 148,789 c -43,0 -76,20 -83,64 12,-11 28,-19 45,-23 0,0 -2,-12 10,-16 15,-4 19,-4 28,-4 10,0 15,0 30,4 15,4 12,17 12,17 18,5 32,11 45,22 -8,-46 -43,-64 -87,-64 z"
         id="path5580" />
      <circle
         class="bear__eye"
         cx="97.199997"
         cy="894.09998"
         r="11.2"
         id="circle5582" />
      <circle
         class="bear__eye"
         cy="894.09998"
         cx="201.89999"
         r="11.2"
         id="circle5584" />
      <path
         style="fill:none;stroke:#e9afaf;stroke-width:3;stroke-linecap:round;stroke-linejoin:round"
         class="bear__eyebrows"
         d="m 97,864 a 21,21 0 0 1 -7,16 21,21 0 0 1 -16,5 m 130,-21 a 21,21 0 0 0 6,16 21,21 0 0 0 16,5"
         id="path5586" />
      <path
         class="shades-frame"
         d="m 77,855 c -6,0 -13,0 -23,2 l -14,3 2,15 7,2 c 3,5 1,10 2,18 3,28 12,34 26,35 8,1 23,3 33,-1 10,-4 19,-10 25,-18 6,-9 6,-18 10,-26 3,-5 8,-4 10,0 3,8 4,17 10,26 6,8 15,14 24,18 11,4 26,2 34,1 14,-1 23,-7 26,-35 1,-8 -2,-13 2,-18 l 7,-2 2,-15 -15,-3 c -15,-3 -23,-2 -34,-2 h -13 l -25,4 c -8,2 -15,7 -23,6 -8,0 -15,-5 -23,-6 l -25,-4 z"
         id="path5588" />
      <path
         style="fill:#333333"
         class="lens"
         d="m 85,860 c -10,1 -25,1 -28,13 -3,15 -3,32 6,45 7,11 23,9 35,9 19,-1 35,-16 40,-34 2,-8 4,-14 1,-19 -6,-10 -20,-12 -31,-13 z"
         id="path5590" />
      <path
         class="shades-dot"
         d="m 56,864 a 4,2 0 0 1 -4,2 4,2 0 0 1 -4,-2 4,2 0 0 1 4,-1 4,2 0 0 1 4,1"
         id="path5592" />
      <path
         style="fill:#333333"
         class="lens"
         d="m 215,860 c 10,1 24,1 28,13 3,15 3,32 -6,45 -7,11 -23,9 -35,9 -19,-1 -35,-16 -40,-34 -2,-8 -4,-14 -1,-19 6,-10 20,-12 31,-13 z"
         id="path5594" />
      <path
         class="shades-dot"
         d="m 244,864 a 4,2 0 0 0 4,2 4,2 0 0 0 4,-2 4,2 0 0 0 -4,-1 4,2 0 0 0 -4,1"
         id="path5596" />
      <g
         clip-path="url(#spec-left)"
         id="g5602">
        <use
           height="100%"
           width="100%"
           y="0"
           x="0"
           xlink:href="#code-block"
           id="use5598" />
        <use
           height="100%"
           width="100%"
           x="0"
           xlink:href="#code-block"
           y="283.5"
           id="use5600" />
      </g>
      <g
         clip-path="url(#spec-right)"
         id="g5608">
        <use
           height="100%"
           width="100%"
           y="0"
           x="0"
           xlink:href="#code-block"
           transform="translate(104)"
           id="use5604" />
        <use
           height="100%"
           width="100%"
           x="0"
           xlink:href="#code-block"
           transform="translate(104)"
           y="283.5"
           id="use5606" />
      </g>
      <path
         class="lens__shine"
         d="m 101,861 -19,66 h 17 l 18,-65 z m -12,-1 h -4 l -3,1 -18,59 6,5 z"
         id="path5610" />
    </g>
  </g>
  <defs
     id="defs48">
    <pattern
       height="1"
       width="1"
       patternContentUnits="objectBoundingBox"
       id="pattern0">
      <use
         id="use38"
         transform="scale(0.005)"
         xlink:href="#image0" />
    </pattern>
    <clipPath
       id="clip0">
      <rect
         id="rect41"
         fill="white"
         height="500"
         width="1500" />
    </clipPath>
    <clipPath
       id="clip1">
      <rect
         id="rect44"
         transform="translate(1261 188)"
         fill="white"
         height="50"
         width="50" />
    </clipPath>
    <style
       type="text/css"
       id="style5503">
         svg {
  --fur: #662900;
  --ear: #e4b89b;
  --cap-strap--large: #f00;
  --cap-strap--small: #900;
  --cap: #0d0d0d;
  --dots: rgba(242,242,242,0.6);
  --frame: #000;
  --shine: rgba(242,242,242,0.35);
  --lens: #595959;
  --code-one: rgba(128,230,25,0.5);
  --code-two: rgba(229,230,25,0.5);
  --code-three: rgba(230,25,128,0.5);
  --code-four: rgba(25,195,230,0.5);
}
.code-block {
  -webkit-animation: read 1s infinite linear;
          animation: read 1s infinite linear;
}
.code-block rect {
  fill: var(--code-one);
}
.code-block rect:nth-of-type(5) {
  fill: var(--code-four);
}
.code-block rect:nth-of-type(8),
.code-block rect:nth-of-type(9) {
  fill: var(--code-two);
}
.code-block rect:nth-of-type(12) {
  fill: var(--code-three);
}
.bear__fur,
.bear__outer-ear {
  fill: var(--fur);
}
.bear__inner-ear,
.bear__muzzle {
  fill: var(--ear);
}
.bear__cap-strap {
  fill: var(--cap-strap--large);
}
.bear__small-cap-strap {
  fill: var(--cap-strap--small);
}
.bear__cap {
  fill: var(--cap);
}
.lens {
  fill: var(--lens);
}
.lens__shine {
  fill: var(--shine);
}
.shades-dot {
  fill: var(--dots);
}
.bear__nose,
.shades-frame {
  fill: var(--frame);
}
@-webkit-keyframes read {
  to {
    -webkit-transform: translate(0, -283.5px);
            transform: translate(0, -283.5px);
  }
}
@keyframes read {
  to {
    -webkit-transform: translate(0, -283.5px);
            transform: translate(0, -283.5px);
  }
}
   </style>
    <g
       class="code-block"
       id="code-block">
      <rect
         ry="0"
         y="862"
         x="60"
         height="7.5"
         width="74"
         id="rect5505" />
      <rect
         ry="0"
         y="874"
         x="96"
         height="7.5"
         width="28"
         id="rect5507" />
      <rect
         width="54"
         height="7.5"
         x="60"
         y="886"
         ry="0"
         id="rect5509" />
      <rect
         ry="0"
         y="897"
         x="60"
         height="7.5"
         width="74"
         id="rect5511" />
      <rect
         width="56"
         height="7.5"
         x="78"
         y="909"
         ry="0"
         id="rect5513" />
      <rect
         ry="0"
         y="921"
         x="83"
         height="7.5"
         width="51"
         id="rect5515" />
      <rect
         width="51"
         height="7.5"
         x="73"
         y="932"
         ry="0"
         id="rect5517" />
      <rect
         ry="0"
         y="944"
         x="72"
         height="7.5"
         width="62"
         id="rect5519" />
      <rect
         width="74"
         height="7.5"
         x="60"
         y="956"
         ry="0"
         id="rect5521" />
      <rect
         ry="0"
         y="967"
         x="50"
         height="7.5"
         width="84"
         id="rect5523" />
      <rect
         width="64"
         height="7.5"
         x="60"
         y="979"
         ry="0"
         id="rect5525" />
      <rect
         ry="0"
         y="991"
         x="60"
         height="7.5"
         width="74"
         id="rect5527" />
      <rect
         width="41"
         height="7.5"
         x="93"
         y="1003"
         ry="0"
         id="rect5529" />
      <rect
         ry="0"
         y="1014"
         x="66"
         height="7.5"
         width="58"
         id="rect5531" />
      <rect
         width="58"
         height="7.5"
         x="56"
         y="1026"
         ry="0"
         id="rect5533" />
      <rect
         ry="0"
         y="1038"
         x="50"
         height="7.5"
         width="74"
         id="rect5535" />
      <rect
         width="46"
         height="7.5"
         x="88"
         y="1049"
         ry="0"
         id="rect5537" />
      <rect
         ry="0"
         y="1061"
         x="105"
         height="7.5"
         width="19"
         id="rect5539" />
      <rect
         width="38"
         height="7.5"
         x="96"
         y="1073"
         ry="0"
         id="rect5541" />
      <rect
         ry="0"
         y="1084"
         x="73"
         height="7.5"
         width="51"
         id="rect5543" />
      <rect
         ry="0"
         y="1096"
         x="88"
         height="7.5"
         width="26"
         id="rect5545" />
      <rect
         width="56"
         height="7.5"
         x="68"
         y="1108"
         ry="0"
         id="rect5547" />
      <rect
         ry="0"
         y="1120"
         x="100"
         height="7.5"
         width="24"
         id="rect5549" />
      <rect
         width="74"
         height="7.5"
         x="50"
         y="1131"
         ry="0"
         id="rect5551" />
    </g>
    <clipPath
       id="spec-left">
      <path
         d="M85 860c-10 1-25 1-28 13-3 15-3 32 6 45 7 11 23 9 35 9 19-1 35-16 40-34 2-8 4-14 1-19-6-10-20-12-31-13l-23-1z"
         fill="#333"
         id="path5554" />
    </clipPath>
    <clipPath
       id="spec-right">
      <path
         d="M215 860c10 1 24 1 28 13 3 15 3 32-6 45-7 11-23 9-35 9-19-1-35-16-40-34-2-8-4-14-1-19 6-10 20-12 31-13l23-1z"
         fill="#333"
         id="path5557" />
    </clipPath>
  </defs>
</svg>
